<svg viewBox="0 0 3000 3000" xmlns="http://www.w3.org/2000/svg" xml:space="preserve" style="fill-rule:evenodd;clip-rule:evenodd;stroke-linecap:round;stroke-linejoin:round;stroke-miterlimit:1.5"><path style="fill:none" d="M637.375 638h600v600h-600z" transform="matrix(5.00002 0 0 5 -3186.876 -3190.001)"/><path d="M138.157 185.695c8.359 12.78 22.764 58.29 18.647 66.829-4.117 8.539-24.306 13.348-28.423 4.809-.797-1.652-5.182-4.936-6.084-7.267-.675-1.743 10.822-24.597 10.822-24.597s-.754-25.634-1.189-27.925c-3.293-5.495-.205-11.501 6.227-11.849z" style="fill:#caaf9f;stroke:#433d39;stroke-width:2.22px" transform="matrix(5.17557 -1.22546 1.74948 3.62533 199.377 125.971)"/><path d="M136.875 183.895c8.233 0 11.078 63.521 6.58 71.865-2.548 4.727-13.196.759-16.224-2.285-3.316-3.333 10.673-17.46 11.782-34.763 1.309-20.435-6.597-34.817-2.138-34.817z" style="fill:#e0d3cc" transform="matrix(3.9488 -.935 1.3348 2.76602 450.067 283.372)"/><path d="M1635.95 369.777c4.77 1.67 9.94 5.899 15.11 11.5-13.89 1.73-17.73 19.499-22.78 20.715-5.01 1.206-8.86-8.406-7.67-13.417 1.28-5.369 8.32-17.251 15.34-18.798z" style="fill:#caaf9f;stroke:#433d39;stroke-width:2.3px" transform="matrix(5.00002 0 0 5 -6940.006 -1221.793)"/><path d="M138.356 182.132c8.359 12.78 22.565 61.853 18.448 70.392-4.117 8.539-24.306 13.348-28.423 4.809-.797-1.652-6.916-5.522-7.818-7.853-.675-1.743 9.419-20.217 9.419-20.217s2.582-32.991 2.147-35.282c-3.293-5.494-.205-11.501 6.227-11.849z" style="fill:#caaf9f;stroke:#433d39;stroke-width:2.22px" transform="matrix(-5.17557 -1.22546 -1.74948 3.62533 2794.848 125.971)"/><path d="M140.3 178.698c8.234 0 7.653 68.718 3.155 77.062-2.548 4.727-14.639-.238-17.668-3.282-3.316-3.333 10.619-13.716 11.728-31.019 1.309-20.435-1.674-42.761 2.785-42.761z" style="fill:#e0d3cc" transform="matrix(-3.9488 -.935 -1.3348 2.76602 2544.16 283.372)"/><path d="M1634.03 373.171c4.77 1.67 15.46 9.7 20.94 17.11-19.65-4.692-33.62 21.351-38.66 22.568-5.01 1.206-5.18-4.106-3.99-9.117 1.28-5.369 14.04-31.043 21.71-30.561z" style="fill:#caaf9f;stroke:#433d39;stroke-width:2.3px" transform="matrix(-5.00002 0 0 5 9929.533 -1252.303)"/></svg>