<svg viewBox="0 0 3000 3000" xmlns="http://www.w3.org/2000/svg" xml:space="preserve" style="fill-rule:evenodd;clip-rule:evenodd;stroke-linejoin:round;stroke-miterlimit:2"><path style="fill:none" d="M637.375 638h600v600h-600z" transform="matrix(5.00002 0 0 5 -3186.874 -3190.002)"/><path d="M139.819 201.617c8.234 0 28.819 42.694 24.702 51.233-4.117 8.538-45.286 8.538-49.403 0-4.117-8.539 16.467-51.233 24.701-51.233z" style="fill:#caaf9f" transform="matrix(-4.7367 -1.60114 -1.60114 4.7367 2687.885 -114.073)"/><path d="M139.819 199.315c1.398 0 3.122.714 4.932 2.266 3.127 2.68 6.943 8.08 10.516 14.49 5.241 9.4 10.014 20.967 11.551 28.856.768 3.938.66 7.089-.224 8.922-.804 1.669-2.598 3.205-5.249 4.373-4.963 2.187-13.24 3.334-21.526 3.334-8.285 0-16.562-1.147-21.526-3.334-2.65-1.168-4.444-2.704-5.249-4.373-.884-1.833-.991-4.984-.224-8.922 1.538-7.889 6.311-19.456 11.551-28.856 3.574-6.41 7.389-11.81 10.517-14.49 1.81-1.552 3.534-2.266 4.931-2.266zm0 2.302c8.234 0 28.819 42.694 24.702 51.233-4.117 8.538-45.286 8.538-49.403 0-4.117-8.539 16.467-51.233 24.701-51.233z" style="fill:#433d39" transform="matrix(-4.7367 -1.60114 -1.60114 4.7367 2687.885 -114.073)"/><g><path d="M139.819 201.617c8.234 0 28.819 42.694 24.702 51.233-4.117 8.538-45.286 8.538-49.403 0-4.117-8.539 16.467-51.233 24.701-51.233z" style="fill:#e0d3cc" transform="matrix(-3.61397 -1.22162 -1.22163 3.61397 2443.455 91.581)"/></g><g><path d="M139.819 201.617c8.234 0 28.819 42.694 24.702 51.233-4.117 8.538-45.286 8.538-49.403 0-4.117-8.539 16.467-51.233 24.701-51.233z" style="fill:#caaf9f" transform="matrix(4.7367 -1.60114 1.60114 4.7367 309.542 -114.073)"/><path d="M139.819 199.315c-1.397 0-3.121.714-4.931 2.266-3.128 2.68-6.943 8.08-10.517 14.49-5.24 9.4-10.013 20.967-11.551 28.856-.767 3.938-.66 7.089.224 8.922.805 1.669 2.599 3.205 5.249 4.373 4.964 2.187 13.241 3.334 21.526 3.334 8.286 0 16.563-1.147 21.526-3.334 2.651-1.168 4.445-2.704 5.249-4.373.884-1.833.992-4.984.224-8.922-1.537-7.889-6.31-19.456-11.551-28.856-3.573-6.41-7.389-11.81-10.516-14.49-1.81-1.552-3.534-2.266-4.932-2.266zm0 2.302c8.234 0 28.819 42.694 24.702 51.233-4.117 8.538-45.286 8.538-49.403 0-4.117-8.539 16.467-51.233 24.701-51.233z" style="fill:#433d39" transform="matrix(4.7367 -1.60114 1.60114 4.7367 309.542 -114.073)"/><g><path d="M139.819 201.617c8.234 0 28.819 42.694 24.702 51.233-4.117 8.538-45.286 8.538-49.403 0-4.117-8.539 16.467-51.233 24.701-51.233z" style="fill:#e0d3cc" transform="matrix(3.61397 -1.22162 1.22163 3.61397 553.972 91.581)"/></g></g></svg>