<svg viewBox="0 0 3000 3000" xmlns="http://www.w3.org/2000/svg" xml:space="preserve" style="fill-rule:evenodd;clip-rule:evenodd;stroke-linecap:round;stroke-linejoin:round;stroke-miterlimit:1.5"><path style="fill:none" d="M637.375 638h600v600h-600z" transform="matrix(5.00002 0 0 5 -3186.874 -3190.001)"/><g transform="matrix(5.39192 0 0 5 -7540.35 165.553)"><path d="m1650.55 146.757 16.22-5.792s-24.28-52.735-35.63-52.977c-11.34-.241-33.98 17.544-41.41 48.632-4.18 17.491 3.28 48.901 10.13 53.873 6.86 4.972 19.32-13.131 24.1-24.33 4.78-11.199 7.14-38.763 8.92-42.528 1.79-3.765 17.67 23.122 17.67 23.122z" style="fill:#caaf9f"/><clipPath id="a"><path d="m1650.55 146.757 16.22-5.792s-24.28-52.735-35.63-52.977c-11.34-.241-33.98 17.544-41.41 48.632-4.18 17.491 3.28 48.901 10.13 53.873 6.86 4.972 19.32-13.131 24.1-24.33 4.78-11.199 7.14-38.763 8.92-42.528 1.79-3.765 17.67 23.122 17.67 23.122z"/></clipPath><g clip-path="url(#a)"><path d="M1705.95 148.423c7.04-13.576 15.25-26.421 28.62-36.035-1.87 7.381.24 8.368.85 17.12l-19.24 22.771-10.23-3.856z" style="fill:#e0d3cc;stroke:#29231f;stroke-width:.17px" transform="matrix(-.92732 0 0 1 3241.47 0)"/></g><path d="m1650.55 146.757 16.22-5.792s-24.28-52.735-35.63-52.977c-11.34-.241-33.98 17.544-41.41 48.632-4.18 17.491 3.28 48.901 10.13 53.873 6.86 4.972 19.32-13.131 24.1-24.33 4.78-11.199 7.14-38.763 8.92-42.528 1.79-3.765 17.67 23.122 17.67 23.122z" style="fill:none;stroke:#433d39;stroke-width:2.21px"/></g><g transform="matrix(-5.39192 0 0 5 10539.988 165.553)"><path d="m1650.55 146.757 16.22-5.792s-24.28-52.735-35.63-52.977c-11.34-.241-33.98 17.544-41.41 48.632-4.18 17.491 3.28 48.901 10.13 53.873 6.86 4.972 18.39-13.131 23.17-24.33 4.78-11.199 8.07-38.763 9.85-42.528 1.79-3.765 17.67 23.122 17.67 23.122z" style="fill:#caaf9f"/><clipPath id="b"><path d="m1650.55 146.757 16.22-5.792s-24.28-52.735-35.63-52.977c-11.34-.241-33.98 17.544-41.41 48.632-4.18 17.491 3.28 48.901 10.13 53.873 6.86 4.972 18.39-13.131 23.17-24.33 4.78-11.199 8.07-38.763 9.85-42.528 1.79-3.765 17.67 23.122 17.67 23.122z"/></clipPath><g clip-path="url(#b)"><path d="M1705.95 148.423c7.04-13.576 15.25-26.421 28.62-36.035-1.87 7.381.24 8.368.85 17.12l-19.24 22.771-10.23-3.856z" style="fill:#e0d3cc;stroke:#29231f;stroke-width:.17px" transform="matrix(-.92732 0 0 1 3241.43 0)"/></g><path d="m1650.55 146.757 16.22-5.792s-24.28-52.735-35.63-52.977c-11.34-.241-33.98 17.544-41.41 48.632-4.18 17.491 3.28 48.901 10.13 53.873 6.86 4.972 18.39-13.131 23.17-24.33 4.78-11.199 8.07-38.763 9.85-42.528 1.79-3.765 17.67 23.122 17.67 23.122z" style="fill:none;stroke:#433d39;stroke-width:2.21px"/></g></svg>