<svg viewBox="0 0 3000 3000" xmlns="http://www.w3.org/2000/svg" xml:space="preserve" style="fill-rule:evenodd;clip-rule:evenodd;stroke-linecap:round;stroke-linejoin:round;stroke-miterlimit:1.5"><path style="fill:none" d="M637.375 638h600v600h-600z" transform="matrix(5.00002 0 0 5 -3186.876 -3190.004)"/><g transform="matrix(-5.39192 0 0 5 10540.195 165.57)"><path d="m1650.55 146.757 16.22-5.792s-24.28-37.735-35.63-37.977c-11.34-.241-22.19 15.917-24.67 27.825-3.68 17.623 7.69 11.231 15.27 11.955 8.23.787 9.36-4.368 11.14-8.133 1.79-3.765 17.67 12.122 17.67 12.122z" style="fill:#caaf9f"/><clipPath id="a"><path d="m1650.55 146.757 16.22-5.792s-24.28-37.735-35.63-37.977c-11.34-.241-22.19 15.917-24.67 27.825-3.68 17.623 7.69 11.231 15.27 11.955 8.23.787 9.36-4.368 11.14-8.133 1.79-3.765 17.67 12.122 17.67 12.122z"/></clipPath><g clip-path="url(#a)"><path d="M1705.95 148.423c7.04-13.576 15.25-13.421 28.62-23.035-1.87 7.381.24 8.368.85 17.12l-19.24 9.771-10.23-3.856z" style="fill:#e0d3cc;stroke:#29231f;stroke-width:.17px" transform="matrix(-.92732 0 0 1 3241.43 0)"/></g><path d="m1650.55 146.757 16.22-5.792s-24.28-37.735-35.63-37.977c-11.34-.241-22.19 15.917-24.67 27.825-3.68 17.623 7.69 11.231 15.27 11.955 8.23.787 9.36-4.368 11.14-8.133 1.79-3.765 17.67 12.122 17.67 12.122z" style="fill:none;stroke:#433d39;stroke-width:2.24px"/></g><g transform="matrix(5.39192 0 0 5 -7541.402 165.57)"><path d="m1650.55 146.757 16.22-5.792s-24.28-37.735-35.63-37.977c-11.34-.241-22.19 15.917-24.67 27.825-3.68 17.623 7.69 11.231 15.27 11.955 8.23.787 9.36-4.368 11.14-8.133 1.79-3.765 17.67 12.122 17.67 12.122z" style="fill:#caaf9f"/><clipPath id="b"><path d="m1650.55 146.757 16.22-5.792s-24.28-37.735-35.63-37.977c-11.34-.241-22.19 15.917-24.67 27.825-3.68 17.623 7.69 11.231 15.27 11.955 8.23.787 9.36-4.368 11.14-8.133 1.79-3.765 17.67 12.122 17.67 12.122z"/></clipPath><g clip-path="url(#b)"><path d="M1705.95 148.423c7.04-13.576 15.25-13.421 28.62-23.035-1.87 7.381.24 8.368.85 17.12l-19.24 9.771-10.23-3.856z" style="fill:#e0d3cc;stroke:#29231f;stroke-width:.17px" transform="matrix(-.92732 0 0 1 3241.43 0)"/></g><path d="m1650.55 146.757 16.22-5.792s-24.28-37.735-35.63-37.977c-11.34-.241-22.19 15.917-24.67 27.825-3.68 17.623 7.69 11.231 15.27 11.955 8.23.787 9.36-4.368 11.14-8.133 1.79-3.765 17.67 12.122 17.67 12.122z" style="fill:none;stroke:#433d39;stroke-width:2.24px"/></g></svg>