<svg viewBox="0 0 3000 3000" xmlns="http://www.w3.org/2000/svg" xml:space="preserve" style="fill-rule:evenodd;clip-rule:evenodd;stroke-linecap:round;stroke-linejoin:round;stroke-miterlimit:1.5"><path style="fill:none" d="M637.375 638h600v600h-600z" transform="matrix(5.00002 0 0 5 -3186.877 -3190.001)"/><path d="M111.883 223.481c8.234 0 56.755 20.83 52.638 29.369-4.117 8.538-45.286 8.538-49.403 0a85.404 85.404 0 0 1-2.616-6.095c-.674-1.743 1.466-6.683 1.466-6.683s-4.843-3.708-5.278-5.999c-1.115-5.869-.728-10.592 3.193-10.592z" style="fill:#caaf9f;stroke:#433d39;stroke-width:2.33px" transform="matrix(4.7367 -1.60114 1.60114 4.7367 309.454 -114.218)"/><path d="M105.776 227.724c8.234 0 61.441 19.526 57.324 28.065-4.117 8.539-40.855 3.311-47.982-2.939-7.71-6.762-17.576-25.126-9.342-25.126z" style="fill:#e0d3cc" transform="matrix(3.61397 -1.22162 1.22163 3.61397 553.887 91.436)"/><path d="M111.883 223.481c8.234 0 56.755 20.83 52.638 29.369-4.117 8.538-45.286 8.538-49.403 0-1.675-3.473-3.884-8.98-5.363-14.291-.353-1.269 3.688-4.156 3.688-4.156s-5.146-2.577-5.243-3.913c-.296-4.095.603-7.009 3.683-7.009z" style="fill:#caaf9f;stroke:#433d39;stroke-width:2.33px" transform="matrix(-4.7367 -1.60114 -1.60114 4.7367 2683.337 -114.218)"/><path d="M105.776 227.724c8.234 0 61.441 19.526 57.324 28.065-4.117 8.539-40.855 3.311-47.982-2.939-7.71-6.762-17.576-25.126-9.342-25.126z" style="fill:#e0d3cc" transform="matrix(-3.61397 -1.22162 -1.22163 3.61397 2438.902 91.436)"/></svg>