<?xml version="1.0" encoding="UTF-8" standalone="no"?>
<!DOCTYPE svg PUBLIC "-//W3C//DTD SVG 1.1//EN" "http://www.w3.org/Graphics/SVG/1.1/DTD/svg11.dtd">
<svg width="100%" height="100%" viewBox="0 0 3000 3000" version="1.1" xmlns="http://www.w3.org/2000/svg" xmlns:xlink="http://www.w3.org/1999/xlink" xml:space="preserve" xmlns:serif="http://www.serif.com/" style="fill-rule:evenodd;clip-rule:evenodd;stroke-linejoin:round;stroke-miterlimit:2;">
    <g id="eye3" transform="matrix(1.46091,0,0,5,-110.725,791.379)">
        <g transform="matrix(3.42252,0,0,1,-2105.64,-796.276)">
            <rect x="637.375" y="638" width="600" height="600" style="fill:none;"/>
        </g>
        <g transform="matrix(-3.31307,0,0,1.01027,2120.39,-152.463)">
            <g transform="matrix(-1.20317,0,0,1.18941,666.979,-37.8157)">
                <ellipse cx="316.776" cy="186.416" rx="14.638" ry="13.723" style="fill:rgb(115,107,102);"/>
            </g>
            <g transform="matrix(-0.863584,0,0,0.877468,560.353,22.2241)">
                <ellipse cx="316.776" cy="186.416" rx="14.638" ry="13.723" style="fill:rgb(18,18,18);"/>
            </g>
            <g transform="matrix(-1.00273,0.554538,0.578741,0.960798,722.357,-641.612)">
                <path d="M695.763,454.707C695.868,454.671 695.952,454.591 695.994,454.489C696.035,454.386 696.03,454.27 695.98,454.171C695.506,453.23 694.341,450.947 693.887,450.059C693.838,449.963 693.752,449.892 693.649,449.862C693.546,449.833 693.435,449.847 693.343,449.902C687.361,453.552 687.624,463.139 693.162,465.752C693.355,465.84 693.583,465.756 693.672,465.563C694.058,464.734 695.038,462.616 695.429,461.769C695.518,461.577 695.435,461.348 695.244,461.257C692.596,459.957 692.674,455.787 695.763,454.707Z" style="fill:rgb(214,214,214);"/>
            </g>
            <g transform="matrix(0.923363,-0.669229,0.698438,0.884747,-678.193,248.31)">
                <path d="M695.763,454.707C695.868,454.671 695.952,454.591 695.994,454.489C696.035,454.386 696.03,454.27 695.98,454.171C695.506,453.23 694.341,450.947 693.887,450.059C693.838,449.963 693.752,449.892 693.649,449.862C693.546,449.833 693.435,449.847 693.343,449.902C687.361,453.552 687.624,463.139 693.162,465.752C693.355,465.84 693.583,465.756 693.672,465.563C694.058,464.734 695.038,462.616 695.429,461.769C695.518,461.577 695.435,461.348 695.244,461.257C692.596,459.957 692.674,455.787 695.763,454.707Z" style="fill:rgb(214,214,214);fill-opacity:0.58;"/>
            </g>
            <g transform="matrix(-0.197232,0,0,0.200385,344.749,142.6)">
                <ellipse cx="316.776" cy="186.416" rx="14.638" ry="13.723" style="fill:rgb(214,214,214);"/>
            </g>
            <g transform="matrix(-0.090975,0,0,0.0917838,314.2,159.343)">
                <ellipse cx="316.776" cy="186.416" rx="14.638" ry="13.723" style="fill:rgb(214,214,214);"/>
            </g>
            <g transform="matrix(-0.19192,0,0,0.194955,352.413,155.763)">
                <ellipse cx="316.776" cy="186.416" rx="14.638" ry="13.723" style="fill:rgb(214,214,214);"/>
            </g>
            <g transform="matrix(-0.138791,0,0,0.140654,328.098,167.562)">
                <ellipse cx="316.776" cy="186.416" rx="14.638" ry="13.723" style="fill:rgb(214,214,214);"/>
            </g>
            <g transform="matrix(-0.138791,0,0,0.140654,321.973,158.993)">
                <ellipse cx="316.776" cy="186.416" rx="14.638" ry="13.723" style="fill:rgb(214,214,214);"/>
            </g>
        </g>
        <g transform="matrix(3.31307,0,0,1.01027,84.7045,-152.463)">
            <g transform="matrix(-1.20317,0,0,1.18941,666.979,-37.8157)">
                <ellipse cx="316.776" cy="186.416" rx="14.638" ry="13.723" style="fill:rgb(115,107,102);"/>
            </g>
            <g transform="matrix(0.863584,0,0,0.877468,13.2279,22.2241)">
                <ellipse cx="316.776" cy="186.416" rx="14.638" ry="13.723" style="fill:rgb(18,18,18);"/>
            </g>
            <g transform="matrix(1.00273,0.554538,-0.578741,0.960798,-148.777,-641.612)">
                <path d="M695.763,454.707C695.868,454.671 695.952,454.591 695.994,454.489C696.035,454.386 696.03,454.27 695.98,454.171C695.506,453.23 694.341,450.947 693.887,450.059C693.838,449.963 693.752,449.892 693.649,449.862C693.546,449.833 693.435,449.847 693.343,449.902C687.361,453.552 687.624,463.139 693.162,465.752C693.355,465.84 693.583,465.756 693.672,465.563C694.058,464.734 695.038,462.616 695.429,461.769C695.518,461.577 695.435,461.348 695.244,461.257C692.596,459.957 692.674,455.787 695.763,454.707Z" style="fill:rgb(214,214,214);"/>
            </g>
            <g transform="matrix(-0.923363,-0.669229,-0.698438,0.884747,1251.77,248.31)">
                <path d="M695.763,454.707C695.868,454.671 695.952,454.591 695.994,454.489C696.035,454.386 696.03,454.27 695.98,454.171C695.506,453.23 694.341,450.947 693.887,450.059C693.838,449.963 693.752,449.892 693.649,449.862C693.546,449.833 693.435,449.847 693.343,449.902C687.361,453.552 687.624,463.139 693.162,465.752C693.355,465.84 693.583,465.756 693.672,465.563C694.058,464.734 695.038,462.616 695.429,461.769C695.518,461.577 695.435,461.348 695.244,461.257C692.596,459.957 692.674,455.787 695.763,454.707Z" style="fill:rgb(214,214,214);fill-opacity:0.58;"/>
            </g>
            <g transform="matrix(0.197232,0,0,0.200385,228.832,142.6)">
                <ellipse cx="316.776" cy="186.416" rx="14.638" ry="13.723" style="fill:rgb(214,214,214);"/>
            </g>
            <g transform="matrix(0.19192,0,0,0.194955,221.168,155.763)">
                <ellipse cx="316.776" cy="186.416" rx="14.638" ry="13.723" style="fill:rgb(214,214,214);"/>
            </g>
            <g transform="matrix(0.138791,0,0,0.140654,245.483,167.562)">
                <ellipse cx="316.776" cy="186.416" rx="14.638" ry="13.723" style="fill:rgb(214,214,214);"/>
            </g>
            <g transform="matrix(0.138791,0,0,0.140654,251.607,158.993)">
                <ellipse cx="316.776" cy="186.416" rx="14.638" ry="13.723" style="fill:rgb(214,214,214);"/>
            </g>
            <g transform="matrix(0.090975,0,0,0.0917838,259.224,159.343)">
                <ellipse cx="316.776" cy="186.416" rx="14.638" ry="13.723" style="fill:rgb(214,214,214);"/>
            </g>
        </g>
        <g transform="matrix(3.42252,0,0,2.21366,79.2681,-394.798)">
            <path d="M327,200.139C308.512,196.293 289.837,196.477 271,200.139L271,203.5L327,203.5L327,200.139Z" style="fill:rgb(202,175,159);"/>
        </g>
    </g>
</svg>
