<?xml version="1.0" encoding="UTF-8" standalone="no"?>
<!DOCTYPE svg PUBLIC "-//W3C//DTD SVG 1.1//EN" "http://www.w3.org/Graphics/SVG/1.1/DTD/svg11.dtd">
<svg width="100%" height="100%" viewBox="0 0 3000 3000" version="1.1" xmlns="http://www.w3.org/2000/svg" xmlns:xlink="http://www.w3.org/1999/xlink" xml:space="preserve" xmlns:serif="http://www.serif.com/" style="fill-rule:evenodd;clip-rule:evenodd;stroke-linecap:round;stroke-linejoin:round;stroke-miterlimit:1.5;">
    <g id="eye5" transform="matrix(1.46091,0,0,5,-117.761,788.603)">
        <g transform="matrix(3.42252,0,0,1,-2100.82,-795.721)">
            <rect x="637.375" y="638" width="600" height="600" style="fill:none;"/>
        </g>
        <g transform="matrix(1,0,0,1,-4.61051,0)">
            <g transform="matrix(-3.31307,0,0,1.01027,2119.75,-153.463)">
                <g transform="matrix(-1.28234,-0.496549,-0.467648,1.12459,777.636,134.593)">
                    <ellipse cx="316.776" cy="186.416" rx="14.638" ry="13.723" style="fill:rgb(115,107,102);"/>
                </g>
                <g transform="matrix(-0.905704,0.232752,0.219113,0.962081,842.441,-463.922)">
                    <path d="M736.087,489.283L746.921,501.234C750.761,497.365 753.398,493.324 752.424,487.392C751.048,488.812 749.672,489.812 748.296,490.315C749.036,489.224 749.448,488.024 749.5,486.704C746.934,488.786 741.119,489.036 736.087,489.283Z"/>
                </g>
                <g transform="matrix(-0.663351,0.285692,0.295185,0.721949,443.67,-35.5114)">
                    <path d="M303.248,184.967C303.955,177.804 320.526,163.678 331.039,173.015C341.775,182.552 328.507,195.503 320.693,198.175C312.926,200.83 306.728,196.631 306.728,196.631C306.728,196.631 302.54,192.129 303.248,184.967Z" style="fill:rgb(227,227,227);"/>
                    <clipPath id="_clip1">
                        <path d="M303.248,184.967C303.955,177.804 320.526,163.678 331.039,173.015C341.775,182.552 328.507,195.503 320.693,198.175C312.926,200.83 306.728,196.631 306.728,196.631C306.728,196.631 302.54,192.129 303.248,184.967Z"/>
                    </clipPath>
                    <g clip-path="url(#_clip1)">
                        <g transform="matrix(0.74703,-0.123114,0.111604,0.714773,57.2121,95.4381)">
                            <ellipse cx="316.776" cy="186.416" rx="14.638" ry="13.723" style="fill:rgb(18,18,18);"/>
                        </g>
                        <g transform="matrix(0.228753,-0.0376994,0.0347669,0.222667,240.423,152.291)">
                            <ellipse cx="316.776" cy="186.416" rx="14.638" ry="13.723" style="fill:rgb(214,214,214);"/>
                        </g>
                        <g transform="matrix(0.950011,-0.375942,0.381036,0.856276,-582.347,-14.0313)">
                            <path d="M746.771,555.484C734.34,554.391 723.273,555.823 708.252,561.211L708.252,572.306L746.771,566.579L746.771,555.484Z" style="fill:rgb(202,175,159);stroke:black;stroke-width:0.25px;"/>
                        </g>
                    </g>
                    <path d="M303.248,184.967C303.955,177.804 320.526,163.678 331.039,173.015C341.775,182.552 328.507,195.503 320.693,198.175C312.926,200.83 306.728,196.631 306.728,196.631C306.728,196.631 302.54,192.129 303.248,184.967Z" style="fill:none;stroke:black;stroke-width:1.09px;"/>
                </g>
                <g transform="matrix(-0.951555,-0.385312,0.0459173,1.09319,959.829,-132.855)">
                    <path d="M751.878,541.993C751.878,541.993 729.247,530.368 717.997,535.701C717.964,535.717 717.945,535.748 717.945,535.788C717.945,536.345 717.945,540.508 717.945,541.684C717.945,541.743 717.985,541.812 718.049,541.863C718.113,541.914 718.19,541.938 718.247,541.925C729.125,539.507 740.327,539.463 751.878,541.993Z"/>
                </g>
            </g>
            <g transform="matrix(3.31307,0,0,1.01027,102.901,-153.463)">
                <g transform="matrix(-1.28234,-0.496549,-0.467648,1.12459,777.636,134.593)">
                    <ellipse cx="316.776" cy="186.416" rx="14.638" ry="13.723" style="fill:rgb(115,107,102);"/>
                </g>
                <g transform="matrix(-0.905704,0.232752,0.219113,0.962081,842.441,-463.922)">
                    <path d="M736.087,489.283L746.921,501.234C750.761,497.365 753.398,493.324 752.424,487.392C751.048,488.812 749.672,489.812 748.296,490.315C749.036,489.224 749.448,488.024 749.5,486.704C746.934,488.786 741.119,489.036 736.087,489.283Z"/>
                </g>
                <g transform="matrix(-0.663351,0.285692,0.295185,0.721949,443.67,-35.5114)">
                    <path d="M303.248,184.967C303.955,177.804 320.526,163.678 331.039,173.015C341.775,182.552 328.507,195.503 320.693,198.175C312.926,200.83 306.728,196.631 306.728,196.631C306.728,196.631 302.54,192.129 303.248,184.967Z" style="fill:rgb(227,227,227);"/>
                    <clipPath id="_clip2">
                        <path d="M303.248,184.967C303.955,177.804 320.526,163.678 331.039,173.015C341.775,182.552 328.507,195.503 320.693,198.175C312.926,200.83 306.728,196.631 306.728,196.631C306.728,196.631 302.54,192.129 303.248,184.967Z"/>
                    </clipPath>
                    <g clip-path="url(#_clip2)">
                        <g transform="matrix(0.74703,-0.123114,0.111604,0.714773,57.2121,95.4381)">
                            <ellipse cx="316.776" cy="186.416" rx="14.638" ry="13.723" style="fill:rgb(18,18,18);"/>
                        </g>
                        <g transform="matrix(0.228753,-0.0376994,0.0347669,0.222667,240.423,152.291)">
                            <ellipse cx="316.776" cy="186.416" rx="14.638" ry="13.723" style="fill:rgb(214,214,214);"/>
                        </g>
                        <g transform="matrix(0.950011,-0.375942,0.381036,0.856276,-582.347,-14.0313)">
                            <path d="M746.771,555.484C734.34,554.391 723.273,555.823 708.252,561.211L708.252,572.306L746.771,566.579L746.771,555.484Z" style="fill:rgb(202,175,159);stroke:black;stroke-width:0.25px;"/>
                        </g>
                    </g>
                    <path d="M303.248,184.967C303.955,177.804 320.526,163.678 331.039,173.015C341.775,182.552 328.507,195.503 320.693,198.175C312.926,200.83 306.728,196.631 306.728,196.631C306.728,196.631 302.54,192.129 303.248,184.967Z" style="fill:none;stroke:black;stroke-width:1.09px;"/>
                </g>
                <g transform="matrix(-0.951555,-0.385312,0.0459173,1.09319,959.829,-132.855)">
                    <path d="M751.878,541.993C751.878,541.993 729.401,530.754 718,535.702C717.965,535.718 717.945,535.749 717.945,535.79C717.945,536.356 717.945,540.509 717.945,541.684C717.945,541.743 717.985,541.812 718.049,541.863C718.113,541.914 718.19,541.938 718.247,541.925C729.125,539.507 740.327,539.463 751.878,541.993Z"/>
                </g>
            </g>
        </g>
        <g transform="matrix(3.42252,0,0,2.21366,83.3783,-392.798)">
            <path d="M327,200.139C308.512,196.293 289.837,196.477 271,200.139L271,203.5L327,203.5L327,200.139Z" style="fill:rgb(202,175,159);"/>
        </g>
    </g>
</svg>
