<?xml version="1.0" encoding="UTF-8" standalone="no"?>
<!DOCTYPE svg PUBLIC "-//W3C//DTD SVG 1.1//EN" "http://www.w3.org/Graphics/SVG/1.1/DTD/svg11.dtd">
<svg width="100%" height="100%" viewBox="0 0 3000 3000" version="1.1" xmlns="http://www.w3.org/2000/svg" xmlns:xlink="http://www.w3.org/1999/xlink" xml:space="preserve" xmlns:serif="http://www.serif.com/" style="fill-rule:evenodd;clip-rule:evenodd;stroke-linecap:round;stroke-linejoin:round;stroke-miterlimit:1.5;">
    <g id="eye7" transform="matrix(1.46091,0,0,5,-112.558,402.103)">
        <g transform="matrix(3.42252,0,0,1,-2104.38,-718.421)">
            <rect x="637.375" y="638" width="600" height="600" style="fill:none;"/>
        </g>
        <g transform="matrix(3.31307,0,0,1.01027,87.2132,-74.264)">
            <g transform="matrix(-1.13419,0,0,1.24229,646.137,-48.3989)">
                <ellipse cx="316.776" cy="186.416" rx="14.638" ry="13.723" style="fill:rgb(115,107,102);"/>
            </g>
            <g transform="matrix(-0.820988,0,0,0.8437,546.718,28.8741)">
                <ellipse cx="316.776" cy="186.416" rx="14.638" ry="13.723" style="fill:rgb(209,209,209);stroke:black;stroke-width:1.01px;"/>
            </g>
            <g transform="matrix(-0.491862,0,0,0.494084,444.34,95.9206)">
                <ellipse cx="316.776" cy="186.416" rx="14.638" ry="13.723" style="fill:rgb(18,18,18);"/>
            </g>
            <g transform="matrix(-0.143008,0,0,0.137027,339.269,160.192)">
                <ellipse cx="316.776" cy="186.416" rx="14.638" ry="13.723" style="fill:rgb(214,214,214);"/>
            </g>
        </g>
        <g transform="matrix(-3.31307,0,0,1.01027,2120.39,-74.264)">
            <g transform="matrix(-1.13419,0,0,1.24229,646.137,-48.3989)">
                <ellipse cx="316.776" cy="186.416" rx="14.638" ry="13.723" style="fill:rgb(115,107,102);"/>
            </g>
            <g transform="matrix(-0.820988,0,0,0.8437,546.718,28.8741)">
                <ellipse cx="316.776" cy="186.416" rx="14.638" ry="13.723" style="fill:rgb(209,209,209);stroke:black;stroke-width:1.01px;"/>
            </g>
            <g transform="matrix(-0.491862,0,0,0.494084,444.34,95.9206)">
                <ellipse cx="316.776" cy="186.416" rx="14.638" ry="13.723" style="fill:rgb(18,18,18);"/>
            </g>
            <g transform="matrix(-0.143008,0,0,0.137027,339.269,160.192)">
                <ellipse cx="316.776" cy="186.416" rx="14.638" ry="13.723" style="fill:rgb(214,214,214);"/>
            </g>
        </g>
        <g transform="matrix(3.42252,0,0,2.21366,79.2681,-314.599)">
            <path d="M327,200.139C308.512,196.293 289.837,196.477 271,200.139L271,203.5L327,203.5L327,200.139Z" style="fill:rgb(202,175,159);"/>
        </g>
        <g transform="matrix(-3.36705,0.179318,0.61372,0.983791,3432.77,-107.211)">
            <path d="M702.221,68.715C702.207,68.619 702.154,68.533 702.074,68.477C701.994,68.422 701.895,68.402 701.8,68.422C690.931,70.774 676.807,75.92 669.243,80.786C669.11,80.873 669.051,81.039 669.102,81.191C669.543,82.516 671.56,88.565 672.052,90.041C672.112,90.222 672.306,90.322 672.488,90.265C680.992,87.636 692.919,84.268 703.462,79.036C703.597,78.969 703.674,78.822 703.653,78.672C703.451,77.269 702.463,70.396 702.221,68.715Z" style="fill:rgb(202,175,159);"/>
        </g>
        <g transform="matrix(3.36705,0.179318,-0.61372,0.983791,-1226.34,-107.211)">
            <path d="M702.221,68.715C702.207,68.619 702.154,68.533 702.074,68.477C701.994,68.422 701.895,68.402 701.8,68.422C690.931,70.774 676.807,75.92 669.243,80.786C669.11,80.873 669.051,81.039 669.102,81.191C669.543,82.516 671.56,88.565 672.052,90.041C672.112,90.222 672.306,90.322 672.488,90.265C680.992,87.636 692.919,84.268 703.462,79.036C703.597,78.969 703.674,78.822 703.653,78.672C703.451,77.269 702.463,70.396 702.221,68.715Z" style="fill:rgb(202,175,159);"/>
        </g>
        <g transform="matrix(3.42252,5.55112e-17,-1.55431e-15,1,-1347.02,-70.2566)">
            <path d="M718.348,158.297C717.873,160.608 717.512,165.305 718.86,166.394C723.318,169.993 739.361,171.573 749.814,172.134" style="fill:none;stroke:black;stroke-width:1.25px;"/>
        </g>
        <g transform="matrix(-3.42252,0,0,1,3553.45,-70.2566)">
            <path d="M718.348,158.297C717.873,160.608 717.512,165.305 718.86,166.394C723.318,169.993 739.361,171.573 749.814,172.134" style="fill:none;stroke:black;stroke-width:1.25px;"/>
        </g>
    </g>
</svg>
