<?xml version="1.0" encoding="UTF-8" standalone="no"?>
<!DOCTYPE svg PUBLIC "-//W3C//DTD SVG 1.1//EN" "http://www.w3.org/Graphics/SVG/1.1/DTD/svg11.dtd">
<svg width="100%" height="100%" viewBox="0 0 3000 3000" version="1.1" xmlns="http://www.w3.org/2000/svg" xmlns:xlink="http://www.w3.org/1999/xlink" xml:space="preserve" xmlns:serif="http://www.serif.com/" style="fill-rule:evenodd;clip-rule:evenodd;stroke-linecap:round;stroke-linejoin:round;stroke-miterlimit:1.5;">
    <g id="face2" transform="matrix(1.74165,0,0,5,-427.013,647.903)">
        <g transform="matrix(2.87083,0,0,1,-1584.62,-767.581)">
            <rect x="637.375" y="638" width="600" height="600" style="fill:none;"/>
        </g>
        <g transform="matrix(2.87083,0,0,1,246.864,-120.574)">
            <path d="M349.452,184.278C350.741,171.958 346.743,159.669 338.452,150.465C330.161,141.262 318.355,136.007 305.967,136.007C302.053,136 298.1,136 294.185,136C281.796,136 269.988,141.255 261.695,150.461C253.403,159.666 249.404,171.956 250.693,184.279C250.924,186.307 251.116,188.218 251.265,189.962C252.529,204.752 231.053,231.739 242.119,242.615C237.775,246.009 233.439,247.429 237.701,252.61C245.47,262.054 265.403,242.768 300.147,242.768C334.891,242.768 351.47,261.726 360.461,252.61C365.01,247.998 361.758,244.56 356.975,242.615C367.067,229.565 347.616,204.84 348.888,189.962C349.037,188.218 349.228,186.307 349.452,184.278Z" style="fill:rgb(202,175,159);stroke:rgb(67,61,57);stroke-width:2.33px;"/>
        </g>
        <g transform="matrix(2.87083,0,0,-1,-2105.27,533.672)">
            <path d="M1169.61,409.349C1172.23,409.447 1174.97,410.456 1176.94,411.818" style="fill:none;stroke:rgb(67,61,57);stroke-width:2.33px;"/>
        </g>
        <g transform="matrix(2.87083,0,0,-1,-2105.21,534.109)">
            <path d="M1066.68,409.681C1064.33,409.784 1062.29,410.649 1060.77,412.008" style="fill:none;stroke:rgb(67,61,57);stroke-width:2.33px;"/>
        </g>
        <g transform="matrix(2.75446,0,0,2,281.995,-394.452)">
            <path d="M300,257C328.148,257 351,258.689 351,262C351,265.311 327.1,266.152 300,261C272.551,266.239 249,265.311 249,262C249,258.689 271.852,257 300,257Z" style="fill:rgb(202,175,159);"/>
        </g>
    </g>
</svg>
