<?xml version="1.0" encoding="UTF-8" standalone="no"?>
<!DOCTYPE svg PUBLIC "-//W3C//DTD SVG 1.1//EN" "http://www.w3.org/Graphics/SVG/1.1/DTD/svg11.dtd">
<svg width="100%" height="100%" viewBox="0 0 3000 3000" version="1.1" xmlns="http://www.w3.org/2000/svg" xmlns:xlink="http://www.w3.org/1999/xlink" xml:space="preserve" xmlns:serif="http://www.serif.com/" style="fill-rule:evenodd;clip-rule:evenodd;stroke-linecap:round;stroke-linejoin:round;stroke-miterlimit:1.5;">
    <g id="face3" transform="matrix(1.74165,0,0,5,-428.581,647.903)">
        <g transform="matrix(2.87083,0,0,1,-1583.72,-767.581)">
            <rect x="637.375" y="638" width="600" height="600" style="fill:none;"/>
        </g>
        <g transform="matrix(2.87083,0,0,1,-2105.21,-142.532)">
            <path d="M1045.33,267.807C1047.92,253.984 1055.74,245.283 1060.11,237.137C1060.11,237.137 1053.22,237.801 1054.33,235.854C1058.55,228.41 1071.03,217.414 1070.56,211.92C1070.55,211.703 1070.53,211.483 1070.5,211.261C1069.31,197.564 1073.92,183.996 1083.22,173.862C1092.51,163.727 1105.62,157.957 1119.37,157.957C1119.38,157.957 1119.38,157.957 1119.38,157.959C1133.12,157.959 1146.24,163.729 1155.53,173.863C1164.82,183.996 1169.43,197.564 1168.24,211.261C1168.22,211.483 1168.2,211.703 1168.19,211.92C1167.72,217.394 1182.85,229.182 1187.16,237.01C1188.28,239.041 1178.92,237.137 1178.92,237.137C1183.05,245.205 1190.78,253.617 1193.03,266.857C1191.57,265.439 1186.63,267.457 1185.17,268.142C1186.37,269.945 1186.85,272.039 1186.77,274.366C1185.74,273.085 1184.33,272.402 1182.09,273.034C1184.22,275.137 1184.74,277.929 1184.53,281.032C1181.04,278.43 1177.41,276.244 1173.52,274.802C1164.48,283.425 1151.16,268.957 1116.72,268.957C1082.78,268.957 1071.44,283.324 1063.55,275.183C1060.03,276.616 1056.71,278.649 1053.52,281.032C1053.31,277.929 1053.83,275.137 1055.96,273.034C1053.72,272.402 1052.32,273.085 1051.28,274.366C1051.19,272.039 1051.68,269.945 1052.88,268.142C1051.42,267.457 1046.8,266.388 1045.33,267.807Z" style="fill:rgb(202,175,159);stroke:rgb(67,61,57);stroke-width:2.33px;"/>
        </g>
        <g transform="matrix(2.44843,0,0,2,373.803,-390)">
            <path d="M300,257C328.148,257 351,258.689 351,262C351,265.311 327.1,266.152 300,261C272.551,266.239 249,265.311 249,262C249,258.689 271.852,257 300,257Z" style="fill:rgb(202,175,159);"/>
        </g>
    </g>
</svg>
