<?xml version="1.0" encoding="UTF-8" standalone="no"?>
<!DOCTYPE svg PUBLIC "-//W3C//DTD SVG 1.1//EN" "http://www.w3.org/Graphics/SVG/1.1/DTD/svg11.dtd">
<svg width="100%" height="100%" viewBox="0 0 3000 3000" version="1.1" xmlns="http://www.w3.org/2000/svg" xmlns:xlink="http://www.w3.org/1999/xlink" xml:space="preserve" xmlns:serif="http://www.serif.com/" style="fill-rule:evenodd;clip-rule:evenodd;stroke-linejoin:round;stroke-miterlimit:2;">
    <g id="glass2" transform="matrix(1.46091,0,0,5,-112.659,790.54)">
        <g transform="matrix(3.42252,0,0,1,-2104.32,-796.108)">
            <rect x="637.375" y="638" width="600" height="600" style="fill:none;"/>
        </g>
        <g transform="matrix(3.42252,0,0,1,-1943.65,-61.0493)">
            <path d="M913.177,78.811C922.973,78.811 927.926,82.764 927.926,92.561C927.926,102.357 919.973,110.31 910.177,110.31C900.381,110.31 892.428,102.357 892.428,92.561C892.428,82.764 903.381,78.811 913.177,78.811ZM912.979,80.898C921.551,80.898 925.707,84.121 925.707,92.692C925.707,101.264 918.748,108.223 910.177,108.223C901.605,108.223 894.646,101.264 894.646,92.692C894.646,84.121 904.407,80.898 912.979,80.898Z" style="fill:rgb(28,28,28);"/>
        </g>
        <g transform="matrix(2.9947,0,0,0.874997,-1554.25,2.08037)">
            <clipPath id="_clip1">
                <path d="M913.379,20.307C923.175,20.307 927.926,23.99 927.926,33.786C927.926,43.582 919.973,51.535 910.177,51.535C900.381,51.535 892.428,43.582 892.428,33.786C892.428,23.99 903.583,20.307 913.379,20.307Z"/>
            </clipPath>
            <g clip-path="url(#_clip1)">
                <g transform="matrix(0.228572,-0,-0,0.228572,544.752,-183.073)">
                    <use xlink:href="#_Image2" x="1527.88" y="892.226" width="155.306px" height="136.625px" transform="matrix(0.99555,0,0,0.997263,0,0)"/>
                </g>
            </g>
        </g>
        <g transform="matrix(-3.42252,0,0,1,4151.39,-61.0493)">
            <path d="M913.177,78.811C922.973,78.811 927.926,82.764 927.926,92.561C927.926,102.357 919.973,110.31 910.177,110.31C900.381,110.31 892.428,102.357 892.428,92.561C892.428,82.764 903.381,78.811 913.177,78.811ZM912.979,80.898C921.551,80.898 925.707,84.121 925.707,92.692C925.707,101.264 918.748,108.223 910.177,108.223C901.605,108.223 894.646,101.264 894.646,92.692C894.646,84.121 904.407,80.898 912.979,80.898Z" style="fill:rgb(28,28,28);"/>
        </g>
        <g transform="matrix(-2.9947,0,0,0.874997,3762,2.08037)">
            <clipPath id="_clip3">
                <path d="M913.379,20.307C923.175,20.307 927.926,23.99 927.926,33.786C927.926,43.582 919.973,51.535 910.177,51.535C900.381,51.535 892.428,43.582 892.428,33.786C892.428,23.99 903.583,20.307 913.379,20.307Z"/>
            </clipPath>
            <g clip-path="url(#_clip3)">
                <g transform="matrix(-0.228572,0,0,0.228572,1230.47,-183.073)">
                    <use xlink:href="#_Image4" x="1329.53" y="902.226" width="155.306px" height="126.652px" transform="matrix(0.99555,0,0,0.997263,0,0)"/>
                </g>
            </g>
        </g>
        <g transform="matrix(3.42252,0,0,2.21366,79.2681,-392.798)">
            <path d="M327,200.139C308.512,196.293 289.837,196.477 271,200.139L271,203.5L327,203.5L327,200.139Z" style="fill:rgb(202,175,159);"/>
        </g>
        <g transform="matrix(3.08775,0,0,0.216216,-1618.88,24.9801)">
            <path d="M886.466,27.877C886.466,26.52 886.337,20.593 886.107,19.633C885.877,18.673 885.336,18.444 885.239,18.133C883.567,12.771 880.234,12.425 878.297,18.133C878.192,18.441 877.659,18.673 877.429,19.633C877.199,20.593 877.07,26.52 877.07,27.877C877.07,27.924 877.07,27.971 877.07,28.017C877.07,29.375 877.199,30.677 877.429,31.637C877.659,32.597 878.22,33.452 878.297,33.136C880.098,25.716 883.438,26.166 885.239,33.136C885.321,33.451 885.877,32.597 886.107,31.637C886.337,30.677 886.466,29.375 886.466,28.017C886.466,27.971 886.466,27.924 886.466,27.877Z" style="fill:rgb(28,28,28);"/>
        </g>
    </g>
</svg>
