<?xml version="1.0" encoding="UTF-8" standalone="no"?>
<!DOCTYPE svg PUBLIC "-//W3C//DTD SVG 1.1//EN" "http://www.w3.org/Graphics/SVG/1.1/DTD/svg11.dtd">
<svg width="100%" height="100%" viewBox="0 0 3000 3000" version="1.1" xmlns="http://www.w3.org/2000/svg" xmlns:xlink="http://www.w3.org/1999/xlink" xml:space="preserve" xmlns:serif="http://www.serif.com/" style="fill-rule:evenodd;clip-rule:evenodd;stroke-linejoin:round;stroke-miterlimit:2;">
    <g id="glass1" transform="matrix(1.46091,0,0,5,-114.593,791.042)">
        <g transform="matrix(3.42252,0,0,1,-2102.99,-796.208)">
            <rect x="637.375" y="638" width="600" height="600" style="fill:none;"/>
        </g>
        <g transform="matrix(3.42252,0,0,1,-1943.65,-2.27492)">
            <path d="M910.177,16.037C919.973,16.037 927.926,23.99 927.926,33.786C927.926,43.582 919.973,51.535 910.177,51.535C900.381,51.535 892.428,43.582 892.428,33.786C892.428,23.99 900.381,16.037 910.177,16.037ZM910.177,17.159C919.354,17.159 926.804,24.609 926.804,33.786C926.804,42.963 919.354,50.413 910.177,50.413C901,50.413 893.549,42.963 893.549,33.786C893.549,24.609 901,17.159 910.177,17.159Z" style="fill:rgb(31,31,31);"/>
        </g>
        <g transform="matrix(3.20619,0,0,0.93679,-1746.74,-0.139306)">
            <clipPath id="_clip1">
                <circle cx="910.177" cy="33.786" r="17.749"/>
            </clipPath>
            <g clip-path="url(#_clip1)">
                <g transform="matrix(0.213495,-0,-0,0.213495,569.269,-168.735)">
                    <use xlink:href="#_Image2" x="1520.27" y="869.241" width="166.274px" height="166.274px" transform="matrix(0.995651,0,0,0.995651,0,0)"/>
                </g>
            </g>
        </g>
        <g transform="matrix(3.42252,0,0,1,-2078.43,-2.27492)">
            <path d="M910.177,16.037C919.973,16.037 927.926,23.99 927.926,33.786C927.926,43.582 919.973,51.535 910.177,51.535C900.381,51.535 892.428,43.582 892.428,33.786C892.428,23.99 900.381,16.037 910.177,16.037ZM910.177,17.159C919.354,17.159 926.804,24.609 926.804,33.786C926.804,42.963 919.354,50.413 910.177,50.413C901,50.413 893.549,42.963 893.549,33.786C893.549,24.609 901,17.159 910.177,17.159Z" style="fill:rgb(31,31,31);"/>
        </g>
        <g transform="matrix(3.20619,0,0,0.93679,-1881.52,-0.139306)">
            <clipPath id="_clip3">
                <circle cx="910.177" cy="33.786" r="17.749"/>
            </clipPath>
            <g clip-path="url(#_clip3)">
                <g transform="matrix(0.213495,-0,-0,0.213495,611.306,-168.735)">
                    <use xlink:href="#_Image4" x="1322.51" y="869.241" width="166.274px" height="166.274px" transform="matrix(0.995651,0,0,0.995651,0,0)"/>
                </g>
            </g>
        </g>
        <g transform="matrix(3.08775,0,0,0.216216,-1618.88,24.9801)">
            <path d="M886.466,19.157C886.466,18.592 886.356,18.133 886.221,18.133C884.899,18.133 878.637,18.133 877.315,18.133C877.18,18.133 877.07,18.592 877.07,19.157C877.07,21.144 877.07,25.501 877.07,27.487C877.07,28.053 877.18,28.511 877.315,28.511C878.637,28.511 884.899,28.511 886.221,28.511C886.356,28.511 886.466,28.053 886.466,27.487C886.466,25.501 886.466,21.144 886.466,19.157Z" style="fill:rgb(31,31,31);"/>
        </g>
    </g>
</svg>
