<?xml version="1.0" encoding="UTF-8" standalone="no"?>
<!DOCTYPE svg PUBLIC "-//W3C//DTD SVG 1.1//EN" "http://www.w3.org/Graphics/SVG/1.1/DTD/svg11.dtd">
<svg width="100%" height="100%" viewBox="0 0 3000 3000" version="1.1" xmlns="http://www.w3.org/2000/svg" xmlns:xlink="http://www.w3.org/1999/xlink" xml:space="preserve" xmlns:serif="http://www.serif.com/" style="fill-rule:evenodd;clip-rule:evenodd;stroke-linecap:round;stroke-linejoin:round;stroke-miterlimit:1.5;">
    <g id="hair4" transform="matrix(1.46091,0,0,5,-85.6894,518.636)">
        <g transform="matrix(3.42252,0,0,1,-2122.78,-741.727)">
            <rect x="637.375" y="638" width="600" height="600" style="fill:none;"/>
        </g>
        <g transform="matrix(4.18021,0,0,1,-2671.33,3)">
            <path d="M886.974,46.78L909.742,47.14C911.662,43.875 919.657,42.824 923.619,42.408C920.854,40.178 913.972,39.314 911.207,39.755C912.271,37.687 917.184,35.604 919.851,33.714C916.642,33.405 910.008,34.279 908.548,36.641C909.217,32.995 914.137,30.476 916.312,29.04C910.018,28.385 904.978,32.477 904.197,35.041C904.76,30.221 907.857,28.8 909.762,26.729C904.961,26.868 899.727,28.083 899.486,33.65C898.721,28.184 895.913,27.639 893.288,23.977C893.093,28.673 893.689,31.478 893.185,34.817C891.82,32.122 886.43,30.563 883.479,29.427C884.394,32.204 889.342,33.937 888.798,36.714C886.42,34.324 880.091,34.797 877.596,34.653C878.992,36.78 884.924,37.218 885.644,39.862C882.94,38.974 875.939,39.973 873.673,42.119C878.431,42.269 884.257,43.069 886.974,46.78Z" style="fill:rgb(202,175,159);stroke:rgb(67,61,57);stroke-width:2.24px;"/>
        </g>
        <g transform="matrix(3.42252,0,0,1,-1991.03,2)">
            <ellipse cx="899.137" cy="51.472" rx="22.639" ry="8.21" style="fill:rgb(202,175,159);"/>
        </g>
    </g>
</svg>
