<?xml version="1.0" encoding="UTF-8" standalone="no"?>
<!DOCTYPE svg PUBLIC "-//W3C//DTD SVG 1.1//EN" "http://www.w3.org/Graphics/SVG/1.1/DTD/svg11.dtd">
<svg width="100%" height="100%" viewBox="0 0 3000 3000" version="1.1" xmlns="http://www.w3.org/2000/svg" xmlns:xlink="http://www.w3.org/1999/xlink" xml:space="preserve" xmlns:serif="http://www.serif.com/" style="fill-rule:evenodd;clip-rule:evenodd;stroke-linecap:round;stroke-linejoin:round;stroke-miterlimit:1.5;">
    <g id="mouth1" transform="matrix(4.8401,0,0,5.05135,16.4563,19.2661)">
        <g transform="matrix(1.03304,0,0,0.989835,-661.832,-635.329)">
            <rect x="637.375" y="638" width="600" height="600" style="fill:none;"/>
        </g>
        <g transform="matrix(1.27741,0,0,1.07666,-78.3055,-26.986)">
            <path d="M301.223,209.898C314.885,209.898 327.721,214.883 330.405,222.772C330.796,223.921 329.584,226.06 329.584,227.28C329.584,236.874 316.876,244.663 301.223,244.663C285.57,244.663 272.862,236.874 272.862,227.28C272.862,226.191 271.692,224.651 272.005,223.617C274.452,215.544 287.348,209.898 301.223,209.898Z" style="fill:rgb(115,107,102);"/>
        </g>
        <g transform="matrix(1.03304,0,0,0.989835,-3.43075,-4.80178)">
            <path d="M266.478,219.337C286.867,242.831 316.385,242.483 332.675,217.917C332.675,217.917 325.741,207.333 300,207.31C274.259,207.288 266.478,219.337 266.478,219.337Z" style="fill:rgb(115,107,102);"/>
        </g>
        <g transform="matrix(0.477641,0,0,0.34731,162.604,129.073)">
            <path d="M301.223,209.898C316.876,209.898 329.584,217.687 329.584,227.28C329.584,233.018 323.611,235.053 316.61,238.219C311.904,240.348 307.515,244.663 301.223,244.663C295.78,244.663 290.158,240.429 285.838,238.797C277.734,235.736 272.862,233.538 272.862,227.28C272.862,217.687 285.57,209.898 301.223,209.898Z" style="fill:rgb(41,35,31);"/>
        </g>
        <g transform="matrix(-2.47825,2.91016e-16,-1.3097e-16,-0.989835,306.48,229.957)">
            <path d="M-11.453,12.432C-11.459,12.451 -11.46,12.475 -11.456,12.497C-11.452,12.518 -11.444,12.532 -11.434,12.535C-10.637,12.653 -8.823,10.573 -7.929,11.025C-3.473,13.274 3.061,13.114 7.688,10.952C8.671,10.493 10.608,12.414 11.475,12.326C11.485,12.324 11.494,12.31 11.498,12.288C11.502,12.267 11.501,12.242 11.495,12.223C6.957,-2.031 -6.33,-4.002 -11.453,12.432Z" style="fill:rgb(41,35,31);"/>
        </g>
        <g transform="matrix(0.991949,0.121338,-0.132161,0.991949,27.2827,-34.9881)">
            <g transform="matrix(1.1042,-0.11916,0.122406,1.0414,-48.4852,17.7315)">
                <path d="M311.868,231.836C308.257,230.676 304.242,228.601 300.12,229.771C295.876,228.87 292.298,230.505 288.991,231.836C290.491,245.48 290.541,258.336 289.689,271.487C289.534,273.814 290.335,276.104 291.904,277.808C293.472,279.513 295.665,280.481 297.962,280.481C299.572,280.488 301.251,280.488 302.861,280.488C305.16,280.488 307.355,279.519 308.924,277.813C310.494,276.107 311.296,273.816 311.141,271.487C310.271,258.089 310.422,245.206 311.868,231.836Z" style="fill:rgb(130,71,71);stroke:rgb(41,35,31);stroke-width:1.48px;"/>
            </g>
            <g transform="matrix(1.02655,-0.11078,0.115615,0.983616,-23.3933,30.2064)">
                <path d="M311.869,231.891C308.349,230.599 304.632,228.882 300.509,229.769C296.202,228.756 292.63,230.377 288.992,231.891C290.473,245.359 290.54,258.023 289.722,270.983C289.562,273.444 290.428,275.861 292.114,277.66C293.8,279.459 296.156,280.48 298.622,280.48C299.806,280.488 301.017,280.488 302.202,280.488C304.67,280.488 307.027,279.466 308.715,277.666C310.402,275.865 311.269,273.447 311.11,270.984C310.275,257.783 310.442,245.093 311.869,231.891Z" style="fill:rgb(178,111,111);"/>
            </g>
            <g transform="matrix(1.03304,0,0,0.989835,-2.40603,-4.92713)">
                <path d="M304.798,234.61C306.216,239.813 307.282,245.017 306.581,250.4C308.316,255.487 309.119,261.934 308.989,267.791" style="fill:none;stroke:black;stroke-width:0.15px;"/>
            </g>
        </g>
    </g>
</svg>
