<?xml version="1.0" encoding="UTF-8" standalone="no"?>
<!DOCTYPE svg PUBLIC "-//W3C//DTD SVG 1.1//EN" "http://www.w3.org/Graphics/SVG/1.1/DTD/svg11.dtd">
<svg width="100%" height="100%" viewBox="0 0 3000 3000" version="1.1" xmlns="http://www.w3.org/2000/svg" xmlns:xlink="http://www.w3.org/1999/xlink" xml:space="preserve" xmlns:serif="http://www.serif.com/" style="fill-rule:evenodd;clip-rule:evenodd;stroke-linecap:round;stroke-linejoin:round;stroke-miterlimit:1.5;">
    <g id="mouth4" transform="matrix(4.8401,0,0,5.05135,16.1475,25.8066)">
        <g transform="matrix(1.03304,0,0,0.989835,-661.768,-636.623)">
            <rect x="637.375" y="638" width="600" height="600" style="fill:none;"/>
        </g>
        <g transform="matrix(1.27741,0,0,1.07666,-78.3055,-27.3665)">
            <path d="M301.223,209.898C316.876,209.898 328.248,215.022 329.584,224.522C331.253,236.393 316.728,251.698 299.161,250.63C284.224,249.722 272.862,234.116 272.862,224.522C272.862,214.929 285.57,209.898 301.223,209.898Z" style="fill:rgb(115,107,102);"/>
        </g>
        <g transform="matrix(1.70318,0.0182496,-0.0115514,0.989773,-2234.53,11.4603)">
            <path d="M1486.79,196.39C1492.79,198.033 1494.75,197.961 1500.32,196.559C1498.64,201.367 1489.48,201.733 1486.79,196.39Z" style="fill:rgb(41,35,31);"/>
        </g>
        <g transform="matrix(0.477641,0,0,0.34731,162.604,126.691)">
            <path d="M301.223,209.898C316.876,209.898 329.584,217.687 329.584,227.28C329.584,233.018 323.611,235.053 316.61,238.219C311.904,240.348 307.515,244.663 301.223,244.663C295.78,244.663 290.158,240.429 285.838,238.797C277.734,235.736 272.862,233.538 272.862,227.28C272.862,217.687 285.57,209.898 301.223,209.898Z" style="fill:rgb(41,35,31);"/>
        </g>
        <g transform="matrix(0.781852,0.0900288,-0.118177,0.902398,-832.158,-139.27)">
            <path d="M1526.47,244.881C1530.02,262.912 1461.63,270.669 1462.21,248.093C1462.44,239.301 1476.48,248.761 1493.09,247.49C1516.86,245.669 1524.06,232.61 1526.47,244.881Z" style="fill:rgb(41,35,31);"/>
            <clipPath id="_clip1">
                <path d="M1526.47,244.881C1530.02,262.912 1461.63,270.669 1462.21,248.093C1462.44,239.301 1476.48,248.761 1493.09,247.49C1516.86,245.669 1524.06,232.61 1526.47,244.881Z"/>
            </clipPath>
            <g clip-path="url(#_clip1)">
                <g transform="matrix(1.33008,-0.132697,0.151552,1.00266,-1358.33,-476.134)">
                    <ellipse cx="2032.69" cy="1007.65" rx="20.321" ry="8.693" style="fill:rgb(134,25,25);stroke:rgb(41,35,31);stroke-width:0.26px;"/>
                </g>
                <g transform="matrix(1,0,-1.38778e-17,1,-1.19177,-9.705)">
                    <path d="M1526.44,246.428C1529.98,264.459 1461.29,271.3 1461.87,248.724C1462.09,239.932 1476.48,248.761 1493.09,247.49C1516.86,245.669 1524.02,234.157 1526.44,246.428Z" style="fill:rgb(229,229,229);stroke:rgb(41,35,31);stroke-width:0.22px;"/>
                </g>
            </g>
            <path d="M1526.47,244.881C1530.02,262.912 1461.63,270.669 1462.21,248.093C1462.44,239.301 1476.48,248.761 1493.09,247.49C1516.86,245.669 1524.06,232.61 1526.47,244.881Z" style="fill:none;stroke:rgb(41,35,31);stroke-width:0.22px;"/>
        </g>
        <g transform="matrix(0.368436,-0.30662,-0.51167,-0.540597,-167.797,776.472)">
            <path d="M1484.88,195.396C1484.87,195.383 1484.87,195.369 1484.89,195.359C1484.9,195.349 1484.92,195.345 1484.94,195.35C1490.88,196.787 1496.67,197.019 1502.25,195.655C1502.27,195.65 1502.29,195.653 1502.31,195.662C1502.32,195.671 1502.33,195.685 1502.32,195.698C1500.61,199.076 1487.76,199.205 1484.88,195.396Z" style="fill:rgb(41,35,31);"/>
        </g>
        <g transform="matrix(-0.442284,-0.203405,0.339432,-0.648952,925.632,644.263)">
            <path d="M1484.88,195.397C1484.87,195.384 1484.87,195.369 1484.89,195.359C1484.9,195.349 1484.92,195.345 1484.94,195.35C1490.88,196.787 1496.67,197.019 1502.25,195.655C1502.27,195.65 1502.29,195.653 1502.31,195.662C1502.32,195.671 1502.33,195.685 1502.32,195.698C1500.61,199.075 1487.77,199.205 1484.88,195.397Z" style="fill:rgb(41,35,31);"/>
        </g>
    </g>
</svg>
