<svg viewBox="0 0 3000 3000" xmlns="http://www.w3.org/2000/svg" xml:space="preserve" style="fill-rule:evenodd;clip-rule:evenodd;stroke-linecap:round;stroke-linejoin:round;stroke-miterlimit:1.5"><path style="fill:none" d="M637.375 638h600v600h-600z" transform="matrix(5.00002 0 0 5 -3186.873 -3190.002)"/><path d="M246.984 265.334c35.1 23.876 70.624 23.902 106.659.212 2.536 4.383 3.994 8.765 3.817 13.147-29.112 31.558-78.231 36.18-114.929 0 .322-5.615 1.868-10.006 4.453-13.359z" style="fill:none;stroke:#433d39;stroke-width:2.33px" transform="matrix(5.00002 0 0 5 -1.205 -.998)"/><path d="M246.984 265.334c35.1 23.876 70.624 23.902 106.659.212 2.536 4.383 3.994 8.765 3.817 13.147-29.112 31.558-78.231 36.18-114.929 0 .322-5.615 1.868-10.006 4.453-13.359z" style="fill:#29231f" transform="matrix(5.00002 0 0 5 -1.205 -.998)"/><g transform="matrix(5.00002 0 0 5 -7983.591 1.538)"><ellipse cx="1898.49" cy="293.739" rx="5.189" ry="4.979" style="fill:none;stroke:#433d39;stroke-width:2.33px"/><ellipse cx="1898.49" cy="293.739" rx="5.189" ry="4.979" style="fill:#cecece"/></g><path d="m1932.71 295.88 4.35 5.502c-1.29 4.727-7.58 4.544-8.56 0l4.21-5.502z" style="fill:none;stroke:#433d39;stroke-width:2.33px" transform="matrix(-4.74765 1.5684 -1.5684 -4.74765 11237.365 -141.914)"/><path d="m1932.71 295.88 4.35 5.502c-1.29 4.727-7.58 4.544-8.56 0l4.21-5.502z" style="fill:#cecece" transform="matrix(-4.74765 1.5684 -1.5684 -4.74765 11237.365 -141.914)"/><path d="m1931.3 294.494 5.76 6.888c-1.29 4.727-7.58 4.544-8.56 0l2.8-6.888z" style="fill:none;stroke:#433d39;stroke-width:2.33px" transform="matrix(-4.51481 2.1486 -2.1486 -4.51481 11030.548 -1352.655)"/><path d="m1931.3 294.494 5.76 6.888c-1.29 4.727-7.58 4.544-8.56 0l2.8-6.888z" style="fill:#cecece" transform="matrix(-4.51481 2.1486 -2.1486 -4.51481 11030.548 -1352.655)"/><path d="m1930.67 293.541 6.39 7.841c-1.29 4.727-7.58 4.544-8.56 0l2.17-7.841z" style="fill:none;stroke:#433d39;stroke-width:2.33px" transform="matrix(-3.61752 3.4516 -3.4516 -3.61752 9746.566 -4176.476)"/><path d="m1930.67 293.541 6.39 7.841c-1.29 4.727-7.58 4.544-8.56 0l2.17-7.841z" style="fill:#cecece" transform="matrix(-3.61752 3.4516 -3.4516 -3.61752 9746.566 -4176.476)"/><path d="m1930.31 293.296 6.75 8.086c-1.29 4.727-7.58 4.544-8.56 0l1.81-8.086z" style="fill:none;stroke:#433d39;stroke-width:2.33px" transform="matrix(-3.61752 3.4516 -3.4516 -3.61752 9792.499 -4212.734)"/><path d="m1930.31 293.296 6.75 8.086c-1.29 4.727-7.58 4.544-8.56 0l1.81-8.086z" style="fill:#cecece" transform="matrix(-3.61752 3.4516 -3.4516 -3.61752 9792.499 -4212.734)"/><g><path d="m1932.71 295.88 4.35 5.502c-1.29 4.727-7.58 4.544-8.56 0l4.21-5.502z" style="fill:none;stroke:#433d39;stroke-width:2.33px" transform="matrix(4.74765 1.5684 1.5684 -4.74765 -8230.436 -141.914)"/><path d="m1932.71 295.88 4.35 5.502c-1.29 4.727-7.58 4.544-8.56 0l4.21-5.502z" style="fill:#cecece" transform="matrix(4.74765 1.5684 1.5684 -4.74765 -8230.436 -141.914)"/></g><g><path d="m1931.3 294.494 5.76 6.888c-1.29 4.727-7.58 4.544-8.56 0l2.8-6.888z" style="fill:none;stroke:#433d39;stroke-width:2.33px" transform="matrix(4.51481 2.1486 2.1486 -4.51481 -8023.667 -1352.655)"/><path d="m1931.3 294.494 5.76 6.888c-1.29 4.727-7.58 4.544-8.56 0l2.8-6.888z" style="fill:#cecece" transform="matrix(4.51481 2.1486 2.1486 -4.51481 -8023.667 -1352.655)"/></g><g><path d="m1930.67 293.541 6.39 7.841c-1.29 4.727-7.58 4.544-8.56 0l2.17-7.841z" style="fill:none;stroke:#433d39;stroke-width:2.33px" transform="matrix(3.61752 3.4516 3.4516 -3.61752 -6739.637 -4176.476)"/><path d="m1930.67 293.541 6.39 7.841c-1.29 4.727-7.58 4.544-8.56 0l2.17-7.841z" style="fill:#cecece" transform="matrix(3.61752 3.4516 3.4516 -3.61752 -6739.637 -4176.476)"/></g><g><path d="m1930.31 293.296 6.75 8.086c-1.29 4.727-7.58 4.544-8.56 0l1.81-8.086z" style="fill:none;stroke:#433d39;stroke-width:2.33px" transform="matrix(3.61752 3.4516 3.4516 -3.61752 -6785.618 -4212.734)"/><path d="m1930.31 293.296 6.75 8.086c-1.29 4.727-7.58 4.544-8.56 0l1.81-8.086z" style="fill:#cecece" transform="matrix(3.61752 3.4516 3.4516 -3.61752 -6785.618 -4212.734)"/></g></svg>