<svg viewBox="0 0 3000 3000" xmlns="http://www.w3.org/2000/svg" xml:space="preserve" style="fill-rule:evenodd;clip-rule:evenodd;stroke-linecap:round;stroke-linejoin:round;stroke-miterlimit:1.5"><path style="fill:none" d="M637.375 638h600v600h-600z" transform="matrix(5.00002 0 0 5 -3186.875 -3190)"/><path d="M300.453 297.52a6.149 6.149 0 0 1 6.146 6.146 6.15 6.15 0 0 1-6.146 6.147 6.15 6.15 0 0 1-6.146-6.147 6.149 6.149 0 0 1 6.146-6.146zm0 3.083a3.064 3.064 0 1 1-3.063 3.063 3.065 3.065 0 0 1 3.063-3.063z" style="fill:#c59760;stroke:#433d39;stroke-width:2.33px" transform="matrix(5.00002 0 0 5 -.012 -12.253)"/><circle cx="298.275" cy="314.972" r="10.422" style="fill:#c59760;stroke:#433d39;stroke-width:2.33px" transform="matrix(5.00002 0 0 5 12.048 -12.253)"/><g transform="matrix(2.8125 0 0 2.8125 664.523 676.749)"><circle cx="298.275" cy="314.972" r="10.422" style="fill:#a37844"/><clipPath id="a"><circle cx="298.275" cy="314.972" r="10.422"/></clipPath><g clip-path="url(#a)"><circle cx="298.275" cy="314.972" r="10.422" style="fill:#c08a4c" transform="translate(1.235 1.235)"/></g></g><path d="M246.984 265.334c35.553 27.952 71.106 28.241 106.659.212 2.536 4.383 3.994 8.765 3.817 13.147-29.481 28.974-78.593 33.651-114.929 0 .322-5.615 1.868-10.006 4.453-13.359z" style="fill:#29231f;stroke:#433d39;stroke-width:2.33px" transform="matrix(5.00002 0 0 5 -.012 -7.253)"/><path d="M296.286 291.164a2.376 2.376 0 1 1-2.375 2.375 2.377 2.377 0 0 1 2.375-2.375zm9.907 0a2.377 2.377 0 0 1 2.375 2.375 2.376 2.376 0 1 1-2.375-2.375zm9.906-.814a2.376 2.376 0 0 1 0 4.75 2.376 2.376 0 0 1 0-4.75zm-28.634-.271a2.377 2.377 0 0 1 2.375 2.375 2.377 2.377 0 0 1-2.375 2.375 2.376 2.376 0 0 1 0-4.75zm-10.314-2.714a2.376 2.376 0 1 1-2.375 2.375 2.376 2.376 0 0 1 2.375-2.375zm48.041-.136a2.376 2.376 0 1 1-.002 4.752 2.376 2.376 0 0 1 .002-4.752zm-56.727-3.393a2.376 2.376 0 0 1 0 4.75 2.376 2.376 0 0 1 0-4.75zm64.87-.136a2.376 2.376 0 1 1-2.375 2.375 2.377 2.377 0 0 1 2.375-2.375zm8.142-3.935a2.376 2.376 0 1 1-.002 4.752 2.376 2.376 0 0 1 .002-4.752zm-82.104-.407a2.376 2.376 0 0 1 0 4.75 2.376 2.376 0 0 1 0-4.75zm88.075-3.529a2.376 2.376 0 0 1 0 4.75 2.377 2.377 0 0 1-2.375-2.375 2.377 2.377 0 0 1 2.375-2.375zm-95.403-1.221a2.377 2.377 0 0 1 2.375 2.375 2.376 2.376 0 1 1-2.375-2.375z" style="fill:#caaf9f;stroke:#433d39;stroke-width:2.33px" transform="matrix(5.00002 0 0 5 -.012 -7.253)"/></svg>