<svg viewBox="0 0 3000 3000" xmlns="http://www.w3.org/2000/svg" xml:space="preserve" style="fill-rule:evenodd;clip-rule:evenodd;stroke-linecap:round;stroke-linejoin:round;stroke-miterlimit:1.5"><path style="fill:none" d="M637.375 638h600v600h-600z" transform="matrix(5.00002 0 0 5 -3186.875 -3190)"/><path d="M1936.91 237.114a2.84 2.84 0 0 0-2.84-2.84h-21.45a2.84 2.84 0 0 0-2.84 2.84v5.68a2.84 2.84 0 0 0 2.84 2.84h21.45a2.84 2.84 0 0 0 2.84-2.84v-5.68zm-5.47 1.952c0-.5-.4-.906-.9-.906l-14.09-.036a.91.91 0 0 0-.91.906v1.812c0 .5.41.906.91.906l14.09.035c.5 0 .9-.406.9-.906v-1.811z" style="fill:none;stroke:#29231f;stroke-width:2.73px" transform="matrix(2.985 1.60192 -2.36433 4.40567 -3834.048 -2715.294)"/><path d="M1936.91 237.114a2.84 2.84 0 0 0-2.84-2.84h-21.45a2.84 2.84 0 0 0-2.84 2.84v5.68a2.84 2.84 0 0 0 2.84 2.84h21.45a2.84 2.84 0 0 0 2.84-2.84v-5.68zm-5.47 1.952c0-.5-.4-.906-.9-.906l-14.09-.036a.91.91 0 0 0-.91.906v1.812c0 .5.41.906.91.906l14.09.035c.5 0 .9-.406.9-.906v-1.811z" style="fill:#dd9c49" transform="matrix(2.985 1.60192 -2.36433 4.40567 -3834.048 -2715.294)"/><path d="M1936.91 237.114a2.84 2.84 0 0 0-2.84-2.84h-21.45a2.84 2.84 0 0 0-2.84 2.84v5.68a2.84 2.84 0 0 0 2.84 2.84h21.45a2.84 2.84 0 0 0 2.84-2.84v-5.68zm-5.47 1.952c0-.5-.4-.906-.9-.906l-14.09-.036a.91.91 0 0 0-.91.906v1.812c0 .5.41.906.91.906l14.09.035c.5 0 .9-.406.9-.906v-1.811z" style="fill:none;stroke:#29231f;stroke-width:2.73px" transform="matrix(2.75073 1.97735 -2.91844 4.05989 -3343.957 -3414.158)"/><path d="M1936.91 237.114a2.84 2.84 0 0 0-2.84-2.84h-21.45a2.84 2.84 0 0 0-2.84 2.84v5.68a2.84 2.84 0 0 0 2.84 2.84h21.45a2.84 2.84 0 0 0 2.84-2.84v-5.68zm-5.47 1.952c0-.5-.4-.906-.9-.906l-14.09-.036a.91.91 0 0 0-.91.906v1.812c0 .5.41.906.91.906l14.09.035c.5 0 .9-.406.9-.906v-1.811z" style="fill:#dd9c49" transform="matrix(2.75073 1.97735 -2.91844 4.05989 -3343.957 -3414.158)"/><path d="M1952.12 227.833c0-.532-.47-.965-1.03-.965h-12.01c-.56 0-1.03.433-1.03.965v1.93c0 .533.47.965 1.03.965h12.01c.56 0 1.03-.432 1.03-.965v-1.93z" style="fill:none;stroke:#29231f;stroke-width:2.41px" transform="matrix(3.8776 2.6251 -2.80303 4.14041 -5608.284 -4658.94)"/><path d="M1952.12 227.833c0-.532-.47-.965-1.03-.965h-12.01c-.56 0-1.03.433-1.03.965v1.93c0 .533.47.965 1.03.965h12.01c.56 0 1.03-.432 1.03-.965v-1.93z" style="fill:#eabb7f" transform="matrix(3.8776 2.6251 -2.80303 4.14041 -5608.284 -4658.94)"/><path d="M1936.91 237.114a2.84 2.84 0 0 0-2.84-2.84h-21.45a2.84 2.84 0 0 0-2.84 2.84v5.68a2.84 2.84 0 0 0 2.84 2.84h21.45a2.84 2.84 0 0 0 2.84-2.84v-5.68zm-5.47 1.952c0-.5-.4-.906-.9-.906l-14.09-.036a.91.91 0 0 0-.91.906v1.812c0 .5.41.906.91.906l14.09.035c.5 0 .9-.406.9-.906v-1.811z" style="fill:none;stroke:#29231f;stroke-width:2.73px" transform="matrix(3.38514 -.13132 .19382 4.99624 -5000.936 508.166)"/><path d="M1936.91 237.114a2.84 2.84 0 0 0-2.84-2.84h-21.45a2.84 2.84 0 0 0-2.84 2.84v5.68a2.84 2.84 0 0 0 2.84 2.84h21.45a2.84 2.84 0 0 0 2.84-2.84v-5.68zm-5.47 1.952c0-.5-.4-.906-.9-.906l-14.09-.036a.91.91 0 0 0-.91.906v1.812c0 .5.41.906.91.906l14.09.035c.5 0 .9-.406.9-.906v-1.811z" style="fill:#dd9c49" transform="matrix(3.38514 -.13132 .19382 4.99624 -5000.936 508.166)"/><path d="M1936.91 237.114a2.84 2.84 0 0 0-2.84-2.84h-21.45a2.84 2.84 0 0 0-2.84 2.84v5.68a2.84 2.84 0 0 0 2.84 2.84h21.45a2.84 2.84 0 0 0 2.84-2.84v-5.68zm-5.47 1.952c0-.5-.4-.906-.9-.906l-14.09-.036a.91.91 0 0 0-.91.906v1.812c0 .5.41.906.91.906l14.09.035c.5 0 .9-.406.9-.906v-1.811z" style="fill:none;stroke:#29231f;stroke-width:2.73px" transform="matrix(3.37337 .31106 -.4591 4.97888 -4932.506 -342.667)"/><path d="M1936.91 237.114a2.84 2.84 0 0 0-2.84-2.84h-21.45a2.84 2.84 0 0 0-2.84 2.84v5.68a2.84 2.84 0 0 0 2.84 2.84h21.45a2.84 2.84 0 0 0 2.84-2.84v-5.68zm-5.47 1.952c0-.5-.4-.906-.9-.906l-14.09-.036a.91.91 0 0 0-.91.906v1.812c0 .5.41.906.91.906l14.09.035c.5 0 .9-.406.9-.906v-1.811z" style="fill:#dd9c49" transform="matrix(3.37337 .31106 -.4591 4.97888 -4932.506 -342.667)"/><path d="M1952.12 227.833c0-.532-.47-.965-1.03-.965h-12.01c-.56 0-1.03.433-1.03.965v1.93c0 .533.47.965 1.03.965h12.01c.56 0 1.03-.432 1.03-.965v-1.93z" style="fill:none;stroke:#29231f;stroke-width:2.41px" transform="matrix(4.67309 .29856 -.3188 4.98983 -7515.32 -268.592)"/><path d="M1952.12 227.833c0-.532-.47-.965-1.03-.965h-12.01c-.56 0-1.03.433-1.03.965v1.93c0 .533.47.965 1.03.965h12.01c.56 0 1.03-.432 1.03-.965v-1.93z" style="fill:#eabb7f" transform="matrix(4.67309 .29856 -.3188 4.98983 -7515.32 -268.592)"/><g><path d="M1952.12 227.833c0-.532-.47-.965-1.03-.965h-12.01c-.56 0-1.03.433-1.03.965v1.93c0 .533.47.965 1.03.965h12.01c.56 0 1.03-.432 1.03-.965v-1.93z" style="fill:none;stroke:#29231f;stroke-width:2.41px" transform="matrix(4.57675 .99007 -1.05718 4.88696 -7272.405 -1602.665)"/><path d="M1952.12 227.833c0-.532-.47-.965-1.03-.965h-12.01c-.56 0-1.03.433-1.03.965v1.93c0 .533.47.965 1.03.965h12.01c.56 0 1.03-.432 1.03-.965v-1.93z" style="fill:#eabb7f" transform="matrix(4.57675 .99007 -1.05718 4.88696 -7272.405 -1602.665)"/></g><g><path d="M1936.91 237.114a2.84 2.84 0 0 0-2.84-2.84h-21.45a2.84 2.84 0 0 0-2.84 2.84v5.68a2.84 2.84 0 0 0 2.84 2.84h21.45a2.84 2.84 0 0 0 2.84-2.84v-5.68zm-5.47 1.952c0-.5-.4-.906-.9-.906l-14.09-.036a.91.91 0 0 0-.91.906v1.812c0 .5.41.906.91.906l14.09.035c.5 0 .9-.406.9-.906v-1.811z" style="fill:none;stroke:#29231f;stroke-width:2.73px" transform="matrix(2.73658 -1.99688 2.94727 4.03901 -4219.328 4231.08)"/><path d="M1936.91 237.114a2.84 2.84 0 0 0-2.84-2.84h-21.45a2.84 2.84 0 0 0-2.84 2.84v5.68a2.84 2.84 0 0 0 2.84 2.84h21.45a2.84 2.84 0 0 0 2.84-2.84v-5.68zm-5.47 1.952c0-.5-.4-.906-.9-.906l-14.09-.036a.91.91 0 0 0-.91.906v1.812c0 .5.41.906.91.906l14.09.035c.5 0 .9-.406.9-.906v-1.811z" style="fill:#dd9c49" transform="matrix(2.73658 -1.99688 2.94727 4.03901 -4219.328 4231.08)"/></g><g><path d="M1936.91 237.114a2.84 2.84 0 0 0-2.84-2.84h-21.45a2.84 2.84 0 0 0-2.84 2.84v5.68a2.84 2.84 0 0 0 2.84 2.84h21.45a2.84 2.84 0 0 0 2.84-2.84v-5.68zm-5.47 1.952c0-.5-.4-.906-.9-.906l-14.09-.036a.91.91 0 0 0-.91.906v1.812c0 .5.41.906.91.906l14.09.035c.5 0 .9-.406.9-.906v-1.811z" style="fill:none;stroke:#29231f;stroke-width:2.73px" transform="matrix(2.97353 -1.62313 2.39563 4.38873 -4637.03 3486.687)"/><path d="M1936.91 237.114a2.84 2.84 0 0 0-2.84-2.84h-21.45a2.84 2.84 0 0 0-2.84 2.84v5.68a2.84 2.84 0 0 0 2.84 2.84h21.45a2.84 2.84 0 0 0 2.84-2.84v-5.68zm-5.47 1.952c0-.5-.4-.906-.9-.906l-14.09-.036a.91.91 0 0 0-.91.906v1.812c0 .5.41.906.91.906l14.09.035c.5 0 .9-.406.9-.906v-1.811z" style="fill:#dd9c49" transform="matrix(2.97353 -1.62313 2.39563 4.38873 -4637.03 3486.687)"/></g><g><path d="M1952.12 227.833c0-.532-.47-.965-1.03-.965h-12.01c-.56 0-1.03.433-1.03.965v1.93c0 .533.47.965 1.03.965h12.01c.56 0 1.03-.432 1.03-.965v-1.93z" style="fill:none;stroke:#29231f;stroke-width:2.41px" transform="matrix(4.04538 -2.35834 2.51819 4.31958 -6739.607 4988.614)"/><path d="M1952.12 227.833c0-.532-.47-.965-1.03-.965h-12.01c-.56 0-1.03.433-1.03.965v1.93c0 .533.47.965 1.03.965h12.01c.56 0 1.03-.432 1.03-.965v-1.93z" style="fill:#eabb7f" transform="matrix(4.04538 -2.35834 2.51819 4.31958 -6739.607 4988.614)"/></g><g><path d="M1952.12 227.833c0-.532-.47-.965-1.03-.965h-12.01c-.56 0-1.03.433-1.03.965v1.93c0 .533.47.965 1.03.965h12.01c.56 0 1.03-.432 1.03-.965v-1.93z" style="fill:none;stroke:#29231f;stroke-width:2.41px" transform="matrix(4.35107 -1.73063 1.84794 4.64598 -7281.95 3745.8)"/><path d="M1952.12 227.833c0-.532-.47-.965-1.03-.965h-12.01c-.56 0-1.03.433-1.03.965v1.93c0 .533.47.965 1.03.965h12.01c.56 0 1.03-.432 1.03-.965v-1.93z" style="fill:#eabb7f" transform="matrix(4.35107 -1.73063 1.84794 4.64598 -7281.95 3745.8)"/></g></svg>