<svg viewBox="0 0 3000 3000" xmlns="http://www.w3.org/2000/svg" xml:space="preserve" style="fill-rule:evenodd;clip-rule:evenodd;stroke-linecap:round;stroke-linejoin:round;stroke-miterlimit:1.5"><path style="fill:none" d="M637.375 638h600v600h-600z" transform="matrix(5.00002 0 0 5 -3186.876 -3190)"/><path d="M1834.65 114.133c11.87 9.245 18.29 19.625 19.47 31.095.03.331-.02.666-.16.967-6.29 13.572-13.69 15.004-22.56.41a1.865 1.865 0 0 1-.09-1.761c4.66-9.96 5.48-20.22 3.34-30.711z" style="fill:#aed5ee;stroke:#433d39;stroke-width:2.59px" transform="matrix(2.843 -3.56882 3.4882 2.77877 -4561.174 7499.02)"/><path d="M1834.65 114.133c11.9 9.263 18.32 19.666 19.48 31.161.03.289-.02.58-.14.843-6.31 13.659-13.74 15.09-22.66.36a1.625 1.625 0 0 1-.07-1.543c4.71-9.994 5.54-20.292 3.39-30.821z" style="fill:#59a0cc;stroke:#433d39;stroke-width:2.33px" transform="matrix(.69515 -4.95144 4.95142 .69515 -836.175 10376.017)"/><g transform="matrix(5.00002 0 0 5 .685 -2.9)"><path d="M246.984 265.334c35.553 27.952 71.106 28.241 106.659.212 2.536 4.383 3.994 8.765 3.817 13.147-8.304 20.374-56.697 62.531-56.697 62.531s-48.039-41.342-58.232-62.531c.322-5.615 1.868-10.006 4.453-13.359z" style="fill:#59a0cc"/><clipPath id="a"><path d="M246.984 265.334c35.553 27.952 71.106 28.241 106.659.212 2.536 4.383 3.994 8.765 3.817 13.147-8.304 20.374-56.697 62.531-56.697 62.531s-48.039-41.342-58.232-62.531c.322-5.615 1.868-10.006 4.453-13.359z"/></clipPath><g clip-path="url(#a)"><path d="M243.434 285.311c2.749-2.693 6.731-8.499 8.246-8.078 1.515.421-.841 9.004.841 10.602 1.683 1.599 7.798.253 9.256-1.009 1.459-1.263.309-5.806-.504-6.564-.814-.757-2.917 1.347-4.376 2.02M259.085 308.535c-.225-4.095-2.328-10.266-.673-12.285 1.654-2.02 9.003-.898 10.602.168 1.599 1.066-1.543 4.488-1.01 6.227.533 1.739 2.917 4.207 4.207 4.207 1.291 0 3.17-2.749 3.535-4.207.364-1.459-.73-4.095-1.347-4.544-.617-.449-1.571 1.234-2.356 1.851M274.399 278.916c-1.122 3.31-3.87 7.91-3.366 9.929.505 2.02 4.909 2.524 6.395 2.188 1.487-.337 1.543-3.955 2.525-4.207.981-.253 2.861 1.374 3.366 2.692.504 1.318.392 4.32-.337 5.217-.729.898-2.693.112-4.039.168M273.221 323.681c1.29-4.095 2.496-10.378 3.871-12.285.868-1.205 3.298-.181 4.375.841 1.094 1.038 2.441 4.067 2.188 5.386-.252 1.318-2.973 1.262-3.702 2.524-.729 1.262-1.431 4.432-.673 5.049.757.617 4.235-.561 5.217-1.347.893-.714.448-2.243.673-3.365M306.879 282.787c2.244 3.478 6.592 7.909 6.732 10.434.139 2.51-3.647 3.73-5.89 4.712-2.244.981-6.143 1.991-7.573 1.178-1.431-.814-1.235-4.404-1.01-6.059.203-1.496 1.262-3.45 2.356-3.87 1.094-.421 3.618.476 4.207 1.346.589.869-.449 2.58-.673 3.871M319.333 326.71c.28-4.88 1.935-12.06.841-14.641-.969-2.287-4.943-1.178-7.405-.841-2.664.364-7.152 1.346-8.582 3.029-1.431 1.683-.702 5.273 0 7.068.679 1.74 2.664 3.282 4.207 3.702 1.542.421 4.039-.14 5.048-1.178 1.01-1.037.87-3.73 1.01-5.048.101-.95.766-2.661-.168-2.861-1.178-.253-4.6.897-6.9 1.346M343.398 306.179c-.561-3.702-.336-9.312-1.683-11.107-1.281-1.708-4.502-.651-6.395.336-2.58 1.347-7.769 5.75-9.087 7.742-.804 1.214.336 3.281 1.178 4.207.841.926 2.51 1.477 3.87 1.346 1.459-.14 4.039-.981 4.881-2.187.841-1.207.785-4.376.168-5.049s-2.581.673-3.871 1.01" style="fill:none;stroke:#fff;stroke-width:1.58px" transform="translate(.81 -1.367)"/><path d="M331.954 298.438c-1.683-.842-3.73-1.235-5.048-2.525-1.319-1.29-2.945-3.45-2.861-5.217.084-1.767 1.991-4.319 3.366-5.385 1.312-1.018 3.197-1.683 4.88-1.01 1.683.673 3.001 1.571 3.534 2.525.523.935.258 2.305-.337 3.197-.673 1.01-2.468 1.907-3.702 2.861M360.564 278.748c-2.861-2.244-6.732-6.592-8.583-6.732-1.851-.14-2.328 3.815-2.524 5.89-.197 2.076.308 5.946 1.346 6.564 1.038.617 4.347-1.655 4.88-2.861.533-1.207-1.122-2.917-1.683-4.376M281.804 312.406c1.627-.449 3.899-.477 4.88-1.347.982-.869 1.234-2.748 1.01-3.87-.224-1.122-1.543-2.441-2.356-2.861-.754-.39-2.076-.253-2.524.336-.449.589-.112 2.132-.169 3.198M294.594 339.164c2.973-1.515 8.134-2.973 8.919-4.544.786-1.571-2.72-3.478-4.207-4.88-1.428-1.348-3.394-3.927-4.712-3.535-1.318.393-3.113 4.572-3.198 5.891-.071 1.119 1.599 1.935 2.693 2.019 1.094.084 2.581-1.01 3.871-1.515" style="fill:none;stroke:#fff;stroke-width:1.58px" transform="translate(.81 -1.367)"/></g><path d="M246.984 265.334c35.553 27.952 71.106 28.241 106.659.212 2.536 4.383 3.994 8.765 3.817 13.147-8.304 20.374-56.697 62.531-56.697 62.531s-48.039-41.342-58.232-62.531c.322-5.615 1.868-10.006 4.453-13.359z" style="fill:none;stroke:#433d39;stroke-width:2.33px"/></g></svg>