<svg viewBox="0 0 3000 3000" xmlns="http://www.w3.org/2000/svg" xmlns:xlink="http://www.w3.org/1999/xlink" xml:space="preserve" style="fill-rule:evenodd;clip-rule:evenodd;stroke-linejoin:round;stroke-miterlimit:2"><path d="M1384.81 230.422c8.58-12.023 25.72-37.568-2.47-83.711 8.87-.348 16.96 3.392 20.08 11.79 1.83-3.571 1.95-6.972 1.07-10.272 3.67 3.192 7.82 10.681 8.52 19.548 2.22-1.701 3.62-4.309 3.41-8.711 4.69 4.676 6.85 14.126 5.87 22.314 2.48-1.37 4.16-3.654 4.75-7.186 4.07 9.603 6.7 21.237 4.83 31.92 2.5-1.363 4.89-3.926 7.12-7.991 2.08 11.569 1.46 25.755-4.03 37.054 2.98.531 5.97-.284 8.95-2.725-.73 10.643-5.75 23.227-12.97 31.169 3.43 1.454 6.75 1.499 10.27.756-7.41 8.891-17.62 16.315-26.65 18.722 1.71 2.041 4.39 2.942 7.73 3.092-10.8 6.498-22.22 10.033-34.63 8.966.8 2.192 2.59 4.261 5.56 6.183-13.29 4.607-26.59 5.744-39.88 4.947.57 1.443 2.64 2.886 6.18 4.329-20.34 3.824-40.55 4.164-60.62.964 1.68 2.337 5.62 4.359 9.42 5.378-21.99.511-46.18-5.892-46.18-5.892v-61.39s50.42 12.136 71.03 8.927c20.61-3.209 41.08-11.981 52.64-28.181z" style="fill:#caaf9f" transform="matrix(4.99998 0 0 5 -4806.944 756.515)"/><path d="M1358.38 308.45c11.49.15 22.98-1.295 34.48-5.278a1.94 1.94 0 0 0 .42-3.459c-1.22-.791-2.22-1.599-3.01-2.434 11.38.164 21.97-3.377 32.02-9.427.73-.441 1.08-1.31.87-2.138a1.93 1.93 0 0 0-1.79-1.46c-1.28-.058-2.45-.226-3.47-.561 8.32-3.304 17.16-10.104 23.8-18.074.53-.634.6-1.534.18-2.241a1.946 1.946 0 0 0-2.06-.898c-2.24.47-4.38.598-6.52.165 6.45-8.24 10.85-19.985 11.55-30.059a1.946 1.946 0 0 0-3.17-1.635c-1.59 1.302-3.17 2.071-4.76 2.335 4.54-11.158 4.96-24.481 2.98-35.505a1.94 1.94 0 0 0-3.61-.592c-.96 1.749-1.94 3.199-2.95 4.369.56-9.625-1.92-19.641-5.51-28.121a1.946 1.946 0 0 0-2.02-1.168c-.85.101-1.54.755-1.68 1.606-.15.895-.38 1.694-.7 2.403-.23-7.265-2.61-14.56-6.64-18.585a1.943 1.943 0 0 0-2.16-.4 1.954 1.954 0 0 0-1.15 1.866c.07 1.344-.04 2.487-.29 3.463-1.62-7.222-5.22-13.065-8.43-15.856a1.94 1.94 0 0 0-2.3-.182 1.945 1.945 0 0 0-.85 2.145c.42 1.553.58 3.132.38 4.746-4.27-6.193-11.68-9.017-19.73-8.702-.69.027-1.31.416-1.63 1.023-.33.606-.31 1.339.05 1.926 13.78 22.544 16.56 40.036 14.76 53.381-1.77 13.255-8.04 22.359-12.2 28.193-11.28 15.793-31.27 24.263-51.37 27.391-20.39 3.176-70.27-8.896-70.27-8.896a1.949 1.949 0 0 0-1.66.362 1.96 1.96 0 0 0-.74 1.523v61.39c0 .879.6 1.649 1.45 1.874 0 0 24.46 6.473 46.71 5.957.97-.023 1.77-.75 1.88-1.708a1.932 1.932 0 0 0-1.42-2.103c-.45-.122-.91-.258-1.36-.407 17.37 1.877 34.85 1.146 52.42-2.158a1.926 1.926 0 0 0 1.57-1.711 1.93 1.93 0 0 0-1.2-1.99c-.3-.124-.59-.247-.87-.37zm26.43-78.028c8.58-12.023 25.72-37.568-2.47-83.711 8.87-.348 16.96 3.392 20.08 11.79 1.83-3.571 1.95-6.972 1.07-10.272 3.67 3.192 7.82 10.681 8.52 19.548 2.22-1.701 3.62-4.309 3.41-8.711 4.69 4.676 6.85 14.126 5.87 22.314 2.48-1.37 4.16-3.654 4.75-7.186 4.07 9.603 6.7 21.237 4.83 31.92 2.5-1.363 4.89-3.926 7.12-7.991 2.08 11.569 1.46 25.755-4.03 37.054 2.98.531 5.97-.284 8.95-2.725-.73 10.643-5.75 23.227-12.97 31.169 3.43 1.454 6.75 1.499 10.27.756-7.41 8.891-17.62 16.315-26.65 18.722 1.71 2.041 4.39 2.942 7.73 3.092-10.8 6.498-22.22 10.033-34.63 8.966.8 2.192 2.59 4.261 5.56 6.183-13.29 4.607-26.59 5.744-39.88 4.947.57 1.443 2.64 2.886 6.18 4.329-20.34 3.824-40.55 4.164-60.62.964 1.68 2.337 5.62 4.359 9.42 5.378-21.99.511-46.18-5.892-46.18-5.892v-61.39s50.42 12.136 71.03 8.927c20.61-3.209 41.08-11.981 52.64-28.181z" style="fill:#433d39" transform="matrix(4.99998 0 0 5 -4806.944 756.515)"/><use xlink:href="#_Image1" x="1499.04" y="1556.27" width="908.835" height="785.724" transform="matrix(.99982 0 0 .99965 0 0)"/><g><path style="fill:none" d="M637.375 638h600v600h-600z" transform="matrix(4.99998 0 0 5 -3186.864 -3190)"/></g></svg>