<svg viewBox="0 0 3000 3000" xmlns="http://www.w3.org/2000/svg" xmlns:xlink="http://www.w3.org/1999/xlink" xml:space="preserve" style="fill-rule:evenodd;clip-rule:evenodd;stroke-linejoin:round;stroke-miterlimit:2"><path style="fill:none" d="M0 0h3000v3000H0z" transform="matrix(1 0 0 1 0 -.005)"/><path d="M1376.66 232.07c8.43-11.807 9.72-49.663-14.7-62.312a.697.697 0 0 1 .06-1.267c8.72-3.495 13.96-3.36 21.4-.99-1.03-3.643-2.34-6.163-3.27-8.809a.7.7 0 0 1 .22-.756.693.693 0 0 1 .78-.072c8.88 4.926 11.2 10.503 11.86 18.913 1.9-1.456 3.2-3.577 3.4-6.919.02-.286.22-.53.49-.616.27-.086.57.005.75.229 3.83 4.999 5.53 13.474 4.64 20.909 1.97-1.09 3.44-2.759 4.25-5.175.1-.274.35-.46.64-.466.29-.007.56.167.67.437 3.6 9.195 5.76 19.979 4.02 29.938 2.15-1.171 4.21-3.229 6.17-6.363a.691.691 0 0 1 1.27.266c1.67 10.277.83 15.497-4.35 26.16 2.58.459 5.16-.088 7.74-1.82a.692.692 0 0 1 .74-.019c.23.137.36.395.34.662-1.09 10.295-5.97 22.061-12.84 29.621 2.87 1.219 5.67 1.448 8.58 1.052.28-.04.55.092.7.334.14.242.12.546-.05.77-30.91 40.171-124.05 35.242-159.03 29.16v-33.261s50.42.136 71.03-3.073 32.93-10.333 44.49-26.533z" style="fill:#caaf9f" transform="matrix(4.99998 0 0 5 -4806.715 786.555)"/><path d="M1375.09 230.943c-11.23 15.73-23.2 22.629-43.22 25.744-20.52 3.195-70.72 3.05-70.72 3.05a1.909 1.909 0 0 0-1.37.566c-.37.364-.58.857-.58 1.373v33.261c0 .943.68 1.749 1.61 1.91 21.13 3.674 63.34 6.927 100.45.208 25.09-4.543 47.83-13.69 60.45-30.096 0-.005.01-.01.01-.016.64-.851.71-2.004.17-2.922a2.637 2.637 0 0 0-2.63-1.269c-1.68.228-3.32.225-4.96-.107 6.11-7.803 10.38-18.748 11.4-28.442 0-.008 0-.016.01-.024a2.65 2.65 0 0 0-1.28-2.507 2.63 2.63 0 0 0-2.81.073c0 .001 0 .002-.01.003-1.2.81-2.41 1.314-3.61 1.526 4.24-9.357 4.82-14.756 3.23-24.561a2.633 2.633 0 0 0-4.83-.997c0 .003 0 .006-.01.009-.67 1.08-1.35 2.02-2.05 2.828.52-8.865-1.54-18.061-4.69-26.085v-.012a2.64 2.64 0 0 0-4.94.112v.017c-.09.243-.18.476-.27.7-.2-6.398-2.06-12.823-5.25-16.993l-.03-.032a2.62 2.62 0 0 0-2.84-.868 2.623 2.623 0 0 0-1.84 2.336v.013c-.04.616-.12 1.181-.24 1.699-1.34-6.334-4.49-11.022-12.14-15.27a2.649 2.649 0 0 0-2.97.273 2.648 2.648 0 0 0-.82 2.858c.01.009.01.019.01.028.6 1.711 1.36 3.368 2.11 5.317-6.16-1.46-11.33-1.079-19.12 2.043a2.642 2.642 0 0 0-1.67 2.32 2.637 2.637 0 0 0 1.43 2.474c11.62 6.019 17.04 18.087 18.63 30.004 1.61 11.952-.59 23.822-4.61 29.456zm1.57 1.127c8.43-11.807 9.72-49.663-14.7-62.312a.697.697 0 0 1 .06-1.267c8.72-3.495 13.96-3.36 21.4-.99-1.03-3.643-2.34-6.163-3.27-8.809a.7.7 0 0 1 .22-.756.693.693 0 0 1 .78-.072c8.88 4.926 11.2 10.503 11.86 18.913 1.9-1.456 3.2-3.577 3.4-6.919.02-.286.22-.53.49-.616.27-.086.57.005.75.229 3.83 4.999 5.53 13.474 4.64 20.909 1.97-1.09 3.44-2.759 4.25-5.175.1-.274.35-.46.64-.466.29-.007.56.167.67.437 3.6 9.195 5.76 19.979 4.02 29.938 2.15-1.171 4.21-3.229 6.17-6.363a.691.691 0 0 1 1.27.266c1.67 10.277.83 15.497-4.35 26.16 2.58.459 5.16-.088 7.74-1.82a.692.692 0 0 1 .74-.019c.23.137.36.395.34.662-1.09 10.295-5.97 22.061-12.84 29.621 2.87 1.219 5.67 1.448 8.58 1.052.28-.04.55.092.7.334.14.242.12.546-.05.77-30.91 40.171-124.05 35.242-159.03 29.16v-33.261s50.42.136 71.03-3.073 32.93-10.333 44.49-26.533z" style="fill:#433d39" transform="matrix(4.99998 0 0 5 -4806.715 786.555)"/><g transform="matrix(1 0 0 1 0 -.005)"><use xlink:href="#_Image1" x="1500.53" y="1635.05" width="813.169" height="649.029" transform="scale(.99898 .9985)"/></g></svg>