<svg viewBox="0 0 3000 3000" xmlns="http://www.w3.org/2000/svg" xmlns:xlink="http://www.w3.org/1999/xlink" xml:space="preserve" style="fill-rule:evenodd;clip-rule:evenodd;stroke-linejoin:round;stroke-miterlimit:2"><path style="fill:none" d="M637.375 638h600v600h-600z" transform="matrix(4.99998 0 0 5 -3186.864 -3190)"/><path d="M431.967 196.782c-5.486 5.826 1.816 77.119-15.922 125.974-6.633 18.27-24.189 35.462-43.3 39.313C353.404 365.966 300 346.138 300 346.138v112.295s68.974-6.65 91.613-17.923c19.853-9.885 36.422-28.951 44.219-49.713 9.558-25.452 13.773-70.662 13.129-102.998-.615-30.857-11.508-96.843-16.994-91.017z" style="fill:#caaf9f" transform="matrix(4.99998 0 0 2.51079 -1.228 1165.813)"/><path d="M431.054 193.375c-.823.874-1.555 2.503-2.079 5.038-.784 3.8-1.175 10.301-1.449 18.664-.836 25.527-.878 69.887-13.052 103.417-6.413 17.663-23.448 34.011-41.924 37.733-19.196 3.868-72.195-15.885-72.195-15.885-.566-.211-1.151.092-1.594.826-.443.733-.7 1.822-.7 2.97v112.295c0 1.057.217 2.067.602 2.796.384.728.901 1.112 1.431 1.061 0 0 69.257-6.714 91.989-18.034 20.36-10.138 37.306-29.854 45.302-51.147 9.79-26.069 14.173-72.343 13.513-105.463-.504-25.311-7.807-73.642-13.566-88.916-1.113-2.953-2.242-4.817-3.233-5.607-1.078-.859-2.098-.753-3.045.252zm.913 3.407c-5.486 5.826 1.816 77.119-15.922 125.974-6.633 18.27-24.189 35.462-43.3 39.313C353.404 365.966 300 346.138 300 346.138v112.295s68.974-6.65 91.613-17.923c19.853-9.885 36.422-28.951 44.219-49.713 9.558-25.452 13.773-70.662 13.129-102.998-.615-30.857-11.508-96.843-16.994-91.017z" style="fill:#433d39" transform="matrix(4.99998 0 0 2.51079 -1.228 1165.813)"/><g><use xlink:href="#_Image1" x="1518.06" y="1751.71" width="727.298" height="564.808" transform="scale(.99904 .99966)"/></g></svg>