<?xml version="1.0" encoding="UTF-8" standalone="no"?>
<!DOCTYPE svg PUBLIC "-//W3C//DTD SVG 1.1//EN" "http://www.w3.org/Graphics/SVG/1.1/DTD/svg11.dtd">
<svg width="100%" height="100%" viewBox="0 0 3000 3000" version="1.1" xmlns="http://www.w3.org/2000/svg" xmlns:xlink="http://www.w3.org/1999/xlink" xml:space="preserve" xmlns:serif="http://www.serif.com/" style="fill-rule:evenodd;clip-rule:evenodd;stroke-linecap:round;stroke-linejoin:round;stroke-miterlimit:1.5;">
    <g id="ear0" transform="matrix(4.8401,0,0,5.05135,16.8148,-25.674)">
        <g transform="matrix(1.03304,2.74734e-17,0,0.989835,-661.906,-626.432)">
            <rect x="637.375" y="638" width="600" height="600" style="fill:none;"/>
        </g>
        <g transform="matrix(1.06931,-0.242601,0.361456,0.717695,37.7187,30.0207)">
            <path d="M138.157,185.695C146.516,198.475 160.921,243.985 156.804,252.524C152.687,261.063 132.498,265.872 128.381,257.333C127.584,255.681 123.199,252.397 122.297,250.066C121.622,248.323 133.119,225.469 133.119,225.469C133.119,225.469 132.365,199.835 131.93,197.544C128.637,192.049 131.725,186.043 138.157,185.695Z" style="fill:rgb(202,175,159);stroke:rgb(67,61,57);stroke-width:2.22px;"/>
        </g>
        <g transform="matrix(0.815851,-0.185098,0.275781,0.547581,89.5131,61.1809)">
            <path d="M136.875,183.895C145.108,183.895 147.953,247.416 143.455,255.76C140.907,260.487 130.259,256.519 127.231,253.475C123.915,250.142 137.904,236.015 139.013,218.712C140.322,198.277 132.416,183.895 136.875,183.895Z" style="fill:rgb(224,211,204);"/>
        </g>
        <g transform="matrix(1.03304,0,0,0.989835,-1437.33,-236.792)">
            <path d="M1635.95,369.777C1640.72,371.447 1645.89,375.676 1651.06,381.277C1637.17,383.007 1633.33,400.776 1628.28,401.992C1623.27,403.198 1619.42,393.586 1620.61,388.575C1621.89,383.206 1628.93,371.324 1635.95,369.777Z" style="fill:rgb(202,175,159);stroke:rgb(67,61,57);stroke-width:2.3px;"/>
        </g>
        <g transform="matrix(-1.06931,-0.242601,-0.361456,0.717695,573.962,30.0207)">
            <path d="M138.356,182.132C146.715,194.912 160.921,243.985 156.804,252.524C152.687,261.063 132.498,265.872 128.381,257.333C127.584,255.681 121.465,251.811 120.563,249.48C119.888,247.737 129.982,229.263 129.982,229.263C129.982,229.263 132.564,196.272 132.129,193.981C128.836,188.487 131.924,182.48 138.356,182.132Z" style="fill:rgb(202,175,159);stroke:rgb(67,61,57);stroke-width:2.22px;"/>
        </g>
        <g transform="matrix(-0.815851,-0.185098,-0.275781,0.547581,522.168,61.1809)">
            <path d="M140.3,178.698C148.534,178.698 147.953,247.416 143.455,255.76C140.907,260.487 128.816,255.522 125.787,252.478C122.471,249.145 136.406,238.762 137.515,221.459C138.824,201.024 135.841,178.698 140.3,178.698Z" style="fill:rgb(224,211,204);"/>
        </g>
        <g transform="matrix(-1.03304,0,0,0.989835,2048.04,-242.832)">
            <path d="M1634.03,373.171C1638.8,374.841 1649.49,382.871 1654.97,390.281C1635.32,385.589 1621.35,411.632 1616.31,412.849C1611.3,414.055 1611.13,408.743 1612.32,403.732C1613.6,398.363 1626.36,372.689 1634.03,373.171Z" style="fill:rgb(202,175,159);stroke:rgb(67,61,57);stroke-width:2.3px;"/>
        </g>
    </g>
</svg>
