<?xml version="1.0" encoding="UTF-8" standalone="no"?>
<!DOCTYPE svg PUBLIC "-//W3C//DTD SVG 1.1//EN" "http://www.w3.org/Graphics/SVG/1.1/DTD/svg11.dtd">
<svg width="100%" height="100%" viewBox="0 0 3000 3000" version="1.1" xmlns="http://www.w3.org/2000/svg" xmlns:xlink="http://www.w3.org/1999/xlink" xml:space="preserve" xmlns:serif="http://www.serif.com/" style="fill-rule:evenodd;clip-rule:evenodd;stroke-linejoin:round;stroke-miterlimit:2;">
    <g id="ear1" transform="matrix(4.8401,0,0,5.05135,19.5136,-25.4982)">
        <g transform="matrix(1.03304,0,0,0.989835,-662.463,-626.467)">
            <rect x="637.375" y="638" width="600" height="600" style="fill:none;"/>
        </g>
        <g>
            <g transform="matrix(-0.978638,-0.316973,-0.330807,0.937711,551.305,-17.5348)">
                <path d="M139.819,201.617C148.053,201.617 168.638,244.311 164.521,252.85C160.404,261.388 119.235,261.388 115.118,252.85C111.001,244.311 131.585,201.617 139.819,201.617Z" style="fill:rgb(202,175,159);"/>
                <path d="M139.819,199.315C141.217,199.315 142.941,200.029 144.751,201.581C147.878,204.261 151.694,209.661 155.267,216.071C160.508,225.471 165.281,237.038 166.818,244.927C167.586,248.865 167.478,252.016 166.594,253.849C165.79,255.518 163.996,257.054 161.345,258.222C156.382,260.409 148.105,261.556 139.819,261.556C131.534,261.556 123.257,260.409 118.293,258.222C115.643,257.054 113.849,255.518 113.044,253.849C112.16,252.016 112.053,248.865 112.82,244.927C114.358,237.038 119.131,225.471 124.371,216.071C127.945,209.661 131.76,204.261 134.888,201.581C136.698,200.029 138.422,199.315 139.819,199.315ZM139.819,201.617C148.053,201.617 168.638,244.311 164.521,252.85C160.404,261.388 119.235,261.388 115.118,252.85C111.001,244.311 131.585,201.617 139.819,201.617Z" style="fill:rgb(67,61,57);"/>
            </g>
            <g transform="matrix(-0.746673,-0.241841,-0.252397,0.715447,500.804,23.1778)">
                <path d="M139.819,201.617C148.053,201.617 168.638,244.311 164.521,252.85C160.404,261.388 119.235,261.388 115.118,252.85C111.001,244.311 131.585,201.617 139.819,201.617Z" style="fill:rgb(224,211,204);"/>
            </g>
        </g>
        <g transform="matrix(-1,0,0,1,611.227,0)">
            <g transform="matrix(-0.978638,-0.316973,-0.330807,0.937711,551.305,-17.5348)">
                <path d="M139.819,201.617C148.053,201.617 168.638,244.311 164.521,252.85C160.404,261.388 119.235,261.388 115.118,252.85C111.001,244.311 131.585,201.617 139.819,201.617Z" style="fill:rgb(202,175,159);"/>
                <path d="M139.819,199.315C138.422,199.315 136.698,200.029 134.888,201.581C131.76,204.261 127.945,209.661 124.371,216.071C119.131,225.471 114.358,237.038 112.82,244.927C112.053,248.865 112.16,252.016 113.044,253.849C113.849,255.518 115.643,257.054 118.293,258.222C123.257,260.409 131.534,261.556 139.819,261.556C148.105,261.556 156.382,260.409 161.345,258.222C163.996,257.054 165.79,255.518 166.594,253.849C167.478,252.016 167.586,248.865 166.818,244.927C165.281,237.038 160.508,225.471 155.267,216.071C151.694,209.661 147.878,204.261 144.751,201.581C142.941,200.029 141.217,199.315 139.819,199.315ZM139.819,201.617C148.053,201.617 168.638,244.311 164.521,252.85C160.404,261.388 119.235,261.388 115.118,252.85C111.001,244.311 131.585,201.617 139.819,201.617Z" style="fill:rgb(67,61,57);"/>
            </g>
            <g transform="matrix(-0.746673,-0.241841,-0.252397,0.715447,500.804,23.1778)">
                <path d="M139.819,201.617C148.053,201.617 168.638,244.311 164.521,252.85C160.404,261.388 119.235,261.388 115.118,252.85C111.001,244.311 131.585,201.617 139.819,201.617Z" style="fill:rgb(224,211,204);"/>
            </g>
        </g>
    </g>
</svg>
