<?xml version="1.0" encoding="UTF-8" standalone="no"?>
<!DOCTYPE svg PUBLIC "-//W3C//DTD SVG 1.1//EN" "http://www.w3.org/Graphics/SVG/1.1/DTD/svg11.dtd">
<svg width="100%" height="100%" viewBox="0 0 3000 3000" version="1.1" xmlns="http://www.w3.org/2000/svg" xmlns:xlink="http://www.w3.org/1999/xlink" xml:space="preserve" xmlns:serif="http://www.serif.com/" style="fill-rule:evenodd;clip-rule:evenodd;stroke-linecap:round;stroke-linejoin:round;stroke-miterlimit:1.5;">
    <g id="ear2" transform="matrix(4.8401,0,0,5.05135,19.3534,-25.6435)">
        <g transform="matrix(1.03304,0,0,0.989835,-662.43,-626.438)">
            <rect x="637.375" y="638" width="600" height="600" style="fill:none;"/>
        </g>
        <g transform="matrix(1.11401,0,0,0.989835,-1561.89,37.8506)">
            <path d="M1650.55,146.757L1666.77,140.965C1666.77,140.965 1642.49,88.23 1631.14,87.988C1619.8,87.747 1597.16,105.532 1589.73,136.62C1585.55,154.111 1593.01,185.521 1599.86,190.493C1606.72,195.465 1619.18,177.362 1623.96,166.163C1628.74,154.964 1631.1,127.4 1632.88,123.635C1634.67,119.87 1650.55,146.757 1650.55,146.757Z" style="fill:rgb(202,175,159);"/>
            <clipPath id="_clip1">
                <path d="M1650.55,146.757L1666.77,140.965C1666.77,140.965 1642.49,88.23 1631.14,87.988C1619.8,87.747 1597.16,105.532 1589.73,136.62C1585.55,154.111 1593.01,185.521 1599.86,190.493C1606.72,195.465 1619.18,177.362 1623.96,166.163C1628.74,154.964 1631.1,127.4 1632.88,123.635C1634.67,119.87 1650.55,146.757 1650.55,146.757Z"/>
            </clipPath>
            <g clip-path="url(#_clip1)">
                <g transform="matrix(-0.927317,0,0,1,3241.47,0)">
                    <path d="M1705.95,148.423C1712.99,134.847 1721.2,122.002 1734.57,112.388C1732.7,119.769 1734.81,120.756 1735.42,129.508L1716.18,152.279L1705.95,148.423Z" style="fill:rgb(224,211,204);stroke:rgb(41,35,31);stroke-width:0.17px;"/>
                </g>
            </g>
            <path d="M1650.55,146.757L1666.77,140.965C1666.77,140.965 1642.49,88.23 1631.14,87.988C1619.8,87.747 1597.16,105.532 1589.73,136.62C1585.55,154.111 1593.01,185.521 1599.86,190.493C1606.72,195.465 1619.18,177.362 1623.96,166.163C1628.74,154.964 1631.1,127.4 1632.88,123.635C1634.67,119.87 1650.55,146.757 1650.55,146.757Z" style="fill:none;stroke:rgb(67,61,57);stroke-width:2.21px;"/>
        </g>
        <g transform="matrix(-1.11401,0,0,0.989835,2173.64,37.8506)">
            <path d="M1650.55,146.757L1666.77,140.965C1666.77,140.965 1642.49,88.23 1631.14,87.988C1619.8,87.747 1597.16,105.532 1589.73,136.62C1585.55,154.111 1593.01,185.521 1599.86,190.493C1606.72,195.465 1618.25,177.362 1623.03,166.163C1627.81,154.964 1631.1,127.4 1632.88,123.635C1634.67,119.87 1650.55,146.757 1650.55,146.757Z" style="fill:rgb(202,175,159);"/>
            <clipPath id="_clip2">
                <path d="M1650.55,146.757L1666.77,140.965C1666.77,140.965 1642.49,88.23 1631.14,87.988C1619.8,87.747 1597.16,105.532 1589.73,136.62C1585.55,154.111 1593.01,185.521 1599.86,190.493C1606.72,195.465 1618.25,177.362 1623.03,166.163C1627.81,154.964 1631.1,127.4 1632.88,123.635C1634.67,119.87 1650.55,146.757 1650.55,146.757Z"/>
            </clipPath>
            <g clip-path="url(#_clip2)">
                <g transform="matrix(-0.927317,0,0,1,3241.43,0)">
                    <path d="M1705.95,148.423C1712.99,134.847 1721.2,122.002 1734.57,112.388C1732.7,119.769 1734.81,120.756 1735.42,129.508L1716.18,152.279L1705.95,148.423Z" style="fill:rgb(224,211,204);stroke:rgb(41,35,31);stroke-width:0.17px;"/>
                </g>
            </g>
            <path d="M1650.55,146.757L1666.77,140.965C1666.77,140.965 1642.49,88.23 1631.14,87.988C1619.8,87.747 1597.16,105.532 1589.73,136.62C1585.55,154.111 1593.01,185.521 1599.86,190.493C1606.72,195.465 1618.25,177.362 1623.03,166.163C1627.81,154.964 1631.1,127.4 1632.88,123.635C1634.67,119.87 1650.55,146.757 1650.55,146.757Z" style="fill:none;stroke:rgb(67,61,57);stroke-width:2.21px;"/>
        </g>
    </g>
</svg>
