<?xml version="1.0" encoding="UTF-8" standalone="no"?>
<!DOCTYPE svg PUBLIC "-//W3C//DTD SVG 1.1//EN" "http://www.w3.org/Graphics/SVG/1.1/DTD/svg11.dtd">
<svg width="100%" height="100%" viewBox="0 0 3000 3000" version="1.1" xmlns="http://www.w3.org/2000/svg" xmlns:xlink="http://www.w3.org/1999/xlink" xml:space="preserve" xmlns:serif="http://www.serif.com/" style="fill-rule:evenodd;clip-rule:evenodd;stroke-linecap:round;stroke-linejoin:round;stroke-miterlimit:1.5;">
    <g id="ear3" transform="matrix(4.8401,0,0,5.05135,19.5598,-25.6259)">
        <g transform="matrix(1.03304,0,0,0.989835,-662.473,-626.442)">
            <rect x="637.375" y="638" width="600" height="600" style="fill:none;"/>
        </g>
        <g transform="matrix(-1.11401,0,0,0.989835,2173.64,37.8506)">
            <path d="M1650.55,146.757L1666.77,140.965C1666.77,140.965 1642.49,103.23 1631.14,102.988C1619.8,102.747 1608.95,118.905 1606.47,130.813C1602.79,148.436 1614.16,142.044 1621.74,142.768C1629.97,143.555 1631.1,138.4 1632.88,134.635C1634.67,130.87 1650.55,146.757 1650.55,146.757Z" style="fill:rgb(202,175,159);"/>
            <clipPath id="_clip1">
                <path d="M1650.55,146.757L1666.77,140.965C1666.77,140.965 1642.49,103.23 1631.14,102.988C1619.8,102.747 1608.95,118.905 1606.47,130.813C1602.79,148.436 1614.16,142.044 1621.74,142.768C1629.97,143.555 1631.1,138.4 1632.88,134.635C1634.67,130.87 1650.55,146.757 1650.55,146.757Z"/>
            </clipPath>
            <g clip-path="url(#_clip1)">
                <g transform="matrix(-0.927317,0,0,1,3241.43,0)">
                    <path d="M1705.95,148.423C1712.99,134.847 1721.2,135.002 1734.57,125.388C1732.7,132.769 1734.81,133.756 1735.42,142.508L1716.18,152.279L1705.95,148.423Z" style="fill:rgb(224,211,204);stroke:rgb(41,35,31);stroke-width:0.17px;"/>
                </g>
            </g>
            <path d="M1650.55,146.757L1666.77,140.965C1666.77,140.965 1642.49,103.23 1631.14,102.988C1619.8,102.747 1608.95,118.905 1606.47,130.813C1602.79,148.436 1614.16,142.044 1621.74,142.768C1629.97,143.555 1631.1,138.4 1632.88,134.635C1634.67,130.87 1650.55,146.757 1650.55,146.757Z" style="fill:none;stroke:rgb(67,61,57);stroke-width:2.24px;"/>
        </g>
        <g transform="matrix(1.11401,0,0,0.989835,-1562.15,37.8506)">
            <path d="M1650.55,146.757L1666.77,140.965C1666.77,140.965 1642.49,103.23 1631.14,102.988C1619.8,102.747 1608.95,118.905 1606.47,130.813C1602.79,148.436 1614.16,142.044 1621.74,142.768C1629.97,143.555 1631.1,138.4 1632.88,134.635C1634.67,130.87 1650.55,146.757 1650.55,146.757Z" style="fill:rgb(202,175,159);"/>
            <clipPath id="_clip2">
                <path d="M1650.55,146.757L1666.77,140.965C1666.77,140.965 1642.49,103.23 1631.14,102.988C1619.8,102.747 1608.95,118.905 1606.47,130.813C1602.79,148.436 1614.16,142.044 1621.74,142.768C1629.97,143.555 1631.1,138.4 1632.88,134.635C1634.67,130.87 1650.55,146.757 1650.55,146.757Z"/>
            </clipPath>
            <g clip-path="url(#_clip2)">
                <g transform="matrix(-0.927317,0,0,1,3241.43,0)">
                    <path d="M1705.95,148.423C1712.99,134.847 1721.2,135.002 1734.57,125.388C1732.7,132.769 1734.81,133.756 1735.42,142.508L1716.18,152.279L1705.95,148.423Z" style="fill:rgb(224,211,204);stroke:rgb(41,35,31);stroke-width:0.17px;"/>
                </g>
            </g>
            <path d="M1650.55,146.757L1666.77,140.965C1666.77,140.965 1642.49,103.23 1631.14,102.988C1619.8,102.747 1608.95,118.905 1606.47,130.813C1602.79,148.436 1614.16,142.044 1621.74,142.768C1629.97,143.555 1631.1,138.4 1632.88,134.635C1634.67,130.87 1650.55,146.757 1650.55,146.757Z" style="fill:none;stroke:rgb(67,61,57);stroke-width:2.24px;"/>
        </g>
    </g>
</svg>
