<?xml version="1.0" encoding="UTF-8" standalone="no"?>
<!DOCTYPE svg PUBLIC "-//W3C//DTD SVG 1.1//EN" "http://www.w3.org/Graphics/SVG/1.1/DTD/svg11.dtd">
<svg width="100%" height="100%" viewBox="0 0 3000 3000" version="1.1" xmlns="http://www.w3.org/2000/svg" xmlns:xlink="http://www.w3.org/1999/xlink" xml:space="preserve" xmlns:serif="http://www.serif.com/" style="fill-rule:evenodd;clip-rule:evenodd;stroke-linecap:round;stroke-linejoin:round;stroke-miterlimit:1.5;">
    <g id="ear4" transform="matrix(4.8401,0,0,5.05135,16.8534,-25.6435)">
        <g transform="matrix(1.03304,0,0,0.989835,-661.914,-626.438)">
            <rect x="637.375" y="638" width="600" height="600" style="fill:none;"/>
        </g>
        <g transform="matrix(0.978638,-0.316973,0.330807,0.937711,60.4534,-17.5348)">
            <path d="M111.883,223.481C120.117,223.481 168.638,244.311 164.521,252.85C160.404,261.388 119.235,261.388 115.118,252.85C114.322,251.198 113.404,249.087 112.502,246.755C111.828,245.012 113.968,240.072 113.968,240.072C113.968,240.072 109.125,236.364 108.69,234.073C107.575,228.204 107.962,223.481 111.883,223.481Z" style="fill:rgb(202,175,159);stroke:rgb(67,61,57);stroke-width:2.33px;"/>
        </g>
        <g transform="matrix(0.746673,-0.241841,0.252397,0.715447,110.955,23.1778)">
            <path d="M105.776,227.724C114.01,227.724 167.217,247.25 163.1,255.789C158.983,264.328 122.245,259.1 115.118,252.85C107.408,246.088 97.542,227.724 105.776,227.724Z" style="fill:rgb(224,211,204);"/>
        </g>
        <g transform="matrix(-0.978638,-0.316973,-0.330807,0.937711,550.915,-17.5348)">
            <path d="M111.883,223.481C120.117,223.481 168.638,244.311 164.521,252.85C160.404,261.388 119.235,261.388 115.118,252.85C113.443,249.377 111.234,243.87 109.755,238.559C109.402,237.29 113.443,234.403 113.443,234.403C113.443,234.403 108.297,231.826 108.2,230.49C107.904,226.395 108.803,223.481 111.883,223.481Z" style="fill:rgb(202,175,159);stroke:rgb(67,61,57);stroke-width:2.33px;"/>
        </g>
        <g transform="matrix(-0.746673,-0.241841,-0.252397,0.715447,500.413,23.1778)">
            <path d="M105.776,227.724C114.01,227.724 167.217,247.25 163.1,255.789C158.983,264.328 122.245,259.1 115.118,252.85C107.408,246.088 97.542,227.724 105.776,227.724Z" style="fill:rgb(224,211,204);"/>
        </g>
    </g>
</svg>
