<?xml version="1.0" encoding="UTF-8" standalone="no"?>
<!DOCTYPE svg PUBLIC "-//W3C//DTD SVG 1.1//EN" "http://www.w3.org/Graphics/SVG/1.1/DTD/svg11.dtd">
<svg width="100%" height="100%" viewBox="0 0 3000 3000" version="1.1" xmlns="http://www.w3.org/2000/svg" xmlns:xlink="http://www.w3.org/1999/xlink" xml:space="preserve" xmlns:serif="http://www.serif.com/" style="fill-rule:evenodd;clip-rule:evenodd;stroke-linecap:round;stroke-linejoin:round;stroke-miterlimit:1.5;">
    <g id="eye2" transform="matrix(1.46091,0,0,5,-112.558,801.37)">
        <g transform="matrix(3.42252,0,0,1,-2104.38,-798.274)">
            <rect x="637.375" y="638" width="600" height="600" style="fill:none;"/>
        </g>
        <g transform="matrix(3.31307,0,0,1.01027,87.2132,-152.463)">
            <g transform="matrix(-1.20317,0,0,1.18941,666.979,-37.8157)">
                <ellipse cx="316.776" cy="186.416" rx="14.638" ry="13.723" style="fill:rgb(115,107,102);"/>
            </g>
            <g transform="matrix(-0.77055,0,0,0.782938,532.161,39.8459)">
                <ellipse cx="316.776" cy="186.416" rx="14.638" ry="13.723" style="fill:rgb(227,227,227);stroke:rgb(67,61,57);stroke-width:1.08px;"/>
            </g>
            <g transform="matrix(-0.422578,0,0,0.430966,423.489,106.454)">
                <ellipse cx="316.776" cy="186.416" rx="14.638" ry="13.723" style="fill:rgb(18,18,18);"/>
            </g>
            <g transform="matrix(-0.1294,0,0,0.134255,333.926,159.719)">
                <ellipse cx="316.776" cy="186.416" rx="14.638" ry="13.723" style="fill:rgb(214,214,214);"/>
            </g>
            <g transform="matrix(-1.03304,0,0,0.989835,1044.69,-206.594)">
                <path d="M721.91,392.579C726.583,383.03 738.911,384.034 742.655,392.743C745.796,394.206 749.054,393.903 752.413,392.087C749.026,392.114 745.987,391.185 743.475,388.807C745.169,389.155 746.756,388.65 748.231,387.249C745.457,387.314 742.75,387.047 740.195,386.019L743.475,383.969C732.076,380.729 723.33,384.091 721.91,392.579Z"/>
            </g>
        </g>
        <g transform="matrix(-3.31307,0,0,1.01027,2120.39,-152.463)">
            <g transform="matrix(-1.20317,0,0,1.18941,666.979,-37.8157)">
                <ellipse cx="316.776" cy="186.416" rx="14.638" ry="13.723" style="fill:rgb(115,107,102);"/>
            </g>
            <g transform="matrix(-0.77055,0,0,0.782938,532.161,39.8459)">
                <ellipse cx="316.776" cy="186.416" rx="14.638" ry="13.723" style="fill:rgb(227,227,227);stroke:rgb(67,61,57);stroke-width:1.08px;"/>
            </g>
            <g transform="matrix(-0.422578,0,0,0.430966,423.489,106.454)">
                <ellipse cx="316.776" cy="186.416" rx="14.638" ry="13.723" style="fill:rgb(18,18,18);"/>
            </g>
            <g transform="matrix(-0.1294,0,0,0.134255,333.926,159.719)">
                <ellipse cx="316.776" cy="186.416" rx="14.638" ry="13.723" style="fill:rgb(214,214,214);"/>
            </g>
            <g transform="matrix(-1.03304,0,0,0.989835,1044.69,-206.594)">
                <path d="M721.91,392.579C726.583,383.03 738.911,384.034 742.655,392.743C745.796,394.206 749.054,393.903 752.413,392.087C749.026,392.114 745.987,391.185 743.475,388.807C745.169,389.155 746.756,388.65 748.231,387.249C745.457,387.314 742.75,387.047 740.195,386.019L743.475,383.969C732.076,380.729 723.33,384.091 721.91,392.579Z"/>
            </g>
        </g>
        <g transform="matrix(3.42252,0,0,2.21366,79.2681,-394.798)">
            <path d="M327,200.139C308.512,196.293 289.837,196.477 271,200.139L271,203.5L327,203.5L327,200.139Z" style="fill:rgb(202,175,159);"/>
        </g>
    </g>
</svg>
