<?xml version="1.0" encoding="UTF-8" standalone="no"?>
<!DOCTYPE svg PUBLIC "-//W3C//DTD SVG 1.1//EN" "http://www.w3.org/Graphics/SVG/1.1/DTD/svg11.dtd">
<svg width="100%" height="100%" viewBox="0 0 3000 3000" version="1.1" xmlns="http://www.w3.org/2000/svg" xmlns:xlink="http://www.w3.org/1999/xlink" xml:space="preserve" xmlns:serif="http://www.serif.com/" style="fill-rule:evenodd;clip-rule:evenodd;stroke-linecap:round;stroke-linejoin:round;stroke-miterlimit:1.5;">
    <g id="eye6" transform="matrix(1.46091,0,0,5,-112.558,397.738)">
        <g transform="matrix(3.42252,0,0,1,-2104.38,-717.548)">
            <rect x="637.375" y="638" width="600" height="600" style="fill:none;"/>
        </g>
        <g transform="matrix(3.31307,0,0,1.01027,87.2132,-74.264)">
            <g transform="matrix(-1.13419,0,0,1.24229,646.137,-48.3989)">
                <ellipse cx="316.776" cy="186.416" rx="14.638" ry="13.723" style="fill:rgb(115,107,102);"/>
            </g>
            <g transform="matrix(-0.752466,0,0,0.757063,526.697,45.0247)">
                <ellipse cx="316.776" cy="186.416" rx="14.638" ry="13.723" style="fill:rgb(209,209,209);stroke:black;stroke-width:1.12px;"/>
            </g>
            <g transform="matrix(-0.431258,0,0,0.413222,427.399,110.995)">
                <ellipse cx="316.776" cy="186.416" rx="14.638" ry="13.723" style="fill:rgb(18,18,18);"/>
            </g>
            <g transform="matrix(-0.143008,0,0,0.137027,339.269,160.192)">
                <ellipse cx="316.776" cy="186.416" rx="14.638" ry="13.723" style="fill:rgb(214,214,214);"/>
            </g>
        </g>
        <g transform="matrix(-3.31307,0,0,1.01027,2120.39,-74.264)">
            <g transform="matrix(-1.13419,0,0,1.24229,646.137,-48.3989)">
                <ellipse cx="316.776" cy="186.416" rx="14.638" ry="13.723" style="fill:rgb(115,107,102);"/>
            </g>
            <g transform="matrix(-0.752466,0,0,0.757063,526.697,45.0247)">
                <ellipse cx="316.776" cy="186.416" rx="14.638" ry="13.723" style="fill:rgb(209,209,209);stroke:black;stroke-width:1.12px;"/>
            </g>
            <g transform="matrix(-0.431258,0,0,0.413222,427.399,110.995)">
                <ellipse cx="316.776" cy="186.416" rx="14.638" ry="13.723" style="fill:rgb(18,18,18);"/>
            </g>
            <g transform="matrix(-0.143008,0,0,0.137027,339.269,160.192)">
                <ellipse cx="316.776" cy="186.416" rx="14.638" ry="13.723" style="fill:rgb(214,214,214);"/>
            </g>
        </g>
        <g transform="matrix(3.36705,0.179318,-0.61372,0.983791,-1225.61,-107.211)">
            <path d="M705.165,79.273C705.141,79.107 705.002,78.981 704.834,78.973C693.152,78.421 681.762,76.696 670.59,74.103C670.477,74.076 670.359,74.108 670.274,74.186C670.188,74.264 670.147,74.38 670.164,74.494C670.437,76.397 671.396,83.061 671.581,84.349C671.6,84.482 671.693,84.592 671.821,84.633C681.95,87.886 693.527,89.402 706.236,89.561C706.338,89.562 706.436,89.518 706.504,89.441C706.571,89.364 706.602,89.262 706.587,89.16C706.339,87.438 705.376,80.744 705.165,79.273Z" style="fill:rgb(202,175,159);"/>
        </g>
        <g transform="matrix(-3.36705,0.179318,0.61372,0.983791,3432.77,-107.211)">
            <path d="M705.165,79.273C705.141,79.107 705.002,78.981 704.834,78.973C693.152,78.421 681.762,76.696 670.59,74.103C670.477,74.076 670.359,74.108 670.274,74.186C670.188,74.264 670.147,74.38 670.164,74.494C670.437,76.397 671.396,83.061 671.581,84.349C671.6,84.482 671.693,84.592 671.821,84.633C681.95,87.886 693.527,89.402 706.236,89.561C706.338,89.562 706.436,89.518 706.504,89.441C706.571,89.364 706.602,89.262 706.587,89.16C706.339,87.438 705.376,80.744 705.165,79.273Z" style="fill:rgb(202,175,159);"/>
        </g>
        <g transform="matrix(3.42252,0,0,2.21366,79.2681,-314.599)">
            <path d="M327,200.139C308.512,196.293 289.837,196.477 271,200.139L271,203.5L327,203.5L327,200.139Z" style="fill:rgb(202,175,159);"/>
        </g>
        <g transform="matrix(3.42252,0,0,1,-1340.75,-8.88178e-16)">
            <path d="M713.12,98.984C714.728,110.11 711.342,109.582 682.216,98.074" style="fill:none;stroke:black;stroke-width:1.25px;"/>
        </g>
        <g transform="matrix(-3.42252,0,0,1,3549.03,-8.88178e-16)">
            <path d="M713.12,98.984C714.728,110.11 711.342,109.582 682.216,98.074" style="fill:none;stroke:black;stroke-width:1.25px;"/>
        </g>
    </g>
</svg>
