<?xml version="1.0" encoding="UTF-8" standalone="no"?>
<!DOCTYPE svg PUBLIC "-//W3C//DTD SVG 1.1//EN" "http://www.w3.org/Graphics/SVG/1.1/DTD/svg11.dtd">
<svg width="100%" height="100%" viewBox="0 0 3000 3000" version="1.1" xmlns="http://www.w3.org/2000/svg" xmlns:xlink="http://www.w3.org/1999/xlink" xml:space="preserve" xmlns:serif="http://www.serif.com/" style="fill-rule:evenodd;clip-rule:evenodd;stroke-linecap:round;stroke-linejoin:round;stroke-miterlimit:1.5;">
    <g id="eye8" transform="matrix(1.46091,0,0,5,-112.845,392.284)">
        <g transform="matrix(3.42252,0,0,1,-2104.19,-716.457)">
            <rect x="637.375" y="638" width="600" height="600" style="fill:none;"/>
        </g>
        <g transform="matrix(3.31307,0,0,1.01027,87.2132,-74.264)">
            <g transform="matrix(-1.13419,0,0,1.24229,646.137,-48.3989)">
                <ellipse cx="316.776" cy="186.416" rx="14.638" ry="13.723" style="fill:rgb(115,107,102);"/>
            </g>
            <g transform="matrix(-0.689215,0,0,0.785942,508.217,39.6411)">
                <ellipse cx="316.776" cy="186.416" rx="14.638" ry="13.723" style="fill:rgb(209,209,209);stroke:black;stroke-width:1.14px;"/>
            </g>
            <g transform="matrix(-0.406139,0,0,0.400227,420.377,113.417)">
                <ellipse cx="316.776" cy="186.416" rx="14.638" ry="13.723" style="fill:rgb(18,18,18);"/>
            </g>
            <g transform="matrix(-0.143008,0,0,0.137027,339.269,160.192)">
                <ellipse cx="316.776" cy="186.416" rx="14.638" ry="13.723" style="fill:rgb(214,214,214);"/>
            </g>
        </g>
        <g transform="matrix(-3.31307,0,0,1.01027,2120.39,-74.264)">
            <g transform="matrix(-1.13419,0,0,1.24229,646.137,-48.3989)">
                <ellipse cx="316.776" cy="186.416" rx="14.638" ry="13.723" style="fill:rgb(115,107,102);"/>
            </g>
            <g transform="matrix(-0.689215,0,0,0.785942,508.217,39.6411)">
                <ellipse cx="316.776" cy="186.416" rx="14.638" ry="13.723" style="fill:rgb(209,209,209);stroke:black;stroke-width:1.14px;"/>
            </g>
            <g transform="matrix(-0.406139,0,0,0.400227,420.377,113.417)">
                <ellipse cx="316.776" cy="186.416" rx="14.638" ry="13.723" style="fill:rgb(18,18,18);"/>
            </g>
            <g transform="matrix(-0.143008,0,0,0.137027,339.269,160.192)">
                <ellipse cx="316.776" cy="186.416" rx="14.638" ry="13.723" style="fill:rgb(214,214,214);"/>
            </g>
        </g>
        <g transform="matrix(3.42252,0,0,2.21366,79.2681,-314.599)">
            <path d="M327,200.139C308.512,196.293 289.837,196.477 271,200.139L271,203.5L327,203.5L327,200.139Z" style="fill:rgb(202,175,159);"/>
        </g>
        <g transform="matrix(-2.94213,0.510902,1.74858,0.859639,3050.94,-321.046)">
            <path d="M699.951,69.503C699.888,69.344 699.719,69.254 699.552,69.29C688.713,71.619 676.78,75.926 669.243,80.786C669.109,80.873 669.051,81.039 669.102,81.191C669.543,82.516 671.56,88.565 672.052,90.041C672.112,90.222 672.306,90.322 672.488,90.265C680.975,87.641 692.873,84.281 703.4,79.067C703.563,78.986 703.637,78.793 703.57,78.623C702.995,77.174 700.505,70.898 699.951,69.503Z" style="fill:rgb(202,175,159);"/>
        </g>
        <g transform="matrix(3.208,-0.348473,1.19266,0.937319,-1385.17,200.258)">
            <path d="M720.158,158.706C719.367,160.815 718.087,165.233 719.746,166.723C723.407,170.011 739.361,171.573 749.814,172.134" style="fill:none;stroke:black;stroke-width:1.25px;"/>
        </g>
        <g transform="matrix(3.38437,0.148895,-0.509597,0.988853,-1253.35,-82.7243)">
            <path d="M702.221,68.715C702.207,68.619 702.154,68.533 702.074,68.477C701.994,68.422 701.895,68.402 701.8,68.422C690.931,70.774 676.807,75.92 669.243,80.786C669.11,80.873 669.051,81.039 669.102,81.191C669.543,82.516 671.56,88.565 672.052,90.041C672.112,90.222 672.306,90.322 672.488,90.265C680.992,87.636 692.919,84.268 703.462,79.036C703.597,78.969 703.674,78.822 703.653,78.672C703.451,77.269 702.463,70.396 702.221,68.715Z" style="fill:rgb(202,175,159);"/>
        </g>
        <g transform="matrix(-3.4209,0.0308376,0.105542,0.999524,3528.07,-88.8541)">
            <path d="M717.984,159.785C717.754,162.089 718.011,165.73 719.444,166.704C723.548,169.494 739.361,171.573 749.814,172.134" style="fill:none;stroke:black;stroke-width:1.25px;"/>
        </g>
    </g>
</svg>
