<?xml version="1.0" encoding="UTF-8" standalone="no"?>
<!DOCTYPE svg PUBLIC "-//W3C//DTD SVG 1.1//EN" "http://www.w3.org/Graphics/SVG/1.1/DTD/svg11.dtd">
<svg width="100%" height="100%" viewBox="0 0 3000 3000" version="1.1" xmlns="http://www.w3.org/2000/svg" xmlns:xlink="http://www.w3.org/1999/xlink" xml:space="preserve" xmlns:serif="http://www.serif.com/" style="fill-rule:evenodd;clip-rule:evenodd;stroke-linejoin:round;stroke-miterlimit:2;">
    <g id="face1" transform="matrix(4.8401,0,0,5.05135,16.6052,19.2555)">
        <g transform="matrix(1.03304,0,0,0.989835,-661.862,-635.327)">
            <rect x="637.375" y="638" width="600" height="600" style="fill:none;"/>
        </g>
        <g>
            <g transform="matrix(0.206607,0,0,0.197967,-3.43075,-3.81194)">
                <path d="M1316.13,1342C1321.43,1338.05 1322.01,1334.09 1316.13,1330.13C1287.83,1331.27 1264.22,1326.18 1252.88,1310C1211.37,1250.8 1259.27,1092.31 1250.94,994.812C1250.94,994.809 1250.94,994.806 1250.94,994.804C1245.01,925.435 1268.44,856.758 1315.53,805.475C1362.61,754.191 1429.04,725 1498.67,725C1499.55,725 1500.44,725 1501.33,725C1570.95,725 1637.38,754.191 1684.47,805.475C1731.56,856.758 1754.99,925.435 1749.06,994.804C1749.06,994.806 1749.06,994.809 1749.06,994.812C1740.72,1092.31 1788.63,1250.8 1747.12,1310C1735.77,1326.18 1712.17,1331.27 1683.87,1330.13C1678.1,1333.83 1677.34,1337.75 1683.87,1342C1716.61,1344.42 1744.37,1339.72 1757.16,1321.48C1800.36,1259.88 1750.51,1094.94 1759.18,993.477C1759.18,993.474 1759.18,993.471 1759.18,993.469C1765.35,921.279 1740.97,849.81 1691.97,796.441C1642.97,743.073 1573.84,712.695 1501.38,712.695C1500.46,712.695 1499.54,712.695 1498.61,712.695C1426.16,712.695 1357.03,743.073 1308.02,796.441C1259.02,849.81 1234.64,921.279 1240.81,993.469C1240.81,993.471 1240.81,993.474 1240.81,993.477C1249.49,1094.94 1199.63,1259.88 1242.83,1321.48C1255.62,1339.72 1283.38,1344.42 1316.13,1342Z" style="fill:rgb(67,61,57);"/>
            </g>
            <g transform="matrix(1.03304,0,0,0.989835,-3.50995,5.09657)">
                <path d="M349.888,189.961C351.074,176.087 346.388,162.352 336.971,152.095C327.553,141.838 314.267,136 300.343,136C300.165,136 299.987,136 299.81,136C285.886,136 272.599,141.838 263.182,152.095C253.764,162.352 249.079,176.087 250.265,189.961C250.265,189.961 250.265,189.962 250.265,189.962C251.931,209.462 242.351,241.16 250.653,253C258.954,264.84 300.076,247 300.076,247C300.076,247 341.198,264.84 349.5,253C357.802,241.16 348.221,209.462 349.888,189.962C349.888,189.962 349.888,189.961 349.888,189.961Z" style="fill:rgb(202,175,159);"/>
            </g>
        </g>
    </g>
</svg>
