<?xml version="1.0" encoding="UTF-8" standalone="no"?>
<!DOCTYPE svg PUBLIC "-//W3C//DTD SVG 1.1//EN" "http://www.w3.org/Graphics/SVG/1.1/DTD/svg11.dtd">
<svg width="100%" height="100%" viewBox="0 0 3000 3000" version="1.1" xmlns="http://www.w3.org/2000/svg" xmlns:xlink="http://www.w3.org/1999/xlink" xml:space="preserve" xmlns:serif="http://www.serif.com/" style="fill-rule:evenodd;clip-rule:evenodd;stroke-linejoin:round;stroke-miterlimit:2;">
    <g id="mouth0" transform="matrix(4.8401,0,0,5.05135,16.4563,19.2661)">
        <g transform="matrix(1.03304,0,0,0.989835,-661.832,-635.329)">
            <rect x="637.375" y="638" width="600" height="600" style="fill:none;"/>
        </g>
        <g transform="matrix(1.27741,0,0,1.07666,-78.3055,-26.986)">
            <ellipse cx="301.223" cy="227.28" rx="28.361" ry="17.382" style="fill:rgb(115,107,102);"/>
        </g>
        <g transform="matrix(1.03304,0,0,0.989835,-3.43075,-4.80178)">
            <path d="M266.478,219.337C286.867,242.831 316.385,242.483 332.675,217.917C332.675,217.917 325.741,207.333 300,207.31C274.259,207.288 266.478,219.337 266.478,219.337Z" style="fill:rgb(115,107,102);"/>
        </g>
        <g transform="matrix(0.477641,0,0,0.34731,162.604,129.073)">
            <ellipse cx="301.223" cy="227.28" rx="28.361" ry="17.382" style="fill:rgb(41,35,31);"/>
        </g>
        <g transform="matrix(-2.47825,2.91016e-16,-1.3097e-16,-0.989835,306.48,229.957)">
            <path d="M-10.353,10.091C-10.362,10.116 -10.361,10.153 -10.352,10.176C-10.343,10.2 -10.328,10.203 -10.317,10.184C-2.668,-3.089 5.114,0.698 10.33,10.192C10.341,10.212 10.356,10.21 10.365,10.187C10.375,10.164 10.376,10.128 10.368,10.102C5.81,-3.75 -5.301,-4.124 -10.353,10.091Z" style="fill:rgb(41,35,31);"/>
        </g>
    </g>
</svg>
