<?xml version="1.0" encoding="UTF-8" standalone="no"?>
<!DOCTYPE svg PUBLIC "-//W3C//DTD SVG 1.1//EN" "http://www.w3.org/Graphics/SVG/1.1/DTD/svg11.dtd">
<svg width="100%" height="100%" viewBox="0 0 3000 3000" version="1.1" xmlns="http://www.w3.org/2000/svg" xmlns:xlink="http://www.w3.org/1999/xlink" xml:space="preserve" xmlns:serif="http://www.serif.com/" style="fill-rule:evenodd;clip-rule:evenodd;stroke-linecap:round;stroke-linejoin:round;stroke-miterlimit:1.5;">
    <g id="mouth3" transform="matrix(4.8401,0,0,5.05135,16.6152,23.9685)">
        <g transform="matrix(1.03304,0,0,0.989835,-661.864,-636.26)">
            <rect x="637.375" y="638" width="600" height="600" style="fill:none;"/>
        </g>
        <g transform="matrix(1.27741,0,0,1.07666,-78.3055,-27.3665)">
            <path d="M301.223,209.898C316.876,209.898 328.248,215.022 329.584,224.522C331.253,236.393 318.681,247.126 301.223,244.663C285.724,242.476 272.862,234.116 272.862,224.522C272.862,214.929 285.57,209.898 301.223,209.898Z" style="fill:rgb(115,107,102);"/>
        </g>
        <g transform="matrix(0.477641,0,0,0.34731,162.604,126.691)">
            <path d="M301.223,209.898C316.876,209.898 329.584,217.687 329.584,227.28C329.584,233.018 323.611,235.053 316.61,238.219C311.904,240.348 307.515,244.663 301.223,244.663C295.78,244.663 290.158,240.429 285.838,238.797C277.734,235.736 272.862,233.538 272.862,227.28C272.862,217.687 285.57,209.898 301.223,209.898Z" style="fill:rgb(41,35,31);"/>
        </g>
        <g transform="matrix(1.02533,0.120645,-0.12591,0.982455,-1193.15,-203.092)">
            <path d="M1521.12,247.258C1512.66,263.222 1468.52,266.794 1465.06,245.165C1465.04,245.066 1465.08,244.966 1465.15,244.9C1465.23,244.834 1465.33,244.812 1465.43,244.841C1494.62,253.521 1522.67,227.989 1521.12,247.258Z" style="fill:rgb(41,35,31);"/>
        </g>
        <g transform="matrix(0.941784,0.110814,-0.11565,0.902398,-1070.97,-168.383)">
            <path d="M1522.87,247.111C1514.28,262.535 1469.98,267.056 1464.04,245.57C1464.03,245.514 1464.04,245.454 1464.08,245.414C1464.12,245.373 1464.19,245.359 1464.24,245.375C1493.51,254.197 1524.43,227.807 1522.87,247.111Z" style="fill:rgb(214,214,214);"/>
            <clipPath id="_clip1">
                <path d="M1522.87,247.111C1514.28,262.535 1469.98,267.056 1464.04,245.57C1464.03,245.514 1464.04,245.454 1464.08,245.414C1464.12,245.373 1464.19,245.359 1464.24,245.375C1493.51,254.197 1524.43,227.807 1522.87,247.111Z"/>
            </clipPath>
            <g clip-path="url(#_clip1)">
                <g transform="matrix(1.0806,-0.132697,0.132697,1.0806,-153.672,176.914)">
                    <path d="M1478.12,243.935C1483.45,244.447 1489.11,244.318 1495.03,243.921C1505.9,240.322 1526.74,228.787 1524.38,248.196C1521.17,249.207 1518.02,250.135 1514.92,250.94C1515.03,252.683 1513.8,253.957 1512.69,255.09C1512.05,253.922 1511.45,252.874 1510.88,251.927C1499.01,254.626 1488.12,255.191 1478.71,251.271C1478.16,252.187 1477.59,253.197 1476.97,254.317C1475.79,253.106 1474.46,251.733 1474.78,249.8L1474.92,249.399C1471.39,247.359 1468.09,244.578 1465.06,240.913C1469.04,242.527 1473.3,243.448 1477.81,243.903C1477.91,243.902 1478.02,243.912 1478.12,243.935Z" style="fill:rgb(229,229,229);stroke:rgb(41,35,31);stroke-width:0.8px;"/>
                </g>
            </g>
        </g>
        <g transform="matrix(0.295029,-0.365319,0.596591,0.442346,-279.307,673.904)">
            <path d="M1484.88,195.398C1484.87,195.385 1484.87,195.37 1484.89,195.36C1484.9,195.349 1484.93,195.346 1484.95,195.351C1490.88,196.787 1496.67,197.019 1502.25,195.655C1502.27,195.65 1502.29,195.653 1502.31,195.662C1502.32,195.671 1502.33,195.685 1502.32,195.698C1500.61,199.075 1487.77,199.205 1484.88,195.398Z" style="fill:rgb(41,35,31);"/>
        </g>
    </g>
</svg>
