<?xml version="1.0" encoding="UTF-8" standalone="no"?>
<!DOCTYPE svg PUBLIC "-//W3C//DTD SVG 1.1//EN" "http://www.w3.org/Graphics/SVG/1.1/DTD/svg11.dtd">
<svg width="100%" height="100%" viewBox="0 0 3000 3000" version="1.1" xmlns="http://www.w3.org/2000/svg" xmlns:xlink="http://www.w3.org/1999/xlink" xml:space="preserve" xmlns:serif="http://www.serif.com/" style="fill-rule:evenodd;clip-rule:evenodd;stroke-linecap:round;stroke-linejoin:round;stroke-miterlimit:1.5;">
    <g id="neck0" transform="matrix(4.8401,0,0,5.05135,16.5932,17.002)">
        <g transform="matrix(1.03304,0,0,0.989835,-661.86,-634.88)">
            <rect x="637.375" y="638" width="600" height="600" style="fill:none;"/>
        </g>
        <g transform="matrix(1.03304,0,0,0.989835,-3.43075,-5.79161)">
            <path d="M300.453,297.52C303.845,297.52 306.599,300.274 306.599,303.666C306.599,307.059 303.845,309.813 300.453,309.813C297.061,309.813 294.307,307.059 294.307,303.666C294.307,300.274 297.061,297.52 300.453,297.52ZM300.453,300.603C302.144,300.603 303.516,301.976 303.516,303.666C303.516,305.357 302.144,306.729 300.453,306.729C298.763,306.729 297.39,305.357 297.39,303.666C297.39,301.976 298.763,300.603 300.453,300.603Z" style="fill:rgb(197,151,96);stroke:rgb(67,61,57);stroke-width:2.33px;"/>
        </g>
        <g transform="matrix(1.03304,0,0,0.989835,-0.939126,-5.79161)">
            <circle cx="298.275" cy="314.972" r="10.422" style="fill:rgb(197,151,96);stroke:rgb(67,61,57);stroke-width:2.33px;"/>
        </g>
        <g transform="matrix(0.581083,0,0,0.556782,133.867,130.608)">
            <circle cx="298.275" cy="314.972" r="10.422" style="fill:rgb(163,120,68);"/>
            <clipPath id="_clip1">
                <circle cx="298.275" cy="314.972" r="10.422"/>
            </clipPath>
            <g clip-path="url(#_clip1)">
                <g transform="matrix(1,0,0,1,1.23526,1.23526)">
                    <circle cx="298.275" cy="314.972" r="10.422" style="fill:rgb(192,138,76);"/>
                </g>
            </g>
        </g>
        <g transform="matrix(1.03304,0,0,0.989835,-3.43075,-4.80178)">
            <path d="M246.984,265.334C282.537,293.286 318.09,293.575 353.643,265.546C356.179,269.929 357.637,274.311 357.46,278.693C327.979,307.667 278.867,312.344 242.531,278.693C242.853,273.078 244.399,268.687 246.984,265.334Z" style="fill:rgb(41,35,31);stroke:rgb(67,61,57);stroke-width:2.33px;"/>
        </g>
        <g transform="matrix(1.03304,0,0,0.989835,-3.43075,-4.80178)">
            <path d="M296.286,291.164C297.597,291.164 298.661,292.229 298.661,293.539C298.661,294.85 297.597,295.914 296.286,295.914C294.975,295.914 293.911,294.85 293.911,293.539C293.911,292.229 294.975,291.164 296.286,291.164ZM306.193,291.164C307.503,291.164 308.568,292.229 308.568,293.539C308.568,294.85 307.503,295.914 306.193,295.914C304.882,295.914 303.818,294.85 303.818,293.539C303.818,292.229 304.882,291.164 306.193,291.164ZM316.099,290.35C317.41,290.35 318.474,291.414 318.474,292.725C318.474,294.036 317.41,295.1 316.099,295.1C314.789,295.1 313.725,294.036 313.725,292.725C313.725,291.414 314.789,290.35 316.099,290.35ZM287.465,290.079C288.775,290.079 289.84,291.143 289.84,292.454C289.84,293.764 288.775,294.829 287.465,294.829C286.154,294.829 285.09,293.764 285.09,292.454C285.09,291.143 286.154,290.079 287.465,290.079ZM277.151,287.365C278.462,287.365 279.526,288.429 279.526,289.74C279.526,291.05 278.462,292.114 277.151,292.114C275.84,292.114 274.776,291.05 274.776,289.74C274.776,288.429 275.84,287.365 277.151,287.365ZM325.192,287.229C326.503,287.229 327.567,288.293 327.567,289.604C327.567,290.915 326.503,291.979 325.192,291.979C323.881,291.979 322.817,290.915 322.817,289.604C322.817,288.293 323.881,287.229 325.192,287.229ZM268.465,283.836C269.776,283.836 270.84,284.9 270.84,286.211C270.84,287.522 269.776,288.586 268.465,288.586C267.155,288.586 266.091,287.522 266.091,286.211C266.091,284.9 267.155,283.836 268.465,283.836ZM333.335,283.7C334.645,283.7 335.709,284.765 335.709,286.075C335.709,287.386 334.645,288.45 333.335,288.45C332.024,288.45 330.96,287.386 330.96,286.075C330.96,284.765 332.024,283.7 333.335,283.7ZM341.477,279.765C342.788,279.765 343.852,280.829 343.852,282.14C343.852,283.451 342.788,284.515 341.477,284.515C340.166,284.515 339.102,283.451 339.102,282.14C339.102,280.829 340.166,279.765 341.477,279.765ZM259.373,279.358C260.684,279.358 261.748,280.422 261.748,281.733C261.748,283.043 260.684,284.108 259.373,284.108C258.062,284.108 256.998,283.043 256.998,281.733C256.998,280.422 258.062,279.358 259.373,279.358ZM347.448,275.829C348.759,275.829 349.823,276.893 349.823,278.204C349.823,279.515 348.759,280.579 347.448,280.579C346.138,280.579 345.073,279.515 345.073,278.204C345.073,276.893 346.138,275.829 347.448,275.829ZM252.045,274.608C253.355,274.608 254.42,275.672 254.42,276.983C254.42,278.294 253.355,279.358 252.045,279.358C250.734,279.358 249.67,278.294 249.67,276.983C249.67,275.672 250.734,274.608 252.045,274.608Z" style="fill:rgb(202,175,159);stroke:rgb(67,61,57);stroke-width:2.33px;"/>
        </g>
    </g>
</svg>
