<?xml version="1.0" encoding="UTF-8" standalone="no"?>
<!DOCTYPE svg PUBLIC "-//W3C//DTD SVG 1.1//EN" "http://www.w3.org/Graphics/SVG/1.1/DTD/svg11.dtd">
<svg width="100%" height="100%" viewBox="0 0 3000 3000" version="1.1" xmlns="http://www.w3.org/2000/svg" xmlns:xlink="http://www.w3.org/1999/xlink" xml:space="preserve" xmlns:serif="http://www.serif.com/" style="fill-rule:evenodd;clip-rule:evenodd;stroke-linecap:round;stroke-linejoin:round;stroke-miterlimit:1.5;">
    <g id="neck3" transform="matrix(4.8401,0,0,5.05135,15.4,23.2573)">
        <g transform="matrix(1.03304,0,0,0.989835,-661.613,-636.119)">
            <rect x="637.375" y="638" width="600" height="600" style="fill:none;"/>
        </g>
        <g transform="matrix(1.03304,0,0,0.989835,-3.43075,-4.80178)">
            <path d="M246.984,265.334C282.084,289.21 317.608,289.236 353.643,265.546C356.179,269.929 357.637,274.311 357.46,278.693C328.348,310.251 279.229,314.873 242.531,278.693C242.853,273.078 244.399,268.687 246.984,265.334Z" style="fill:none;stroke:rgb(67,61,57);stroke-width:2.33px;"/>
            <path d="M246.984,265.334C282.084,289.21 317.608,289.236 353.643,265.546C356.179,269.929 357.637,274.311 357.46,278.693C328.348,310.251 279.229,314.873 242.531,278.693C242.853,273.078 244.399,268.687 246.984,265.334Z" style="fill:rgb(41,35,31);"/>
        </g>
        <g transform="matrix(1.03304,0,0,0.989835,-1652.65,-4.29965)">
            <ellipse cx="1898.49" cy="293.739" rx="5.189" ry="4.979" style="fill:none;stroke:rgb(67,61,57);stroke-width:2.33px;"/>
            <ellipse cx="1898.49" cy="293.739" rx="5.189" ry="4.979" style="fill:rgb(206,206,206);"/>
        </g>
        <g transform="matrix(-0.980899,0.31049,-0.324041,-0.939877,2318.54,-32.6985)">
            <path d="M1932.71,295.88L1937.06,301.382C1935.77,306.109 1929.48,305.926 1928.5,301.382L1932.71,295.88Z" style="fill:none;stroke:rgb(67,61,57);stroke-width:2.33px;"/>
            <path d="M1932.71,295.88L1937.06,301.382C1935.77,306.109 1929.48,305.926 1928.5,301.382L1932.71,295.88Z" style="fill:rgb(206,206,206);"/>
        </g>
        <g transform="matrix(-0.932793,0.425352,-0.443917,-0.893783,2275.81,-272.385)">
            <path d="M1931.3,294.494L1937.06,301.382C1935.77,306.109 1929.48,305.926 1928.5,301.382L1931.3,294.494Z" style="fill:none;stroke:rgb(67,61,57);stroke-width:2.33px;"/>
            <path d="M1931.3,294.494L1937.06,301.382C1935.77,306.109 1929.48,305.926 1928.5,301.382L1931.3,294.494Z" style="fill:rgb(206,206,206);"/>
        </g>
        <g transform="matrix(-0.747407,0.683302,-0.713125,-0.71615,2010.53,-831.408)">
            <path d="M1930.67,293.541L1937.06,301.382C1935.77,306.109 1929.48,305.926 1928.5,301.382L1930.67,293.541Z" style="fill:none;stroke:rgb(67,61,57);stroke-width:2.33px;"/>
            <path d="M1930.67,293.541L1937.06,301.382C1935.77,306.109 1929.48,305.926 1928.5,301.382L1930.67,293.541Z" style="fill:rgb(206,206,206);"/>
        </g>
        <g transform="matrix(-0.747407,0.683302,-0.713125,-0.71615,2020.02,-838.586)">
            <path d="M1930.31,293.296L1937.06,301.382C1935.77,306.109 1929.48,305.926 1928.5,301.382L1930.31,293.296Z" style="fill:none;stroke:rgb(67,61,57);stroke-width:2.33px;"/>
            <path d="M1930.31,293.296L1937.06,301.382C1935.77,306.109 1929.48,305.926 1928.5,301.382L1930.31,293.296Z" style="fill:rgb(206,206,206);"/>
        </g>
        <g transform="matrix(0.980899,0.31049,0.324041,-0.939877,-1703.65,-32.6985)">
            <path d="M1932.71,295.88L1937.06,301.382C1935.77,306.109 1929.48,305.926 1928.5,301.382L1932.71,295.88Z" style="fill:none;stroke:rgb(67,61,57);stroke-width:2.33px;"/>
            <path d="M1932.71,295.88L1937.06,301.382C1935.77,306.109 1929.48,305.926 1928.5,301.382L1932.71,295.88Z" style="fill:rgb(206,206,206);"/>
        </g>
        <g transform="matrix(0.932793,0.425352,0.443917,-0.893783,-1660.93,-272.385)">
            <path d="M1931.3,294.494L1937.06,301.382C1935.77,306.109 1929.48,305.926 1928.5,301.382L1931.3,294.494Z" style="fill:none;stroke:rgb(67,61,57);stroke-width:2.33px;"/>
            <path d="M1931.3,294.494L1937.06,301.382C1935.77,306.109 1929.48,305.926 1928.5,301.382L1931.3,294.494Z" style="fill:rgb(206,206,206);"/>
        </g>
        <g transform="matrix(0.747407,0.683302,0.713125,-0.71615,-1395.64,-831.408)">
            <path d="M1930.67,293.541L1937.06,301.382C1935.77,306.109 1929.48,305.926 1928.5,301.382L1930.67,293.541Z" style="fill:none;stroke:rgb(67,61,57);stroke-width:2.33px;"/>
            <path d="M1930.67,293.541L1937.06,301.382C1935.77,306.109 1929.48,305.926 1928.5,301.382L1930.67,293.541Z" style="fill:rgb(206,206,206);"/>
        </g>
        <g transform="matrix(0.747407,0.683302,0.713125,-0.71615,-1405.14,-838.586)">
            <path d="M1930.31,293.296L1937.06,301.382C1935.77,306.109 1929.48,305.926 1928.5,301.382L1930.31,293.296Z" style="fill:none;stroke:rgb(67,61,57);stroke-width:2.33px;"/>
            <path d="M1930.31,293.296L1937.06,301.382C1935.77,306.109 1929.48,305.926 1928.5,301.382L1930.31,293.296Z" style="fill:rgb(206,206,206);"/>
        </g>
    </g>
</svg>
