<?xml version="1.0" encoding="UTF-8" standalone="no"?>
<!DOCTYPE svg PUBLIC "-//W3C//DTD SVG 1.1//EN" "http://www.w3.org/Graphics/SVG/1.1/DTD/svg11.dtd">
<svg width="100%" height="100%" viewBox="0 0 3000 3000" version="1.1" xmlns="http://www.w3.org/2000/svg" xmlns:xlink="http://www.w3.org/1999/xlink" xml:space="preserve" xmlns:serif="http://www.serif.com/" style="fill-rule:evenodd;clip-rule:evenodd;stroke-linecap:round;stroke-linejoin:round;stroke-miterlimit:1.5;">
    <g id="neck2" transform="matrix(4.8401,0,0,5.05135,16.6562,22.366)">
        <g transform="matrix(1.03304,6.86836e-18,-7.16813e-18,0.989835,-661.873,-635.942)">
            <rect x="637.375" y="638" width="600" height="600" style="fill:none;"/>
        </g>
        <g transform="matrix(0.999003,-0.0427655,0.0465801,0.999003,-9.24052,13.2477)">
            <g transform="matrix(0.601338,0.343186,-0.528627,0.850418,-759.698,-588.289)">
                <path d="M1936.91,237.114C1936.91,235.547 1935.64,234.274 1934.07,234.274L1912.62,234.274C1911.05,234.274 1909.78,235.547 1909.78,237.114L1909.78,242.794C1909.78,244.361 1911.05,245.634 1912.62,245.634L1934.07,245.634C1935.64,245.634 1936.91,244.361 1936.91,242.794L1936.91,237.114ZM1931.44,239.066C1931.44,238.566 1931.04,238.16 1930.54,238.16L1916.45,238.124C1915.95,238.124 1915.54,238.53 1915.54,239.03L1915.54,240.842C1915.54,241.342 1915.95,241.748 1916.45,241.748L1930.54,241.783C1931.04,241.783 1931.44,241.377 1931.44,240.877L1931.44,239.066Z" style="fill:none;stroke:rgb(41,35,31);stroke-width:2.73px;"/>
                <path d="M1936.91,237.114C1936.91,235.547 1935.64,234.274 1934.07,234.274L1912.62,234.274C1911.05,234.274 1909.78,235.547 1909.78,237.114L1909.78,242.794C1909.78,244.361 1911.05,245.634 1912.62,245.634L1934.07,245.634C1935.64,245.634 1936.91,244.361 1936.91,242.794L1936.91,237.114ZM1931.44,239.066C1931.44,238.566 1931.04,238.16 1930.54,238.16L1916.45,238.124C1915.95,238.124 1915.54,238.53 1915.54,239.03L1915.54,240.842C1915.54,241.342 1915.95,241.748 1916.45,241.748L1930.54,241.783C1931.04,241.783 1931.44,241.377 1931.44,240.877L1931.44,239.066Z" style="fill:rgb(221,156,73);"/>
            </g>
            <g transform="matrix(0.54952,0.415365,-0.639808,0.777136,-652.098,-722.173)">
                <path d="M1936.91,237.114C1936.91,235.547 1935.64,234.274 1934.07,234.274L1912.62,234.274C1911.05,234.274 1909.78,235.547 1909.78,237.114L1909.78,242.794C1909.78,244.361 1911.05,245.634 1912.62,245.634L1934.07,245.634C1935.64,245.634 1936.91,244.361 1936.91,242.794L1936.91,237.114ZM1931.44,239.066C1931.44,238.566 1931.04,238.16 1930.54,238.16L1916.45,238.124C1915.95,238.124 1915.54,238.53 1915.54,239.03L1915.54,240.842C1915.54,241.342 1915.95,241.748 1916.45,241.748L1930.54,241.783C1931.04,241.783 1931.44,241.377 1931.44,240.877L1931.44,239.066Z" style="fill:none;stroke:rgb(41,35,31);stroke-width:2.73px;"/>
                <path d="M1936.91,237.114C1936.91,235.547 1935.64,234.274 1934.07,234.274L1912.62,234.274C1911.05,234.274 1909.78,235.547 1909.78,237.114L1909.78,242.794C1909.78,244.361 1911.05,245.634 1912.62,245.634L1934.07,245.634C1935.64,245.634 1936.91,244.361 1936.91,242.794L1936.91,237.114ZM1931.44,239.066C1931.44,238.566 1931.04,238.16 1930.54,238.16L1916.45,238.124C1915.95,238.124 1915.54,238.53 1915.54,239.03L1915.54,240.842C1915.54,241.342 1915.95,241.748 1916.45,241.748L1930.54,241.783C1931.04,241.783 1931.44,241.377 1931.44,240.877L1931.44,239.066Z" style="fill:rgb(221,156,73);"/>
            </g>
            <g transform="matrix(0.776134,0.553427,-0.616729,0.794082,-1107.98,-988.36)">
                <path d="M1952.12,227.833C1952.12,227.301 1951.65,226.868 1951.09,226.868L1939.08,226.868C1938.52,226.868 1938.05,227.301 1938.05,227.833L1938.05,229.763C1938.05,230.296 1938.52,230.728 1939.08,230.728L1951.09,230.728C1951.65,230.728 1952.12,230.296 1952.12,229.763L1952.12,227.833Z" style="fill:none;stroke:rgb(41,35,31);stroke-width:2.41px;"/>
                <path d="M1952.12,227.833C1952.12,227.301 1951.65,226.868 1951.09,226.868L1939.08,226.868C1938.52,226.868 1938.05,227.301 1938.05,227.833L1938.05,229.763C1938.05,230.296 1938.52,230.728 1939.08,230.728L1951.09,230.728C1951.65,230.728 1952.12,230.296 1952.12,229.763L1952.12,227.833Z" style="fill:rgb(234,187,127);"/>
            </g>
            <g transform="matrix(0.699908,0.00393863,-0.00606687,0.989818,-1030.27,38.9033)">
                <path d="M1936.91,237.114C1936.91,235.547 1935.64,234.274 1934.07,234.274L1912.62,234.274C1911.05,234.274 1909.78,235.547 1909.78,237.114L1909.78,242.794C1909.78,244.361 1911.05,245.634 1912.62,245.634L1934.07,245.634C1935.64,245.634 1936.91,244.361 1936.91,242.794L1936.91,237.114ZM1931.44,239.066C1931.44,238.566 1931.04,238.16 1930.54,238.16L1916.45,238.124C1915.95,238.124 1915.54,238.53 1915.54,239.03L1915.54,240.842C1915.54,241.342 1915.95,241.748 1916.45,241.748L1930.54,241.783C1931.04,241.783 1931.44,241.377 1931.44,240.877L1931.44,239.066Z" style="fill:none;stroke:rgb(41,35,31);stroke-width:2.73px;"/>
                <path d="M1936.91,237.114C1936.91,235.547 1935.64,234.274 1934.07,234.274L1912.62,234.274C1911.05,234.274 1909.78,235.547 1909.78,237.114L1909.78,242.794C1909.78,244.361 1911.05,245.634 1912.62,245.634L1934.07,245.634C1935.64,245.634 1936.91,244.361 1936.91,242.794L1936.91,237.114ZM1931.44,239.066C1931.44,238.566 1931.04,238.16 1930.54,238.16L1916.45,238.124C1915.95,238.124 1915.54,238.53 1915.54,239.03L1915.54,240.842C1915.54,241.342 1915.95,241.748 1916.45,241.748L1930.54,241.783C1931.04,241.783 1931.44,241.377 1931.44,240.877L1931.44,239.066Z" style="fill:rgb(221,156,73);"/>
            </g>
            <g transform="matrix(0.693401,0.0913236,-0.140671,0.980615,-1008.3,-128.761)">
                <path d="M1936.91,237.114C1936.91,235.547 1935.64,234.274 1934.07,234.274L1912.62,234.274C1911.05,234.274 1909.78,235.547 1909.78,237.114L1909.78,242.794C1909.78,244.361 1911.05,245.634 1912.62,245.634L1934.07,245.634C1935.64,245.634 1936.91,244.361 1936.91,242.794L1936.91,237.114ZM1931.44,239.066C1931.44,238.566 1931.04,238.16 1930.54,238.16L1916.45,238.124C1915.95,238.124 1915.54,238.53 1915.54,239.03L1915.54,240.842C1915.54,241.342 1915.95,241.748 1916.45,241.748L1930.54,241.783C1931.04,241.783 1931.44,241.377 1931.44,240.877L1931.44,239.066Z" style="fill:none;stroke:rgb(41,35,31);stroke-width:2.73px;"/>
                <path d="M1936.91,237.114C1936.91,235.547 1935.64,234.274 1934.07,234.274L1912.62,234.274C1911.05,234.274 1909.78,235.547 1909.78,237.114L1909.78,242.794C1909.78,244.361 1911.05,245.634 1912.62,245.634L1934.07,245.634C1935.64,245.634 1936.91,244.361 1936.91,242.794L1936.91,237.114ZM1931.44,239.066C1931.44,238.566 1931.04,238.16 1930.54,238.16L1916.45,238.124C1915.95,238.124 1915.54,238.53 1915.54,239.03L1915.54,240.842C1915.54,241.342 1915.95,241.748 1916.45,241.748L1930.54,241.783C1931.04,241.783 1931.44,241.377 1931.44,240.877L1931.44,239.066Z" style="fill:rgb(221,156,73);"/>
            </g>
            <g transform="matrix(0.961779,0.100336,-0.111813,0.98402,-1542.08,-136.932)">
                <path d="M1952.12,227.833C1952.12,227.301 1951.65,226.868 1951.09,226.868L1939.08,226.868C1938.52,226.868 1938.05,227.301 1938.05,227.833L1938.05,229.763C1938.05,230.296 1938.52,230.728 1939.08,230.728L1951.09,230.728C1951.65,230.728 1952.12,230.296 1952.12,229.763L1952.12,227.833Z" style="fill:none;stroke:rgb(41,35,31);stroke-width:2.41px;"/>
                <path d="M1952.12,227.833C1952.12,227.301 1951.65,226.868 1951.09,226.868L1939.08,226.868C1938.52,226.868 1938.05,227.301 1938.05,227.833L1938.05,229.763C1938.05,230.296 1938.52,230.728 1939.08,230.728L1951.09,230.728C1951.65,230.728 1952.12,230.296 1952.12,229.763L1952.12,227.833Z" style="fill:rgb(234,187,127);"/>
            </g>
            <g transform="matrix(0.935519,0.236244,-0.263267,0.957152,-1479.64,-398.625)">
                <path d="M1952.12,227.833C1952.12,227.301 1951.65,226.868 1951.09,226.868L1939.08,226.868C1938.52,226.868 1938.05,227.301 1938.05,227.833L1938.05,229.763C1938.05,230.296 1938.52,230.728 1939.08,230.728L1951.09,230.728C1951.65,230.728 1952.12,230.296 1952.12,229.763L1952.12,227.833Z" style="fill:none;stroke:rgb(41,35,31);stroke-width:2.41px;"/>
                <path d="M1952.12,227.833C1952.12,227.301 1951.65,226.868 1951.09,226.868L1939.08,226.868C1938.52,226.868 1938.05,227.301 1938.05,227.833L1938.05,229.763C1938.05,230.296 1938.52,230.728 1939.08,230.728L1951.09,230.728C1951.65,230.728 1952.12,230.296 1952.12,229.763L1952.12,227.833Z" style="fill:rgb(234,187,127);"/>
            </g>
            <g transform="matrix(0.583248,-0.370743,0.571075,0.824835,-903.275,782.089)">
                <path d="M1936.91,237.114C1936.91,235.547 1935.64,234.274 1934.07,234.274L1912.62,234.274C1911.05,234.274 1909.78,235.547 1909.78,237.114L1909.78,242.794C1909.78,244.361 1911.05,245.634 1912.62,245.634L1934.07,245.634C1935.64,245.634 1936.91,244.361 1936.91,242.794L1936.91,237.114ZM1931.44,239.066C1931.44,238.566 1931.04,238.16 1930.54,238.16L1916.45,238.124C1915.95,238.124 1915.54,238.53 1915.54,239.03L1915.54,240.842C1915.54,241.342 1915.95,241.748 1916.45,241.748L1930.54,241.783C1931.04,241.783 1931.44,241.377 1931.44,240.877L1931.44,239.066Z" style="fill:none;stroke:rgb(41,35,31);stroke-width:2.73px;"/>
                <path d="M1936.91,237.114C1936.91,235.547 1935.64,234.274 1934.07,234.274L1912.62,234.274C1911.05,234.274 1909.78,235.547 1909.78,237.114L1909.78,242.794C1909.78,244.361 1911.05,245.634 1912.62,245.634L1934.07,245.634C1935.64,245.634 1936.91,244.361 1936.91,242.794L1936.91,237.114ZM1931.44,239.066C1931.44,238.566 1931.04,238.16 1930.54,238.16L1916.45,238.124C1915.95,238.124 1915.54,238.53 1915.54,239.03L1915.54,240.842C1915.54,241.342 1915.95,241.748 1916.45,241.748L1930.54,241.783C1931.04,241.783 1931.44,241.377 1931.44,240.877L1931.44,239.066Z" style="fill:rgb(221,156,73);"/>
            </g>
            <g transform="matrix(0.628708,-0.294732,0.453991,0.889125,-982.625,631.18)">
                <path d="M1936.91,237.114C1936.91,235.547 1935.64,234.274 1934.07,234.274L1912.62,234.274C1911.05,234.274 1909.78,235.547 1909.78,237.114L1909.78,242.794C1909.78,244.361 1911.05,245.634 1912.62,245.634L1934.07,245.634C1935.64,245.634 1936.91,244.361 1936.91,242.794L1936.91,237.114ZM1931.44,239.066C1931.44,238.566 1931.04,238.16 1930.54,238.16L1916.45,238.124C1915.95,238.124 1915.54,238.53 1915.54,239.03L1915.54,240.842C1915.54,241.342 1915.95,241.748 1916.45,241.748L1930.54,241.783C1931.04,241.783 1931.44,241.377 1931.44,240.877L1931.44,239.066Z" style="fill:none;stroke:rgb(41,35,31);stroke-width:2.73px;"/>
                <path d="M1936.91,237.114C1936.91,235.547 1935.64,234.274 1934.07,234.274L1912.62,234.274C1911.05,234.274 1909.78,235.547 1909.78,237.114L1909.78,242.794C1909.78,244.361 1911.05,245.634 1912.62,245.634L1934.07,245.634C1935.64,245.634 1936.91,244.361 1936.91,242.794L1936.91,237.114ZM1931.44,239.066C1931.44,238.566 1931.04,238.16 1930.54,238.16L1916.45,238.124C1915.95,238.124 1915.54,238.53 1915.54,239.03L1915.54,240.842C1915.54,241.342 1915.95,241.748 1916.45,241.748L1930.54,241.783C1931.04,241.783 1931.44,241.377 1931.44,240.877L1931.44,239.066Z" style="fill:rgb(221,156,73);"/>
            </g>
            <g transform="matrix(0.85672,-0.430665,0.479926,0.876531,-1430.45,909.638)">
                <path d="M1952.12,227.833C1952.12,227.301 1951.65,226.868 1951.09,226.868L1939.08,226.868C1938.52,226.868 1938.05,227.301 1938.05,227.833L1938.05,229.763C1938.05,230.296 1938.52,230.728 1939.08,230.728L1951.09,230.728C1951.65,230.728 1952.12,230.296 1952.12,229.763L1952.12,227.833Z" style="fill:none;stroke:rgb(41,35,31);stroke-width:2.41px;"/>
                <path d="M1952.12,227.833C1952.12,227.301 1951.65,226.868 1951.09,226.868L1939.08,226.868C1938.52,226.868 1938.05,227.301 1938.05,227.833L1938.05,229.763C1938.05,230.296 1938.52,230.728 1939.08,230.728L1951.09,230.728C1951.65,230.728 1952.12,230.296 1952.12,229.763L1952.12,227.833Z" style="fill:rgb(234,187,127);"/>
            </g>
            <g transform="matrix(0.914026,-0.303822,0.338575,0.935162,-1530.93,659.055)">
                <path d="M1952.12,227.833C1952.12,227.301 1951.65,226.868 1951.09,226.868L1939.08,226.868C1938.52,226.868 1938.05,227.301 1938.05,227.833L1938.05,229.763C1938.05,230.296 1938.52,230.728 1939.08,230.728L1951.09,230.728C1951.65,230.728 1952.12,230.296 1952.12,229.763L1952.12,227.833Z" style="fill:none;stroke:rgb(41,35,31);stroke-width:2.41px;"/>
                <path d="M1952.12,227.833C1952.12,227.301 1951.65,226.868 1951.09,226.868L1939.08,226.868C1938.52,226.868 1938.05,227.301 1938.05,227.833L1938.05,229.763C1938.05,230.296 1938.52,230.728 1939.08,230.728L1951.09,230.728C1951.65,230.728 1952.12,230.296 1952.12,229.763L1952.12,227.833Z" style="fill:rgb(234,187,127);"/>
            </g>
        </g>
    </g>
</svg>
