<?xml version="1.0" encoding="UTF-8" standalone="no"?>
<!DOCTYPE svg PUBLIC "-//W3C//DTD SVG 1.1//EN" "http://www.w3.org/Graphics/SVG/1.1/DTD/svg11.dtd">
<svg width="100%" height="100%" viewBox="0 0 3000 3000" version="1.1" xmlns="http://www.w3.org/2000/svg" xmlns:xlink="http://www.w3.org/1999/xlink" xml:space="preserve" xmlns:serif="http://www.serif.com/" style="fill-rule:evenodd;clip-rule:evenodd;stroke-linecap:round;stroke-linejoin:round;stroke-miterlimit:1.5;">
    <g id="neck1" transform="matrix(4.8401,0,0,5.05135,17.29,21.3554)">
        <g transform="matrix(1.03304,0,0,0.989835,-662.004,-635.742)">
            <rect x="637.375" y="638" width="600" height="600" style="fill:none;"/>
        </g>
        <g transform="matrix(0.587383,-0.706509,0.720687,0.550104,-945.944,1480.33)">
            <path d="M1834.65,114.133C1846.52,123.378 1852.94,133.758 1854.12,145.228C1854.15,145.559 1854.1,145.894 1853.96,146.195C1847.67,159.767 1840.27,161.199 1831.4,146.605C1831.08,146.072 1831.04,145.408 1831.31,144.844C1835.97,134.884 1836.79,124.624 1834.65,114.133Z" style="fill:rgb(174,213,238);stroke:rgb(67,61,57);stroke-width:2.59px;"/>
        </g>
        <g transform="matrix(0.143623,-0.980222,1.023,0.137617,-176.332,2049.88)">
            <path d="M1834.65,114.133C1846.55,123.396 1852.97,133.799 1854.13,145.294C1854.16,145.583 1854.11,145.874 1853.99,146.137C1847.68,159.796 1840.25,161.227 1831.33,146.497C1831.05,146.028 1831.02,145.449 1831.26,144.954C1835.97,134.96 1836.8,124.662 1834.65,114.133Z" style="fill:rgb(89,160,204);stroke:rgb(67,61,57);stroke-width:2.33px;"/>
        </g>
        <g transform="matrix(1.03304,0,0,0.989835,-3.43075,-4.80178)">
            <path d="M246.984,265.334C282.537,293.286 318.09,293.575 353.643,265.546C356.179,269.929 357.637,274.311 357.46,278.693C349.156,299.067 300.763,341.224 300.763,341.224C300.763,341.224 252.724,299.882 242.531,278.693C242.853,273.078 244.399,268.687 246.984,265.334Z" style="fill:rgb(89,160,204);"/>
            <clipPath id="_clip1">
                <path d="M246.984,265.334C282.537,293.286 318.09,293.575 353.643,265.546C356.179,269.929 357.637,274.311 357.46,278.693C349.156,299.067 300.763,341.224 300.763,341.224C300.763,341.224 252.724,299.882 242.531,278.693C242.853,273.078 244.399,268.687 246.984,265.334Z"/>
            </clipPath>
            <g clip-path="url(#_clip1)">
                <g transform="matrix(1,0,0,1,0.8098,-1.36724)">
                    <path d="M243.434,285.311C246.183,282.618 250.165,276.812 251.68,277.233C253.195,277.654 250.839,286.237 252.521,287.835C254.204,289.434 260.319,288.088 261.777,286.826C263.236,285.563 262.086,281.02 261.273,280.262C260.459,279.505 258.356,281.609 256.897,282.282" style="fill:none;stroke:white;stroke-width:0.25px;"/>
                </g>
                <g transform="matrix(1,0,0,1,0.8098,-1.36724)">
                    <path d="M259.085,308.535C258.86,304.44 256.757,298.269 258.412,296.25C260.066,294.23 267.415,295.352 269.014,296.418C270.613,297.484 267.471,300.906 268.004,302.645C268.537,304.384 270.921,306.852 272.211,306.852C273.502,306.852 275.381,304.103 275.746,302.645C276.11,301.186 275.016,298.55 274.399,298.101C273.782,297.652 272.828,299.335 272.043,299.952" style="fill:none;stroke:white;stroke-width:0.25px;"/>
                </g>
                <g transform="matrix(1,0,0,1,0.8098,-1.36724)">
                    <path d="M274.399,278.916C273.277,282.226 270.529,286.826 271.033,288.845C271.538,290.865 275.942,291.369 277.428,291.033C278.915,290.696 278.971,287.078 279.953,286.826C280.934,286.573 282.814,288.2 283.319,289.518C283.823,290.836 283.711,293.838 282.982,294.735C282.253,295.633 280.289,294.847 278.943,294.903" style="fill:none;stroke:white;stroke-width:0.25px;"/>
                </g>
                <g transform="matrix(1,0,0,1,0.8098,-1.36724)">
                    <path d="M273.221,323.681C274.511,319.586 275.717,313.303 277.092,311.396C277.96,310.191 280.39,311.215 281.467,312.237C282.561,313.275 283.908,316.304 283.655,317.623C283.403,318.941 280.682,318.885 279.953,320.147C279.224,321.409 278.522,324.579 279.28,325.196C280.037,325.813 283.515,324.635 284.497,323.849C285.39,323.135 284.945,321.606 285.17,320.484" style="fill:none;stroke:white;stroke-width:0.25px;"/>
                </g>
                <g transform="matrix(1,0,0,1,0.8098,-1.36724)">
                    <path d="M306.879,282.787C309.123,286.265 313.471,290.696 313.611,293.221C313.75,295.731 309.964,296.951 307.721,297.933C305.477,298.914 301.578,299.924 300.148,299.111C298.717,298.297 298.913,294.707 299.138,293.052C299.341,291.556 300.4,289.602 301.494,289.182C302.588,288.761 305.112,289.658 305.701,290.528C306.29,291.397 305.252,293.108 305.028,294.399" style="fill:none;stroke:white;stroke-width:0.25px;"/>
                </g>
                <g transform="matrix(1,0,0,1,0.8098,-1.36724)">
                    <path d="M319.333,326.71C319.613,321.83 321.268,314.65 320.174,312.069C319.205,309.782 315.231,310.891 312.769,311.228C310.105,311.592 305.617,312.574 304.187,314.257C302.756,315.94 303.485,319.53 304.187,321.325C304.866,323.065 306.851,324.607 308.394,325.027C309.936,325.448 312.433,324.887 313.442,323.849C314.452,322.812 314.312,320.119 314.452,318.801C314.553,317.851 315.218,316.14 314.284,315.94C313.106,315.687 309.684,316.837 307.384,317.286" style="fill:none;stroke:white;stroke-width:0.25px;"/>
                </g>
                <g transform="matrix(1,0,0,1,0.8098,-1.36724)">
                    <path d="M343.398,306.179C342.837,302.477 343.062,296.867 341.715,295.072C340.434,293.364 337.213,294.421 335.32,295.408C332.74,296.755 327.551,301.158 326.233,303.15C325.429,304.364 326.569,306.431 327.411,307.357C328.252,308.283 329.921,308.834 331.281,308.703C332.74,308.563 335.32,307.722 336.162,306.516C337.003,305.309 336.947,302.14 336.33,301.467C335.713,300.794 333.749,302.14 332.459,302.477" style="fill:none;stroke:white;stroke-width:0.25px;"/>
                </g>
                <g transform="matrix(1,0,0,1,0.8098,-1.36724)">
                    <path d="M331.954,298.438C330.271,297.596 328.224,297.203 326.906,295.913C325.587,294.623 323.961,292.463 324.045,290.696C324.129,288.929 326.036,286.377 327.411,285.311C328.723,284.293 330.608,283.628 332.291,284.301C333.974,284.974 335.292,285.872 335.825,286.826C336.348,287.761 336.083,289.131 335.488,290.023C334.815,291.033 333.02,291.93 331.786,292.884" style="fill:none;stroke:white;stroke-width:0.25px;"/>
                </g>
                <g transform="matrix(1,0,0,1,0.8098,-1.36724)">
                    <path d="M360.564,278.748C357.703,276.504 353.832,272.156 351.981,272.016C350.13,271.876 349.653,275.831 349.457,277.906C349.26,279.982 349.765,283.852 350.803,284.47C351.841,285.087 355.15,282.815 355.683,281.609C356.216,280.402 354.561,278.692 354,277.233" style="fill:none;stroke:white;stroke-width:0.25px;"/>
                </g>
                <g transform="matrix(1,0,0,1,0.8098,-1.36724)">
                    <path d="M281.804,312.406C283.431,311.957 285.703,311.929 286.684,311.059C287.666,310.19 287.918,308.311 287.694,307.189C287.47,306.067 286.151,304.748 285.338,304.328C284.584,303.938 283.262,304.075 282.814,304.664C282.365,305.253 282.702,306.796 282.645,307.862" style="fill:none;stroke:white;stroke-width:0.25px;"/>
                </g>
                <g transform="matrix(1,0,0,1,0.8098,-1.36724)">
                    <path d="M294.594,339.164C297.567,337.649 302.728,336.191 303.513,334.62C304.299,333.049 300.793,331.142 299.306,329.74C297.878,328.392 295.912,325.813 294.594,326.205C293.276,326.598 291.481,330.777 291.396,332.096C291.325,333.215 292.995,334.031 294.089,334.115C295.183,334.199 296.67,333.105 297.96,332.6" style="fill:none;stroke:white;stroke-width:0.25px;"/>
                </g>
            </g>
            <path d="M246.984,265.334C282.537,293.286 318.09,293.575 353.643,265.546C356.179,269.929 357.637,274.311 357.46,278.693C349.156,299.067 300.763,341.224 300.763,341.224C300.763,341.224 252.724,299.882 242.531,278.693C242.853,273.078 244.399,268.687 246.984,265.334Z" style="fill:none;stroke:rgb(67,61,57);stroke-width:2.33px;"/>
        </g>
    </g>
</svg>
