<?xml version="1.0" encoding="UTF-8" standalone="no"?>
<!DOCTYPE svg PUBLIC "-//W3C//DTD SVG 1.1//EN" "http://www.w3.org/Graphics/SVG/1.1/DTD/svg11.dtd">
<svg width="100%" height="100%" viewBox="0 0 3000 3000" version="1.1" xmlns="http://www.w3.org/2000/svg" xmlns:xlink="http://www.w3.org/1999/xlink" xml:space="preserve" xmlns:serif="http://www.serif.com/" style="fill-rule:evenodd;clip-rule:evenodd;stroke-linejoin:round;stroke-miterlimit:2;">
    <g id="tail2" transform="matrix(1.82814,0,0,5,-25.9647,1537.6)">
        <g transform="matrix(0.547003,0,0,0.2,14.2028,-307.521)">
            <rect x="0" y="0" width="3000" height="3000" style="fill:none;"/>
        </g>
        <g transform="matrix(2.73501,0,0,1,-2615.09,-150.209)">
            <path d="M1376.66,232.07C1385.09,220.263 1386.38,182.407 1361.96,169.758C1361.71,169.634 1361.57,169.378 1361.58,169.104C1361.59,168.831 1361.77,168.591 1362.02,168.491C1370.74,164.996 1375.98,165.131 1383.42,167.501C1382.39,163.858 1381.08,161.338 1380.15,158.692C1380.06,158.419 1380.15,158.119 1380.37,157.936C1380.59,157.753 1380.9,157.725 1381.15,157.864C1390.03,162.79 1392.35,168.367 1393.01,176.777C1394.91,175.321 1396.21,173.2 1396.41,169.858C1396.43,169.572 1396.63,169.328 1396.9,169.242C1397.17,169.156 1397.47,169.247 1397.65,169.471C1401.48,174.47 1403.18,182.945 1402.29,190.38C1404.26,189.29 1405.73,187.621 1406.54,185.205C1406.64,184.931 1406.89,184.745 1407.18,184.739C1407.47,184.732 1407.74,184.906 1407.85,185.176C1411.45,194.371 1413.61,205.155 1411.87,215.114C1414.02,213.943 1416.08,211.885 1418.04,208.751C1418.19,208.505 1418.48,208.382 1418.77,208.441C1419.05,208.501 1419.27,208.73 1419.31,209.017C1420.98,219.294 1420.14,224.514 1414.96,235.177C1417.54,235.636 1420.12,235.089 1422.7,233.357C1422.92,233.208 1423.21,233.201 1423.44,233.338C1423.67,233.475 1423.8,233.733 1423.78,234C1422.69,244.295 1417.81,256.061 1410.94,263.621C1413.81,264.84 1416.61,265.069 1419.52,264.673C1419.8,264.633 1420.07,264.765 1420.22,265.007C1420.36,265.249 1420.34,265.553 1420.17,265.777C1389.26,305.948 1296.12,301.019 1261.14,294.937L1261.14,261.676C1261.14,261.676 1311.56,261.812 1332.17,258.603C1352.78,255.394 1365.1,248.27 1376.66,232.07Z" style="fill:rgb(202,175,159);"/>
            <path d="M1375.09,230.943C1363.86,246.673 1351.89,253.572 1331.87,256.687C1311.35,259.882 1261.15,259.737 1261.15,259.737C1260.63,259.735 1260.14,259.939 1259.78,260.303C1259.41,260.667 1259.2,261.16 1259.2,261.676L1259.2,294.937C1259.2,295.88 1259.88,296.686 1260.81,296.847C1281.94,300.521 1324.15,303.774 1361.26,297.055C1386.35,292.512 1409.09,283.365 1421.71,266.959C1421.71,266.954 1421.72,266.949 1421.72,266.943C1422.36,266.092 1422.43,264.939 1421.89,264.021C1421.35,263.107 1420.31,262.606 1419.26,262.752C1417.58,262.98 1415.94,262.977 1414.3,262.645C1420.41,254.842 1424.68,243.897 1425.7,234.203C1425.7,234.195 1425.7,234.187 1425.71,234.179C1425.8,233.167 1425.3,232.192 1424.43,231.672C1423.56,231.152 1422.46,231.18 1421.62,231.745C1421.62,231.746 1421.62,231.747 1421.61,231.748C1420.41,232.558 1419.2,233.062 1418,233.274C1422.24,223.917 1422.82,218.518 1421.23,208.713C1421.06,207.631 1420.24,206.767 1419.16,206.543C1418.09,206.319 1416.99,206.786 1416.4,207.716C1416.4,207.719 1416.4,207.722 1416.39,207.725C1415.72,208.805 1415.04,209.745 1414.34,210.553C1414.86,201.688 1412.8,192.492 1409.65,184.468C1409.65,184.464 1409.65,184.46 1409.65,184.456C1409.24,183.435 1408.24,182.775 1407.14,182.8C1406.04,182.825 1405.07,183.53 1404.71,184.568C1404.71,184.574 1404.71,184.58 1404.71,184.585C1404.62,184.828 1404.53,185.061 1404.44,185.285C1404.24,178.887 1402.38,172.462 1399.19,168.292C1399.18,168.282 1399.17,168.271 1399.16,168.26C1398.49,167.412 1397.36,167.067 1396.32,167.392C1395.28,167.716 1394.55,168.644 1394.48,169.728C1394.48,169.732 1394.48,169.737 1394.48,169.741C1394.44,170.357 1394.36,170.922 1394.24,171.44C1392.9,165.106 1389.75,160.418 1382.1,156.17C1381.15,155.642 1379.97,155.75 1379.13,156.443C1378.3,157.135 1377.97,158.27 1378.31,159.301C1378.32,159.31 1378.32,159.32 1378.32,159.329C1378.92,161.04 1379.68,162.697 1380.43,164.646C1374.27,163.186 1369.1,163.567 1361.31,166.689C1360.35,167.069 1359.69,167.976 1359.64,169.009C1359.59,170.043 1360.15,171.012 1361.07,171.483C1372.69,177.502 1378.11,189.57 1379.7,201.487C1381.31,213.439 1379.11,225.309 1375.09,230.943ZM1376.66,232.07C1385.09,220.263 1386.38,182.407 1361.96,169.758C1361.71,169.634 1361.57,169.378 1361.58,169.104C1361.59,168.831 1361.77,168.591 1362.02,168.491C1370.74,164.996 1375.98,165.131 1383.42,167.501C1382.39,163.858 1381.08,161.338 1380.15,158.692C1380.06,158.419 1380.15,158.119 1380.37,157.936C1380.59,157.753 1380.9,157.725 1381.15,157.864C1390.03,162.79 1392.35,168.367 1393.01,176.777C1394.91,175.321 1396.21,173.2 1396.41,169.858C1396.43,169.572 1396.63,169.328 1396.9,169.242C1397.17,169.156 1397.47,169.247 1397.65,169.471C1401.48,174.47 1403.18,182.945 1402.29,190.38C1404.26,189.29 1405.73,187.621 1406.54,185.205C1406.64,184.931 1406.89,184.745 1407.18,184.739C1407.47,184.732 1407.74,184.906 1407.85,185.176C1411.45,194.371 1413.61,205.155 1411.87,215.114C1414.02,213.943 1416.08,211.885 1418.04,208.751C1418.19,208.505 1418.48,208.382 1418.77,208.441C1419.05,208.501 1419.27,208.73 1419.31,209.017C1420.98,219.294 1420.14,224.514 1414.96,235.177C1417.54,235.636 1420.12,235.089 1422.7,233.357C1422.92,233.208 1423.21,233.201 1423.44,233.338C1423.67,233.475 1423.8,233.733 1423.78,234C1422.69,244.295 1417.81,256.061 1410.94,263.621C1413.81,264.84 1416.61,265.069 1419.52,264.673C1419.8,264.633 1420.07,264.765 1420.22,265.007C1420.36,265.249 1420.34,265.553 1420.17,265.777C1389.26,305.948 1296.12,301.019 1261.14,294.937L1261.14,261.676C1261.14,261.676 1311.56,261.812 1332.17,258.603C1352.78,255.394 1365.1,248.27 1376.66,232.07Z" style="fill:rgb(67,61,57);"/>
        </g>
        <g id="a" transform="matrix(0.547003,0,0,0.2,14.2028,-307.521)">
            <use xlink:href="#_Image1" x="1500.53" y="1635.05" width="813.169px" height="649.029px" transform="matrix(0.998979,0,0,0.998506,0,0)"/>
        </g>
    </g>
</svg>
