<?xml version="1.0" encoding="UTF-8" standalone="no"?>
<!DOCTYPE svg PUBLIC "-//W3C//DTD SVG 1.1//EN" "http://www.w3.org/Graphics/SVG/1.1/DTD/svg11.dtd">
<svg width="100%" height="100%" viewBox="0 0 3000 3000" version="1.1" xmlns="http://www.w3.org/2000/svg" xmlns:xlink="http://www.w3.org/1999/xlink" xml:space="preserve" xmlns:serif="http://www.serif.com/" style="fill-rule:evenodd;clip-rule:evenodd;stroke-linejoin:round;stroke-miterlimit:2;">
    <g id="tail0" transform="matrix(1.82814,0,0,5,-26.1932,1537.56)">
        <g transform="matrix(2.73501,0,0,1,-1728.9,-945.512)">
            <rect x="637.375" y="638" width="600" height="600" style="fill:none;"/>
        </g>
        <g transform="matrix(2.73501,0,0,0.502158,13.6558,-74.3494)">
            <path d="M431.967,196.782C426.481,202.608 433.783,273.901 416.045,322.756C409.412,341.026 391.856,358.218 372.745,362.069C353.404,365.966 300,346.138 300,346.138L300,458.433C300,458.433 368.974,451.783 391.613,440.51C411.466,430.625 428.035,411.559 435.832,390.797C445.39,365.345 449.605,320.135 448.961,287.799C448.346,256.942 437.453,190.956 431.967,196.782Z" style="fill:rgb(202,175,159);"/>
            <path d="M431.054,193.375C430.231,194.249 429.499,195.878 428.975,198.413C428.191,202.213 427.8,208.714 427.526,217.077C426.69,242.604 426.648,286.964 414.474,320.494C408.061,338.157 391.026,354.505 372.55,358.227C353.354,362.095 300.355,342.342 300.355,342.342C299.789,342.131 299.204,342.434 298.761,343.168C298.318,343.901 298.061,344.99 298.061,346.138L298.061,458.433C298.061,459.49 298.278,460.5 298.663,461.229C299.047,461.957 299.564,462.341 300.094,462.29C300.094,462.29 369.351,455.576 392.083,444.256C412.443,434.118 429.389,414.402 437.385,393.109C447.175,367.04 451.558,320.766 450.898,287.646C450.394,262.335 443.091,214.004 437.332,198.73C436.219,195.777 435.09,193.913 434.099,193.123C433.021,192.264 432.001,192.37 431.054,193.375ZM431.967,196.782C426.481,202.608 433.783,273.901 416.045,322.756C409.412,341.026 391.856,358.218 372.745,362.069C353.404,365.966 300,346.138 300,346.138L300,458.433C300,458.433 368.974,451.783 391.613,440.51C411.466,430.625 428.035,411.559 435.832,390.797C445.39,365.345 449.605,320.135 448.961,287.799C448.346,256.942 437.453,190.956 431.967,196.782Z" style="fill:rgb(67,61,57);"/>
        </g>
        <g id="a" transform="matrix(0.547003,0,0,0.2,14.3278,-307.512)">
            <use xlink:href="#_Image1" x="1518.06" y="1751.71" width="727.298px" height="564.808px" transform="matrix(0.999036,0,0,0.999659,0,0)"/>
        </g>
    </g>
</svg>
