<?xml version="1.0" encoding="UTF-8" standalone="no"?>
<!DOCTYPE svg PUBLIC "-//W3C//DTD SVG 1.1//EN" "http://www.w3.org/Graphics/SVG/1.1/DTD/svg11.dtd">
<svg width="100%" height="100%" viewBox="0 0 3000 3000" version="1.1" xmlns="http://www.w3.org/2000/svg" xmlns:xlink="http://www.w3.org/1999/xlink" xml:space="preserve" xmlns:serif="http://www.serif.com/" style="fill-rule:evenodd;clip-rule:evenodd;stroke-linejoin:round;stroke-miterlimit:2;">
    <g id="tail1" transform="matrix(1.82814,0,0,5,-26.1932,1507.56)">
        <g transform="matrix(2.73501,0,0,1,-2615.09,-150.209)">
            <path d="M1384.81,230.422C1393.39,218.399 1410.53,192.854 1382.34,146.711C1391.21,146.363 1399.3,150.103 1402.42,158.501C1404.25,154.93 1404.37,151.529 1403.49,148.229C1407.16,151.421 1411.31,158.91 1412.01,167.777C1414.23,166.076 1415.63,163.468 1415.42,159.066C1420.11,163.742 1422.27,173.192 1421.29,181.38C1423.77,180.01 1425.45,177.726 1426.04,174.194C1430.11,183.797 1432.74,195.431 1430.87,206.114C1433.37,204.751 1435.76,202.188 1437.99,198.123C1440.07,209.692 1439.45,223.878 1433.96,235.177C1436.94,235.708 1439.93,234.893 1442.91,232.452C1442.18,243.095 1437.16,255.679 1429.94,263.621C1433.37,265.075 1436.69,265.12 1440.21,264.377C1432.8,273.268 1422.59,280.692 1413.56,283.099C1415.27,285.14 1417.95,286.041 1421.29,286.191C1410.49,292.689 1399.07,296.224 1386.66,295.157C1387.46,297.349 1389.25,299.418 1392.22,301.34C1378.93,305.947 1365.63,307.084 1352.34,306.287C1352.91,307.73 1354.98,309.173 1358.52,310.616C1338.18,314.44 1317.97,314.78 1297.9,311.58C1299.58,313.917 1303.52,315.939 1307.32,316.958C1285.33,317.469 1261.14,311.066 1261.14,311.066L1261.14,249.676C1261.14,249.676 1311.56,261.812 1332.17,258.603C1352.78,255.394 1373.25,246.622 1384.81,230.422Z" style="fill:rgb(202,175,159);"/>
            <path d="M1358.38,308.45C1369.87,308.6 1381.36,307.155 1392.86,303.172C1393.56,302.93 1394.06,302.309 1394.15,301.573C1394.24,300.837 1393.9,300.115 1393.28,299.713C1392.06,298.922 1391.06,298.114 1390.27,297.279C1401.65,297.443 1412.24,293.902 1422.29,287.852C1423.02,287.411 1423.37,286.542 1423.16,285.714C1422.95,284.885 1422.23,284.292 1421.37,284.254C1420.09,284.196 1418.92,284.028 1417.9,283.693C1426.22,280.389 1435.06,273.589 1441.7,265.619C1442.23,264.985 1442.3,264.085 1441.88,263.378C1441.45,262.67 1440.62,262.31 1439.82,262.48C1437.58,262.95 1435.44,263.078 1433.3,262.645C1439.75,254.405 1444.15,242.66 1444.85,232.586C1444.9,231.814 1444.49,231.085 1443.8,230.729C1443.12,230.374 1442.28,230.461 1441.68,230.951C1440.09,232.253 1438.51,233.022 1436.92,233.286C1441.46,222.128 1441.88,208.805 1439.9,197.781C1439.75,196.972 1439.12,196.343 1438.31,196.21C1437.49,196.077 1436.69,196.469 1436.29,197.189C1435.33,198.938 1434.35,200.388 1433.34,201.558C1433.9,191.933 1431.42,181.917 1427.83,173.437C1427.49,172.643 1426.67,172.167 1425.81,172.269C1424.96,172.37 1424.27,173.024 1424.13,173.875C1423.98,174.77 1423.75,175.569 1423.43,176.278C1423.2,169.013 1420.82,161.718 1416.79,157.693C1416.22,157.127 1415.37,156.968 1414.63,157.293C1413.9,157.617 1413.45,158.359 1413.48,159.159C1413.55,160.503 1413.44,161.646 1413.19,162.622C1411.57,155.4 1407.97,149.557 1404.76,146.766C1404.12,146.206 1403.18,146.133 1402.46,146.584C1401.74,147.035 1401.39,147.906 1401.61,148.729C1402.03,150.282 1402.19,151.861 1401.99,153.475C1397.72,147.282 1390.31,144.458 1382.26,144.773C1381.57,144.8 1380.95,145.189 1380.63,145.796C1380.3,146.402 1380.32,147.135 1380.68,147.722C1394.46,170.266 1397.24,187.758 1395.44,201.103C1393.67,214.358 1387.4,223.462 1383.24,229.296L1383.24,229.296C1371.96,245.089 1351.97,253.559 1331.87,256.687C1311.48,259.863 1261.6,247.791 1261.6,247.791C1261.02,247.651 1260.41,247.785 1259.94,248.153C1259.48,248.52 1259.2,249.082 1259.2,249.676L1259.2,311.066C1259.2,311.945 1259.8,312.715 1260.65,312.94C1260.65,312.94 1285.11,319.413 1307.36,318.897C1308.33,318.874 1309.13,318.147 1309.24,317.189C1309.36,316.232 1308.75,315.335 1307.82,315.086C1307.37,314.964 1306.91,314.828 1306.46,314.679C1323.83,316.556 1341.31,315.825 1358.88,312.521C1359.73,312.362 1360.37,311.665 1360.45,310.81C1360.54,309.954 1360.05,309.144 1359.25,308.82C1358.95,308.696 1358.66,308.573 1358.38,308.45ZM1384.81,230.422C1393.39,218.399 1410.53,192.854 1382.34,146.711C1391.21,146.363 1399.3,150.103 1402.42,158.501C1404.25,154.93 1404.37,151.529 1403.49,148.229C1407.16,151.421 1411.31,158.91 1412.01,167.777C1414.23,166.076 1415.63,163.468 1415.42,159.066C1420.11,163.742 1422.27,173.192 1421.29,181.38C1423.77,180.01 1425.45,177.726 1426.04,174.194C1430.11,183.797 1432.74,195.431 1430.87,206.114C1433.37,204.751 1435.76,202.188 1437.99,198.123C1440.07,209.692 1439.45,223.878 1433.96,235.177C1436.94,235.708 1439.93,234.893 1442.91,232.452C1442.18,243.095 1437.16,255.679 1429.94,263.621C1433.37,265.075 1436.69,265.12 1440.21,264.377C1432.8,273.268 1422.59,280.692 1413.56,283.099C1415.27,285.14 1417.95,286.041 1421.29,286.191C1410.49,292.689 1399.07,296.224 1386.66,295.157C1387.46,297.349 1389.25,299.418 1392.22,301.34C1378.93,305.947 1365.63,307.084 1352.34,306.287C1352.91,307.73 1354.98,309.173 1358.52,310.616C1338.18,314.44 1317.97,314.78 1297.9,311.58C1299.58,313.917 1303.52,315.939 1307.32,316.958C1285.33,317.469 1261.14,311.066 1261.14,311.066L1261.14,249.676C1261.14,249.676 1311.56,261.812 1332.17,258.603C1352.78,255.394 1373.25,246.622 1384.81,230.422Z" style="fill:rgb(67,61,57);"/>
        </g>
        <g id="a" transform="matrix(0.547003,0,0,0.2,14.3278,-301.512)">
            <use xlink:href="#_Image1" x="1499.04" y="1556.27" width="908.835px" height="785.724px" transform="matrix(0.999819,0,0,0.999649,0,0)"/>
        </g>
        <g transform="matrix(2.73501,0,0,1,-1728.9,-939.512)">
            <rect x="637.375" y="638" width="600" height="600" style="fill:none;"/>
        </g>
    </g>
</svg>
